<?xml version="1.0" encoding="UTF-8" standalone="no"?>
<!DOCTYPE svg PUBLIC "-//W3C//DTD SVG 1.1//EN"
 "http://www.w3.org/Graphics/SVG/1.1/DTD/svg11.dtd">
<!-- Generated by graphviz version 2.43.0 (0)
 -->
<!-- Title: tls_1_3 Pages: 1 -->
<svg width="428pt" height="523pt"
 viewBox="0.00 0.00 428.00 522.72" xmlns="http://www.w3.org/2000/svg" xmlns:xlink="http://www.w3.org/1999/xlink">
<g id="page0,1_graph0" class="graph" transform="scale(1 1) rotate(0) translate(4 518.72)">
<title>tls_1_3</title>
<polygon fill="white" stroke="transparent" points="-4,4 -4,-518.72 424,-518.72 424,4 -4,4"/>
<text text-anchor="middle" x="210" y="-499.52" font-family="Helvetica,sans-Serif" font-size="14.00">TLS 1.3</text>
<!-- client -->
<g id="node1" class="node">
<title>client</title>
<image xlink:href="/home/aaron/Dropbox/git/nws/slides/images/graphs/terminal.svg" width="78px" height="56px" preserveAspectRatio="xMinYMin meet" x="0" y="-491.72"/>
<text text-anchor="middle" x="39" y="-460.02" font-family="Helvetica,sans-Serif" font-size="14.00"> &#160;client</text>
</g>
<!-- c1 -->
<g id="node2" class="node">
<title>c1</title>
<ellipse fill="black" stroke="black" cx="39" cy="-365.72" rx="0.36" ry="0.36"/>
</g>
<!-- client&#45;&gt;c1 -->
<g id="edge1" class="edge">
<title>client&#45;&gt;c1</title>
<path fill="none" stroke="black" d="M39,-435.47C39,-407.97 39,-369.23 39,-366.84"/>
</g>
<!-- c2 -->
<g id="node3" class="node">
<title>c2</title>
<ellipse fill="black" stroke="black" cx="39" cy="-239.22" rx="0.36" ry="0.36"/>
</g>
<!-- c1&#45;&gt;c2 -->
<g id="edge2" class="edge">
<title>c1&#45;&gt;c2</title>
<path fill="none" stroke="black" d="M39,-364.63C39,-360.92 39,-243.96 39,-240.31"/>
</g>
<!-- m1 -->
<g id="node7" class="node">
<title>m1</title>
<path fill="none" stroke="black" d="M279,-399.72C279,-399.72 141,-399.72 141,-399.72 135,-399.72 129,-393.72 129,-387.72 129,-387.72 129,-343.72 129,-343.72 129,-337.72 135,-331.72 141,-331.72 141,-331.72 279,-331.72 279,-331.72 285,-331.72 291,-337.72 291,-343.72 291,-343.72 291,-387.72 291,-387.72 291,-393.72 285,-399.72 279,-399.72"/>
<text text-anchor="start" x="170" y="-384.52" font-family="Helvetica,sans-Serif" font-size="14.00"> client hello</text>
<text text-anchor="start" x="153" y="-369.52" font-family="Helvetica,sans-Serif" font-size="14.00">random number</text>
<text text-anchor="start" x="146.5" y="-354.52" font-family="Helvetica,sans-Serif" font-size="14.00">supported ciphers</text>
<text text-anchor="start" x="174" y="-339.52" font-family="Helvetica,sans-Serif" font-size="14.00">key share </text>
</g>
<!-- c1&#45;&gt;m1 -->
<g id="edge14" class="edge">
<title>c1&#45;&gt;m1</title>
<path fill="none" stroke="black" d="M39.67,-365.72C69.39,-365.72 99.11,-365.72 128.83,-365.72"/>
</g>
<!-- c3 -->
<g id="node4" class="node">
<title>c3</title>
<ellipse fill="black" stroke="black" cx="39" cy="-127.72" rx="0.36" ry="0.36"/>
</g>
<!-- c2&#45;&gt;c3 -->
<g id="edge3" class="edge">
<title>c2&#45;&gt;c3</title>
<path fill="none" stroke="black" d="M39,-238.14C39,-234.88 39,-132.01 39,-128.8"/>
</g>
<!-- m2 -->
<g id="node8" class="node">
<title>m2</title>
<path fill="none" stroke="black" d="M279,-295.72C279,-295.72 141,-295.72 141,-295.72 135,-295.72 129,-289.72 129,-283.72 129,-283.72 129,-194.72 129,-194.72 129,-188.72 135,-182.72 141,-182.72 141,-182.72 279,-182.72 279,-182.72 285,-182.72 291,-188.72 291,-194.72 291,-194.72 291,-283.72 291,-283.72 291,-289.72 285,-295.72 279,-295.72"/>
<text text-anchor="start" x="166.5" y="-280.52" font-family="Helvetica,sans-Serif" font-size="14.00"> server hello</text>
<text text-anchor="start" x="153" y="-265.52" font-family="Helvetica,sans-Serif" font-size="14.00">random number</text>
<text text-anchor="start" x="161" y="-250.52" font-family="Helvetica,sans-Serif" font-size="14.00">chosen cipher</text>
<text text-anchor="start" x="176.5" y="-235.52" font-family="Helvetica,sans-Serif" font-size="14.00">key share</text>
<text text-anchor="start" x="177" y="-220.52" font-family="Helvetica,sans-Serif" font-size="14.00">signature</text>
<text text-anchor="start" x="160" y="-205.52" font-family="Helvetica,sans-Serif" font-size="14.00">change cipher</text>
<text text-anchor="start" x="179.5" y="-190.52" font-family="Helvetica,sans-Serif" font-size="14.00">finished </text>
</g>
<!-- c2&#45;&gt;m2 -->
<g id="edge16" class="edge">
<title>c2&#45;&gt;m2</title>
<path fill="none" stroke="black" d="M49.77,-239.22C76.12,-239.22 102.47,-239.22 128.83,-239.22"/>
<polygon fill="black" stroke="black" points="49.67,-235.72 39.67,-239.22 49.67,-242.72 49.67,-235.72"/>
</g>
<!-- c4 -->
<g id="node5" class="node">
<title>c4</title>
<ellipse fill="black" stroke="black" cx="39" cy="-54.72" rx="0.36" ry="0.36"/>
</g>
<!-- c3&#45;&gt;c4 -->
<g id="edge4" class="edge">
<title>c3&#45;&gt;c4</title>
<path fill="none" stroke="black" d="M39,-126.67C39,-124.55 39,-57.85 39,-55.77"/>
</g>
<!-- m3 -->
<g id="node9" class="node">
<title>m3</title>
<path fill="none" stroke="black" d="M279,-146.72C279,-146.72 141,-146.72 141,-146.72 135,-146.72 129,-140.72 129,-134.72 129,-134.72 129,-120.72 129,-120.72 129,-114.72 135,-108.72 141,-108.72 141,-108.72 279,-108.72 279,-108.72 285,-108.72 291,-114.72 291,-120.72 291,-120.72 291,-134.72 291,-134.72 291,-140.72 285,-146.72 279,-146.72"/>
<text text-anchor="start" x="158" y="-131.52" font-family="Helvetica,sans-Serif" font-size="14.00"> change cipher</text>
<text text-anchor="start" x="169" y="-116.52" font-family="Helvetica,sans-Serif" font-size="14.00">HTTPS GET </text>
</g>
<!-- c3&#45;&gt;m3 -->
<g id="edge18" class="edge">
<title>c3&#45;&gt;m3</title>
<path fill="none" stroke="black" d="M39.67,-127.72C69.39,-127.72 99.11,-127.72 128.83,-127.72"/>
</g>
<!-- c5 -->
<g id="node6" class="node">
<title>c5</title>
<ellipse fill="black" stroke="black" cx="39" cy="-0.36" rx="0.36" ry="0.36"/>
</g>
<!-- c4&#45;&gt;c5 -->
<g id="edge5" class="edge">
<title>c4&#45;&gt;c5</title>
<path fill="none" stroke="black" d="M39,-53.57C39,-50.56 39,-3.78 39,-0.86"/>
</g>
<!-- m4 -->
<g id="node10" class="node">
<title>m4</title>
<path fill="none" stroke="black" d="M279,-72.72C279,-72.72 141,-72.72 141,-72.72 135,-72.72 129,-66.72 129,-60.72 129,-60.72 129,-48.72 129,-48.72 129,-42.72 135,-36.72 141,-36.72 141,-36.72 279,-36.72 279,-36.72 285,-36.72 291,-42.72 291,-48.72 291,-48.72 291,-60.72 291,-60.72 291,-66.72 285,-72.72 279,-72.72"/>
<text text-anchor="start" x="155.5" y="-51.02" font-family="Helvetica,sans-Serif" font-size="14.00"> HTTPS answer </text>
</g>
<!-- c4&#45;&gt;m4 -->
<g id="edge20" class="edge">
<title>c4&#45;&gt;m4</title>
<path fill="none" stroke="black" d="M49.77,-54.72C76.12,-54.72 102.47,-54.72 128.83,-54.72"/>
<polygon fill="black" stroke="black" points="49.67,-51.22 39.67,-54.72 49.67,-58.22 49.67,-51.22"/>
</g>
<!-- m1&#45;&gt;m2 -->
<!-- s1 -->
<g id="node12" class="node">
<title>s1</title>
<ellipse fill="black" stroke="black" cx="381" cy="-365.72" rx="0.36" ry="0.36"/>
</g>
<!-- m1&#45;&gt;s1 -->
<g id="edge15" class="edge">
<title>m1&#45;&gt;s1</title>
<path fill="none" stroke="black" d="M291.16,-365.72C317.51,-365.72 343.85,-365.72 370.2,-365.72"/>
<polygon fill="black" stroke="black" points="370.3,-369.22 380.3,-365.72 370.3,-362.22 370.3,-369.22"/>
</g>
<!-- m2&#45;&gt;m3 -->
<!-- s2 -->
<g id="node13" class="node">
<title>s2</title>
<ellipse fill="black" stroke="black" cx="381" cy="-239.22" rx="0.36" ry="0.36"/>
</g>
<!-- m2&#45;&gt;s2 -->
<g id="edge17" class="edge">
<title>m2&#45;&gt;s2</title>
<path fill="none" stroke="black" d="M291.16,-239.22C320.87,-239.22 350.58,-239.22 380.3,-239.22"/>
</g>
<!-- m3&#45;&gt;m4 -->
<!-- s3 -->
<g id="node14" class="node">
<title>s3</title>
<ellipse fill="black" stroke="black" cx="381" cy="-127.72" rx="0.36" ry="0.36"/>
</g>
<!-- m3&#45;&gt;s3 -->
<g id="edge19" class="edge">
<title>m3&#45;&gt;s3</title>
<path fill="none" stroke="black" d="M291.16,-127.72C317.51,-127.72 343.85,-127.72 370.2,-127.72"/>
<polygon fill="black" stroke="black" points="370.3,-131.22 380.3,-127.72 370.3,-124.22 370.3,-131.22"/>
</g>
<!-- s4 -->
<g id="node15" class="node">
<title>s4</title>
<ellipse fill="black" stroke="black" cx="381" cy="-54.72" rx="0.36" ry="0.36"/>
</g>
<!-- m4&#45;&gt;s4 -->
<g id="edge21" class="edge">
<title>m4&#45;&gt;s4</title>
<path fill="none" stroke="black" d="M291.16,-54.72C320.87,-54.72 350.58,-54.72 380.3,-54.72"/>
</g>
<!-- server -->
<g id="node11" class="node">
<title>server</title>
<image xlink:href="/home/aaron/Dropbox/git/nws/slides/images/graphs/terminal.svg" width="78px" height="56px" preserveAspectRatio="xMinYMin meet" x="342" y="-491.72"/>
<text text-anchor="middle" x="381" y="-460.02" font-family="Helvetica,sans-Serif" font-size="14.00"> server</text>
</g>
<!-- server&#45;&gt;s1 -->
<g id="edge9" class="edge">
<title>server&#45;&gt;s1</title>
<path fill="none" stroke="black" d="M381,-435.47C381,-407.97 381,-369.23 381,-366.84"/>
</g>
<!-- s1&#45;&gt;s2 -->
<g id="edge10" class="edge">
<title>s1&#45;&gt;s2</title>
<path fill="none" stroke="black" d="M381,-364.63C381,-360.92 381,-243.96 381,-240.31"/>
</g>
<!-- s2&#45;&gt;s3 -->
<g id="edge11" class="edge">
<title>s2&#45;&gt;s3</title>
<path fill="none" stroke="black" d="M381,-238.14C381,-234.88 381,-132.01 381,-128.8"/>
</g>
<!-- s3&#45;&gt;s4 -->
<g id="edge12" class="edge">
<title>s3&#45;&gt;s4</title>
<path fill="none" stroke="black" d="M381,-126.67C381,-124.55 381,-57.85 381,-55.77"/>
</g>
<!-- s5 -->
<g id="node16" class="node">
<title>s5</title>
<ellipse fill="black" stroke="black" cx="381" cy="-0.36" rx="0.36" ry="0.36"/>
</g>
<!-- s4&#45;&gt;s5 -->
<g id="edge13" class="edge">
<title>s4&#45;&gt;s5</title>
<path fill="none" stroke="black" d="M381,-53.57C381,-50.56 381,-3.78 381,-0.86"/>
</g>
</g>
</svg>
