<?xml version="1.0" encoding="UTF-8" standalone="no"?>
<!DOCTYPE svg PUBLIC "-//W3C//DTD SVG 1.1//EN"
 "http://www.w3.org/Graphics/SVG/1.1/DTD/svg11.dtd">
<!-- Generated by graphviz version 2.43.0 (0)
 -->
<!-- Title: tls_1_2 Pages: 1 -->
<svg width="464pt" height="710pt"
 viewBox="0.00 0.00 464.00 709.72" xmlns="http://www.w3.org/2000/svg" xmlns:xlink="http://www.w3.org/1999/xlink">
<g id="graph0" class="graph" transform="scale(1 1) rotate(0) translate(4 705.72)">
<title>tls_1_2</title>
<polygon fill="white" stroke="transparent" points="-4,4 -4,-705.72 460,-705.72 460,4 -4,4"/>
<text text-anchor="middle" x="228" y="-686.52" font-family="Helvetica,sans-Serif" font-size="14.00">TLS 1.2</text>
<!-- client -->
<g id="node1" class="node">
<title>client</title>
<image xlink:href="/home/aaron/Dropbox/git/nws/slides/images/graphs/terminal.svg" width="78px" height="56px" preserveAspectRatio="xMinYMin meet" x="0" y="-678.72"/>
<text text-anchor="middle" x="39" y="-647.02" font-family="Helvetica,sans-Serif" font-size="14.00"> &#160;client</text>
</g>
<!-- c1 -->
<g id="node2" class="node">
<title>c1</title>
<ellipse fill="black" stroke="black" cx="39" cy="-554.72" rx="0.36" ry="0.36"/>
</g>
<!-- client&#45;&gt;c1 -->
<g id="edge1" class="edge">
<title>client&#45;&gt;c1</title>
<path fill="none" stroke="black" d="M39,-622.53C39,-595.64 39,-558.15 39,-555.83"/>
</g>
<!-- c2 -->
<g id="node3" class="node">
<title>c2</title>
<ellipse fill="black" stroke="black" cx="39" cy="-440.72" rx="0.36" ry="0.36"/>
</g>
<!-- c1&#45;&gt;c2 -->
<g id="edge2" class="edge">
<title>c1&#45;&gt;c2</title>
<path fill="none" stroke="black" d="M39,-553.64C39,-550.3 39,-445.09 39,-441.8"/>
</g>
<!-- m1 -->
<g id="node9" class="node">
<title>m1</title>
<path fill="none" stroke="black" d="M315,-586.72C315,-586.72 141,-586.72 141,-586.72 135,-586.72 129,-580.72 129,-574.72 129,-574.72 129,-534.72 129,-534.72 129,-528.72 135,-522.72 141,-522.72 141,-522.72 315,-522.72 315,-522.72 321,-522.72 327,-528.72 327,-534.72 327,-534.72 327,-574.72 327,-574.72 327,-580.72 321,-586.72 315,-586.72"/>
<text text-anchor="start" x="187.5" y="-572.52" font-family="Helvetica,sans-Serif" font-size="14.00"> </text>
<text text-anchor="start" x="192.5" y="-572.52" font-family="Helvetica,sans-Serif" font-style="italic" font-size="14.00">(plaintext:)</text>
<text text-anchor="start" x="190" y="-558.52" font-family="Helvetica,sans-Serif" font-size="14.00">client hello</text>
<text text-anchor="start" x="171" y="-544.52" font-family="Helvetica,sans-Serif" font-size="14.00">random number</text>
<text text-anchor="start" x="162" y="-530.52" font-family="Helvetica,sans-Serif" font-size="14.00">supported ciphers </text>
</g>
<!-- c1&#45;&gt;m1 -->
<g id="edge20" class="edge">
<title>c1&#45;&gt;m1</title>
<path fill="none" stroke="black" d="M39.37,-554.72C69.21,-554.72 99.05,-554.72 128.9,-554.72"/>
</g>
<!-- c3 -->
<g id="node4" class="node">
<title>c3</title>
<ellipse fill="black" stroke="black" cx="39" cy="-312.72" rx="0.36" ry="0.36"/>
</g>
<!-- c2&#45;&gt;c3 -->
<g id="edge3" class="edge">
<title>c2&#45;&gt;c3</title>
<path fill="none" stroke="black" d="M39,-439.63C39,-435.87 39,-317.51 39,-313.81"/>
</g>
<!-- m2 -->
<g id="node10" class="node">
<title>m2</title>
<path fill="none" stroke="black" d="M315,-486.72C315,-486.72 141,-486.72 141,-486.72 135,-486.72 129,-480.72 129,-474.72 129,-474.72 129,-406.72 129,-406.72 129,-400.72 135,-394.72 141,-394.72 141,-394.72 315,-394.72 315,-394.72 321,-394.72 327,-400.72 327,-406.72 327,-406.72 327,-474.72 327,-474.72 327,-480.72 321,-486.72 315,-486.72"/>
<text text-anchor="start" x="187.5" y="-472.52" font-family="Helvetica,sans-Serif" font-size="14.00"> </text>
<text text-anchor="start" x="192.5" y="-472.52" font-family="Helvetica,sans-Serif" font-style="italic" font-size="14.00">(plaintext:)</text>
<text text-anchor="start" x="187" y="-458.52" font-family="Helvetica,sans-Serif" font-size="14.00">server hello</text>
<text text-anchor="start" x="175" y="-444.52" font-family="Helvetica,sans-Serif" font-size="14.00">chosen ciphers</text>
<text text-anchor="start" x="171" y="-430.52" font-family="Helvetica,sans-Serif" font-size="14.00">random number</text>
<text text-anchor="start" x="149" y="-416.52" font-family="Helvetica,sans-Serif" font-size="14.00">server cert (key share)</text>
<text text-anchor="start" x="177.5" y="-402.52" font-family="Helvetica,sans-Serif" font-size="14.00">get client cert </text>
</g>
<!-- c2&#45;&gt;m2 -->
<g id="edge22" class="edge">
<title>c2&#45;&gt;m2</title>
<path fill="none" stroke="black" d="M49.51,-440.72C75.97,-440.72 102.43,-440.72 128.9,-440.72"/>
<polygon fill="black" stroke="black" points="49.37,-437.22 39.37,-440.72 49.37,-444.22 49.37,-437.22"/>
</g>
<!-- c4 -->
<g id="node5" class="node">
<title>c4</title>
<ellipse fill="black" stroke="black" cx="39" cy="-205.72" rx="0.36" ry="0.36"/>
</g>
<!-- c3&#45;&gt;c4 -->
<g id="edge4" class="edge">
<title>c3&#45;&gt;c4</title>
<path fill="none" stroke="black" d="M39,-311.64C39,-308.51 39,-209.88 39,-206.79"/>
</g>
<!-- m3 -->
<g id="node11" class="node">
<title>m3</title>
<path fill="none" stroke="black" d="M315,-358.72C315,-358.72 141,-358.72 141,-358.72 135,-358.72 129,-352.72 129,-346.72 129,-346.72 129,-278.72 129,-278.72 129,-272.72 135,-266.72 141,-266.72 141,-266.72 315,-266.72 315,-266.72 321,-266.72 327,-272.72 327,-278.72 327,-278.72 327,-346.72 327,-346.72 327,-352.72 321,-358.72 315,-358.72"/>
<text text-anchor="start" x="182.5" y="-344.52" font-family="Helvetica,sans-Serif" font-size="14.00"> </text>
<text text-anchor="start" x="187.5" y="-344.52" font-family="Helvetica,sans-Serif" font-style="italic" font-size="14.00">(encrypted:)</text>
<text text-anchor="start" x="152.5" y="-330.52" font-family="Helvetica,sans-Serif" font-size="14.00">client cert (key share)</text>
<text text-anchor="start" x="213" y="-316.52" font-family="Helvetica,sans-Serif" font-size="14.00">PMS</text>
<text text-anchor="start" x="140.5" y="-302.52" font-family="Helvetica,sans-Serif" font-size="14.00">hash of msgs (signature)</text>
<text text-anchor="start" x="177" y="-288.52" font-family="Helvetica,sans-Serif" font-size="14.00">change to AES</text>
<text text-anchor="start" x="197.5" y="-274.52" font-family="Helvetica,sans-Serif" font-size="14.00">finished </text>
</g>
<!-- c3&#45;&gt;m3 -->
<g id="edge24" class="edge">
<title>c3&#45;&gt;m3</title>
<path fill="none" stroke="black" d="M39.37,-312.72C69.21,-312.72 99.05,-312.72 128.9,-312.72"/>
</g>
<!-- c5 -->
<g id="node6" class="node">
<title>c5</title>
<ellipse fill="black" stroke="black" cx="39" cy="-126.72" rx="0.36" ry="0.36"/>
</g>
<!-- c4&#45;&gt;c5 -->
<g id="edge5" class="edge">
<title>c4&#45;&gt;c5</title>
<path fill="none" stroke="black" d="M39,-204.66C39,-202.37 39,-130.03 39,-127.77"/>
</g>
<!-- m4 -->
<g id="node12" class="node">
<title>m4</title>
<path fill="none" stroke="black" d="M315,-230.72C315,-230.72 141,-230.72 141,-230.72 135,-230.72 129,-224.72 129,-218.72 129,-218.72 129,-192.72 129,-192.72 129,-186.72 135,-180.72 141,-180.72 141,-180.72 315,-180.72 315,-180.72 321,-180.72 327,-186.72 327,-192.72 327,-192.72 327,-218.72 327,-218.72 327,-224.72 321,-230.72 315,-230.72"/>
<text text-anchor="start" x="182.5" y="-216.52" font-family="Helvetica,sans-Serif" font-size="14.00"> </text>
<text text-anchor="start" x="187.5" y="-216.52" font-family="Helvetica,sans-Serif" font-style="italic" font-size="14.00">(encrypted:)</text>
<text text-anchor="start" x="170.5" y="-202.52" font-family="Helvetica,sans-Serif" font-size="14.00">changing to AES</text>
<text text-anchor="start" x="197.5" y="-188.52" font-family="Helvetica,sans-Serif" font-size="14.00">finished </text>
</g>
<!-- c4&#45;&gt;m4 -->
<g id="edge26" class="edge">
<title>c4&#45;&gt;m4</title>
<path fill="none" stroke="black" d="M49.51,-205.72C75.97,-205.72 102.43,-205.72 128.9,-205.72"/>
<polygon fill="black" stroke="black" points="49.37,-202.22 39.37,-205.72 49.37,-209.22 49.37,-202.22"/>
</g>
<!-- c6 -->
<g id="node7" class="node">
<title>c6</title>
<ellipse fill="black" stroke="black" cx="39" cy="-54.72" rx="0.36" ry="0.36"/>
</g>
<!-- c5&#45;&gt;c6 -->
<g id="edge6" class="edge">
<title>c5&#45;&gt;c6</title>
<path fill="none" stroke="black" d="M39,-125.67C39,-123.58 39,-57.82 39,-55.77"/>
</g>
<!-- m5 -->
<g id="node13" class="node">
<title>m5</title>
<path fill="none" stroke="black" d="M315,-144.72C315,-144.72 141,-144.72 141,-144.72 135,-144.72 129,-138.72 129,-132.72 129,-132.72 129,-120.72 129,-120.72 129,-114.72 135,-108.72 141,-108.72 141,-108.72 315,-108.72 315,-108.72 321,-108.72 327,-114.72 327,-120.72 327,-120.72 327,-132.72 327,-132.72 327,-138.72 321,-144.72 315,-144.72"/>
<text text-anchor="start" x="185" y="-123.02" font-family="Helvetica,sans-Serif" font-size="14.00"> HTTPS GET </text>
</g>
<!-- c5&#45;&gt;m5 -->
<g id="edge28" class="edge">
<title>c5&#45;&gt;m5</title>
<path fill="none" stroke="black" d="M39.37,-126.72C69.21,-126.72 99.05,-126.72 128.9,-126.72"/>
</g>
<!-- c7 -->
<g id="node8" class="node">
<title>c7</title>
<ellipse fill="black" stroke="black" cx="39" cy="-0.36" rx="0.36" ry="0.36"/>
</g>
<!-- c6&#45;&gt;c7 -->
<g id="edge7" class="edge">
<title>c6&#45;&gt;c7</title>
<path fill="none" stroke="black" d="M39,-53.57C39,-50.56 39,-3.78 39,-0.86"/>
</g>
<!-- m6 -->
<g id="node14" class="node">
<title>m6</title>
<path fill="none" stroke="black" d="M315,-72.72C315,-72.72 141,-72.72 141,-72.72 135,-72.72 129,-66.72 129,-60.72 129,-60.72 129,-48.72 129,-48.72 129,-42.72 135,-36.72 141,-36.72 141,-36.72 315,-36.72 315,-36.72 321,-36.72 327,-42.72 327,-48.72 327,-48.72 327,-60.72 327,-60.72 327,-66.72 321,-72.72 315,-72.72"/>
<text text-anchor="start" x="173.5" y="-51.02" font-family="Helvetica,sans-Serif" font-size="14.00"> HTTPS answer </text>
</g>
<!-- c6&#45;&gt;m6 -->
<g id="edge30" class="edge">
<title>c6&#45;&gt;m6</title>
<path fill="none" stroke="black" d="M49.51,-54.72C75.97,-54.72 102.43,-54.72 128.9,-54.72"/>
<polygon fill="black" stroke="black" points="49.37,-51.22 39.37,-54.72 49.37,-58.22 49.37,-51.22"/>
</g>
<!-- m1&#45;&gt;m2 -->
<!-- s1 -->
<g id="node16" class="node">
<title>s1</title>
<ellipse fill="black" stroke="black" cx="417" cy="-554.72" rx="0.36" ry="0.36"/>
</g>
<!-- m1&#45;&gt;s1 -->
<g id="edge21" class="edge">
<title>m1&#45;&gt;s1</title>
<path fill="none" stroke="black" d="M327.3,-554.72C353.6,-554.72 379.91,-554.72 406.22,-554.72"/>
<polygon fill="black" stroke="black" points="406.3,-558.22 416.3,-554.72 406.3,-551.22 406.3,-558.22"/>
</g>
<!-- m2&#45;&gt;m3 -->
<!-- s2 -->
<g id="node17" class="node">
<title>s2</title>
<ellipse fill="black" stroke="black" cx="417" cy="-440.72" rx="0.36" ry="0.36"/>
</g>
<!-- m2&#45;&gt;s2 -->
<g id="edge23" class="edge">
<title>m2&#45;&gt;s2</title>
<path fill="none" stroke="black" d="M327.3,-440.72C356.97,-440.72 386.63,-440.72 416.3,-440.72"/>
</g>
<!-- m3&#45;&gt;m4 -->
<!-- s3 -->
<g id="node18" class="node">
<title>s3</title>
<ellipse fill="black" stroke="black" cx="417" cy="-312.72" rx="0.36" ry="0.36"/>
</g>
<!-- m3&#45;&gt;s3 -->
<g id="edge25" class="edge">
<title>m3&#45;&gt;s3</title>
<path fill="none" stroke="black" d="M327.3,-312.72C353.6,-312.72 379.91,-312.72 406.22,-312.72"/>
<polygon fill="black" stroke="black" points="406.3,-316.22 416.3,-312.72 406.3,-309.22 406.3,-316.22"/>
</g>
<!-- m4&#45;&gt;m5 -->
<!-- s4 -->
<g id="node19" class="node">
<title>s4</title>
<ellipse fill="black" stroke="black" cx="417" cy="-205.72" rx="0.36" ry="0.36"/>
</g>
<!-- m4&#45;&gt;s4 -->
<g id="edge27" class="edge">
<title>m4&#45;&gt;s4</title>
<path fill="none" stroke="black" d="M327.3,-205.72C356.97,-205.72 386.63,-205.72 416.3,-205.72"/>
</g>
<!-- m5&#45;&gt;m6 -->
<!-- s5 -->
<g id="node20" class="node">
<title>s5</title>
<ellipse fill="black" stroke="black" cx="417" cy="-126.72" rx="0.36" ry="0.36"/>
</g>
<!-- m5&#45;&gt;s5 -->
<g id="edge29" class="edge">
<title>m5&#45;&gt;s5</title>
<path fill="none" stroke="black" d="M327.3,-126.72C353.6,-126.72 379.91,-126.72 406.22,-126.72"/>
<polygon fill="black" stroke="black" points="406.3,-130.22 416.3,-126.72 406.3,-123.22 406.3,-130.22"/>
</g>
<!-- s6 -->
<g id="node21" class="node">
<title>s6</title>
<ellipse fill="black" stroke="black" cx="417" cy="-54.72" rx="0.36" ry="0.36"/>
</g>
<!-- m6&#45;&gt;s6 -->
<g id="edge31" class="edge">
<title>m6&#45;&gt;s6</title>
<path fill="none" stroke="black" d="M327.3,-54.72C356.97,-54.72 386.63,-54.72 416.3,-54.72"/>
</g>
<!-- server -->
<g id="node15" class="node">
<title>server</title>
<image xlink:href="/home/aaron/Dropbox/git/nws/slides/images/graphs/terminal.svg" width="78px" height="56px" preserveAspectRatio="xMinYMin meet" x="378" y="-678.72"/>
<text text-anchor="middle" x="417" y="-647.02" font-family="Helvetica,sans-Serif" font-size="14.00"> server</text>
</g>
<!-- server&#45;&gt;s1 -->
<g id="edge13" class="edge">
<title>server&#45;&gt;s1</title>
<path fill="none" stroke="black" d="M417,-622.53C417,-595.64 417,-558.15 417,-555.83"/>
</g>
<!-- s1&#45;&gt;s2 -->
<g id="edge14" class="edge">
<title>s1&#45;&gt;s2</title>
<path fill="none" stroke="black" d="M417,-553.64C417,-550.3 417,-445.09 417,-441.8"/>
</g>
<!-- s2&#45;&gt;s3 -->
<g id="edge15" class="edge">
<title>s2&#45;&gt;s3</title>
<path fill="none" stroke="black" d="M417,-439.63C417,-435.87 417,-317.51 417,-313.81"/>
</g>
<!-- s3&#45;&gt;s4 -->
<g id="edge16" class="edge">
<title>s3&#45;&gt;s4</title>
<path fill="none" stroke="black" d="M417,-311.64C417,-308.51 417,-209.88 417,-206.79"/>
</g>
<!-- s4&#45;&gt;s5 -->
<g id="edge17" class="edge">
<title>s4&#45;&gt;s5</title>
<path fill="none" stroke="black" d="M417,-204.66C417,-202.37 417,-130.03 417,-127.77"/>
</g>
<!-- s5&#45;&gt;s6 -->
<g id="edge18" class="edge">
<title>s5&#45;&gt;s6</title>
<path fill="none" stroke="black" d="M417,-125.67C417,-123.58 417,-57.82 417,-55.77"/>
</g>
<!-- s7 -->
<g id="node22" class="node">
<title>s7</title>
<ellipse fill="black" stroke="black" cx="417" cy="-0.36" rx="0.36" ry="0.36"/>
</g>
<!-- s6&#45;&gt;s7 -->
<g id="edge19" class="edge">
<title>s6&#45;&gt;s7</title>
<path fill="none" stroke="black" d="M417,-53.57C417,-50.56 417,-3.78 417,-0.86"/>
</g>
</g>
</svg>
