<?xml version="1.0" encoding="UTF-8" standalone="no"?>
<!DOCTYPE svg PUBLIC "-//W3C//DTD SVG 1.1//EN"
 "http://www.w3.org/Graphics/SVG/1.1/DTD/svg11.dtd">
<!-- Generated by graphviz version 10.0.1 (20240210.2158)
 -->
<!-- Title: tls_1_3 Pages: 1 -->
<svg width="428pt" height="493pt"
 viewBox="0.00 0.00 428.00 492.72" xmlns="http://www.w3.org/2000/svg" xmlns:xlink="http://www.w3.org/1999/xlink">
<g id="page0,1_graph0" class="graph" transform="scale(1 1) rotate(0) translate(4 488.72)">
<title>tls_1_3</title>
<polygon fill="white" stroke="none" points="-4,4 -4,-488.72 424,-488.72 424,4 -4,4"/>
<text text-anchor="middle" x="210" y="-467.42" font-family="Helvetica,sans-Serif" font-size="14.00">TLS 1.3</text>
<!-- client -->
<g id="node1" class="node">
<title>client</title>
<image xlink:href="/Users/aaron/Dropbox/git/nws/slides/images/graphs/terminal.svg" width="78px" height="56px" preserveAspectRatio="xMinYMin meet" x="0" y="-461.72"/>
<text text-anchor="middle" x="39" y="-427.92" font-family="Helvetica,sans-Serif" font-size="14.00"> &#160;client</text>
</g>
<!-- c1 -->
<g id="node2" class="node">
<title>c1</title>
<ellipse fill="black" stroke="black" cx="39" cy="-343.22" rx="0.36" ry="0.36"/>
</g>
<!-- client&#45;&gt;c1 -->
<g id="edge1" class="edge">
<title>client&#45;&gt;c1</title>
<path fill="none" stroke="black" d="M39,-406.17C39,-380.91 39,-346.45 39,-344.32"/>
</g>
<!-- c2 -->
<g id="node3" class="node">
<title>c2</title>
<ellipse fill="black" stroke="black" cx="39" cy="-231.72" rx="0.36" ry="0.36"/>
</g>
<!-- c1&#45;&gt;c2 -->
<g id="edge2" class="edge">
<title>c1&#45;&gt;c2</title>
<path fill="none" stroke="black" d="M39,-342.14C39,-338.88 39,-236.01 39,-232.8"/>
</g>
<!-- m1 -->
<g id="node7" class="node">
<title>m1</title>
<path fill="none" stroke="black" d="M279,-369.72C279,-369.72 141,-369.72 141,-369.72 135,-369.72 129,-363.72 129,-357.72 129,-357.72 129,-328.72 129,-328.72 129,-322.72 135,-316.72 141,-316.72 141,-316.72 279,-316.72 279,-316.72 285,-316.72 291,-322.72 291,-328.72 291,-328.72 291,-357.72 291,-357.72 291,-363.72 285,-369.72 279,-369.72"/>
<text text-anchor="start" x="176.25" y="-352.42" font-family="Helvetica,sans-Serif" font-size="14.00"> client hello</text>
<text text-anchor="start" x="156.38" y="-337.42" font-family="Helvetica,sans-Serif" font-size="14.00">supported ciphers</text>
<text text-anchor="start" x="178.88" y="-322.42" font-family="Helvetica,sans-Serif" font-size="14.00">key share </text>
</g>
<!-- c1&#45;&gt;m1 -->
<g id="edge14" class="edge">
<title>c1&#45;&gt;m1</title>
<path fill="none" stroke="black" d="M39.67,-343.22C69.39,-343.22 99.11,-343.22 128.83,-343.22"/>
</g>
<!-- c3 -->
<g id="node4" class="node">
<title>c3</title>
<ellipse fill="black" stroke="black" cx="39" cy="-127.72" rx="0.36" ry="0.36"/>
</g>
<!-- c2&#45;&gt;c3 -->
<g id="edge3" class="edge">
<title>c2&#45;&gt;c3</title>
<path fill="none" stroke="black" d="M39,-230.65C39,-227.61 39,-131.79 39,-128.79"/>
</g>
<!-- m2 -->
<g id="node8" class="node">
<title>m2</title>
<path fill="none" stroke="black" d="M279,-280.72C279,-280.72 141,-280.72 141,-280.72 135,-280.72 129,-274.72 129,-268.72 129,-268.72 129,-194.72 129,-194.72 129,-188.72 135,-182.72 141,-182.72 141,-182.72 279,-182.72 279,-182.72 285,-182.72 291,-188.72 291,-194.72 291,-194.72 291,-268.72 291,-268.72 291,-274.72 285,-280.72 279,-280.72"/>
<text text-anchor="start" x="173.25" y="-263.42" font-family="Helvetica,sans-Serif" font-size="14.00"> server hello</text>
<text text-anchor="start" x="168" y="-248.42" font-family="Helvetica,sans-Serif" font-size="14.00">chosen cipher</text>
<text text-anchor="start" x="180.75" y="-233.42" font-family="Helvetica,sans-Serif" font-size="14.00">key share</text>
<text text-anchor="start" x="181.12" y="-218.42" font-family="Helvetica,sans-Serif" font-size="14.00">certificate</text>
<text text-anchor="start" x="182.25" y="-203.42" font-family="Helvetica,sans-Serif" font-size="14.00">signature</text>
<text text-anchor="start" x="184.88" y="-188.42" font-family="Helvetica,sans-Serif" font-size="14.00">finished </text>
</g>
<!-- c2&#45;&gt;m2 -->
<g id="edge16" class="edge">
<title>c2&#45;&gt;m2</title>
<path fill="none" stroke="black" d="M51.16,-231.72C77.05,-231.72 102.94,-231.72 128.83,-231.72"/>
<polygon fill="black" stroke="black" points="51.18,-228.22 41.18,-231.72 51.18,-235.22 51.18,-228.22"/>
</g>
<!-- c4 -->
<g id="node5" class="node">
<title>c4</title>
<ellipse fill="black" stroke="black" cx="39" cy="-54.72" rx="0.36" ry="0.36"/>
</g>
<!-- c3&#45;&gt;c4 -->
<g id="edge4" class="edge">
<title>c3&#45;&gt;c4</title>
<path fill="none" stroke="black" d="M39,-126.67C39,-124.55 39,-57.85 39,-55.77"/>
</g>
<!-- m3 -->
<g id="node9" class="node">
<title>m3</title>
<path fill="none" stroke="black" d="M279,-146.72C279,-146.72 141,-146.72 141,-146.72 135,-146.72 129,-140.72 129,-134.72 129,-134.72 129,-120.72 129,-120.72 129,-114.72 135,-108.72 141,-108.72 141,-108.72 279,-108.72 279,-108.72 285,-108.72 291,-114.72 291,-120.72 291,-120.72 291,-134.72 291,-134.72 291,-140.72 285,-146.72 279,-146.72"/>
<text text-anchor="start" x="184.88" y="-129.42" font-family="Helvetica,sans-Serif" font-size="14.00"> finished</text>
<text text-anchor="start" x="169.88" y="-114.42" font-family="Helvetica,sans-Serif" font-size="14.00">HTTPS GET </text>
</g>
<!-- c3&#45;&gt;m3 -->
<g id="edge18" class="edge">
<title>c3&#45;&gt;m3</title>
<path fill="none" stroke="black" d="M39.67,-127.72C69.39,-127.72 99.11,-127.72 128.83,-127.72"/>
</g>
<!-- c5 -->
<g id="node6" class="node">
<title>c5</title>
<ellipse fill="black" stroke="black" cx="39" cy="-0.36" rx="0.36" ry="0.36"/>
</g>
<!-- c4&#45;&gt;c5 -->
<g id="edge5" class="edge">
<title>c4&#45;&gt;c5</title>
<path fill="none" stroke="black" d="M39,-53.57C39,-50.56 39,-3.78 39,-0.86"/>
</g>
<!-- m4 -->
<g id="node10" class="node">
<title>m4</title>
<path fill="none" stroke="black" d="M279,-72.72C279,-72.72 141,-72.72 141,-72.72 135,-72.72 129,-66.72 129,-60.72 129,-60.72 129,-48.72 129,-48.72 129,-42.72 135,-36.72 141,-36.72 141,-36.72 279,-36.72 279,-36.72 285,-36.72 291,-42.72 291,-48.72 291,-48.72 291,-60.72 291,-60.72 291,-66.72 285,-72.72 279,-72.72"/>
<text text-anchor="start" x="160.5" y="-48.92" font-family="Helvetica,sans-Serif" font-size="14.00"> HTTPS answer </text>
</g>
<!-- c4&#45;&gt;m4 -->
<g id="edge20" class="edge">
<title>c4&#45;&gt;m4</title>
<path fill="none" stroke="black" d="M51.16,-54.72C77.05,-54.72 102.94,-54.72 128.83,-54.72"/>
<polygon fill="black" stroke="black" points="51.18,-51.22 41.18,-54.72 51.18,-58.22 51.18,-51.22"/>
</g>
<!-- m1&#45;&gt;m2 -->
<!-- s1 -->
<g id="node12" class="node">
<title>s1</title>
<ellipse fill="black" stroke="black" cx="381" cy="-343.22" rx="0.36" ry="0.36"/>
</g>
<!-- m1&#45;&gt;s1 -->
<g id="edge15" class="edge">
<title>m1&#45;&gt;s1</title>
<path fill="none" stroke="black" d="M291.49,-343.22C317.28,-343.22 343.07,-343.22 368.85,-343.22"/>
<polygon fill="black" stroke="black" points="368.79,-346.72 378.79,-343.22 368.79,-339.72 368.79,-346.72"/>
</g>
<!-- m2&#45;&gt;m3 -->
<!-- s2 -->
<g id="node13" class="node">
<title>s2</title>
<ellipse fill="black" stroke="black" cx="381" cy="-231.72" rx="0.36" ry="0.36"/>
</g>
<!-- m2&#45;&gt;s2 -->
<g id="edge17" class="edge">
<title>m2&#45;&gt;s2</title>
<path fill="none" stroke="black" d="M291.49,-231.72C321.1,-231.72 350.7,-231.72 380.3,-231.72"/>
</g>
<!-- m3&#45;&gt;m4 -->
<!-- s3 -->
<g id="node14" class="node">
<title>s3</title>
<ellipse fill="black" stroke="black" cx="381" cy="-127.72" rx="0.36" ry="0.36"/>
</g>
<!-- m3&#45;&gt;s3 -->
<g id="edge19" class="edge">
<title>m3&#45;&gt;s3</title>
<path fill="none" stroke="black" d="M291.49,-127.72C317.28,-127.72 343.07,-127.72 368.85,-127.72"/>
<polygon fill="black" stroke="black" points="368.79,-131.22 378.79,-127.72 368.79,-124.22 368.79,-131.22"/>
</g>
<!-- s4 -->
<g id="node15" class="node">
<title>s4</title>
<ellipse fill="black" stroke="black" cx="381" cy="-54.72" rx="0.36" ry="0.36"/>
</g>
<!-- m4&#45;&gt;s4 -->
<g id="edge21" class="edge">
<title>m4&#45;&gt;s4</title>
<path fill="none" stroke="black" d="M291.49,-54.72C321.1,-54.72 350.7,-54.72 380.3,-54.72"/>
</g>
<!-- server -->
<g id="node11" class="node">
<title>server</title>
<image xlink:href="/Users/aaron/Dropbox/git/nws/slides/images/graphs/terminal.svg" width="78px" height="56px" preserveAspectRatio="xMinYMin meet" x="342" y="-461.72"/>
<text text-anchor="middle" x="381" y="-427.92" font-family="Helvetica,sans-Serif" font-size="14.00"> server</text>
</g>
<!-- server&#45;&gt;s1 -->
<g id="edge9" class="edge">
<title>server&#45;&gt;s1</title>
<path fill="none" stroke="black" d="M381,-406.17C381,-380.91 381,-346.45 381,-344.32"/>
</g>
<!-- s1&#45;&gt;s2 -->
<g id="edge10" class="edge">
<title>s1&#45;&gt;s2</title>
<path fill="none" stroke="black" d="M381,-342.14C381,-338.88 381,-236.01 381,-232.8"/>
</g>
<!-- s2&#45;&gt;s3 -->
<g id="edge11" class="edge">
<title>s2&#45;&gt;s3</title>
<path fill="none" stroke="black" d="M381,-230.65C381,-227.61 381,-131.79 381,-128.79"/>
</g>
<!-- s3&#45;&gt;s4 -->
<g id="edge12" class="edge">
<title>s3&#45;&gt;s4</title>
<path fill="none" stroke="black" d="M381,-126.67C381,-124.55 381,-57.85 381,-55.77"/>
</g>
<!-- s5 -->
<g id="node16" class="node">
<title>s5</title>
<ellipse fill="black" stroke="black" cx="381" cy="-0.36" rx="0.36" ry="0.36"/>
</g>
<!-- s4&#45;&gt;s5 -->
<g id="edge13" class="edge">
<title>s4&#45;&gt;s5</title>
<path fill="none" stroke="black" d="M381,-53.57C381,-50.56 381,-3.78 381,-0.86"/>
</g>
</g>
</svg>
