<?xml version="1.0" encoding="UTF-8" standalone="no"?>
<!DOCTYPE svg PUBLIC "-//W3C//DTD SVG 1.1//EN"
 "http://www.w3.org/Graphics/SVG/1.1/DTD/svg11.dtd">
<!-- Generated by graphviz version 10.0.1 (20240210.2158)
 -->
<!-- Title: tls_1_2 Pages: 1 -->
<svg width="428pt" height="710pt"
 viewBox="0.00 0.00 428.00 709.72" xmlns="http://www.w3.org/2000/svg" xmlns:xlink="http://www.w3.org/1999/xlink">
<g id="graph0" class="graph" transform="scale(1 1) rotate(0) translate(4 705.72)">
<title>tls_1_2</title>
<polygon fill="white" stroke="none" points="-4,4 -4,-705.72 424,-705.72 424,4 -4,4"/>
<text text-anchor="middle" x="210" y="-684.42" font-family="Helvetica,sans-Serif" font-size="14.00">TLS 1.2</text>
<!-- client -->
<g id="node1" class="node">
<title>client</title>
<image xlink:href="/Users/aaron/Dropbox/git/nws/slides/images/graphs/terminal.svg" width="78px" height="56px" preserveAspectRatio="xMinYMin meet" x="0" y="-678.72"/>
<text text-anchor="middle" x="39" y="-644.92" font-family="Helvetica,sans-Serif" font-size="14.00"> &#160;client</text>
</g>
<!-- c1 -->
<g id="node2" class="node">
<title>c1</title>
<ellipse fill="black" stroke="black" cx="39" cy="-554.72" rx="0.36" ry="0.36"/>
</g>
<!-- client&#45;&gt;c1 -->
<g id="edge1" class="edge">
<title>client&#45;&gt;c1</title>
<path fill="none" stroke="black" d="M39,-622.78C39,-595.87 39,-558.16 39,-555.83"/>
</g>
<!-- c2 -->
<g id="node3" class="node">
<title>c2</title>
<ellipse fill="black" stroke="black" cx="39" cy="-440.72" rx="0.36" ry="0.36"/>
</g>
<!-- c1&#45;&gt;c2 -->
<g id="edge2" class="edge">
<title>c1&#45;&gt;c2</title>
<path fill="none" stroke="black" d="M39,-553.64C39,-550.3 39,-445.09 39,-441.8"/>
</g>
<!-- m1 -->
<g id="node9" class="node">
<title>m1</title>
<path fill="none" stroke="black" d="M279,-586.72C279,-586.72 141,-586.72 141,-586.72 135,-586.72 129,-580.72 129,-574.72 129,-574.72 129,-534.72 129,-534.72 129,-528.72 135,-522.72 141,-522.72 141,-522.72 279,-522.72 279,-522.72 285,-522.72 291,-528.72 291,-534.72 291,-534.72 291,-574.72 291,-574.72 291,-580.72 285,-586.72 279,-586.72"/>
<text text-anchor="start" x="176.62" y="-570.42" font-family="Helvetica,sans-Serif" font-size="14.00"> </text>
<text text-anchor="start" x="180.38" y="-570.42" font-family="Helvetica,sans-Serif" font-style="italic" font-size="14.00">(plaintext:)</text>
<text text-anchor="start" x="178.12" y="-556.42" font-family="Helvetica,sans-Serif" font-size="14.00">client hello</text>
<text text-anchor="start" x="161.62" y="-542.42" font-family="Helvetica,sans-Serif" font-size="14.00">random number</text>
<text text-anchor="start" x="154.5" y="-528.42" font-family="Helvetica,sans-Serif" font-size="14.00">supported ciphers </text>
</g>
<!-- c1&#45;&gt;m1 -->
<g id="edge20" class="edge">
<title>c1&#45;&gt;m1</title>
<path fill="none" stroke="black" d="M39.67,-554.72C69.39,-554.72 99.11,-554.72 128.83,-554.72"/>
</g>
<!-- c3 -->
<g id="node4" class="node">
<title>c3</title>
<ellipse fill="black" stroke="black" cx="38" cy="-312.72" rx="0.36" ry="0.36"/>
</g>
<!-- c2&#45;&gt;c3 -->
<g id="edge3" class="edge">
<title>c2&#45;&gt;c3</title>
<path fill="none" stroke="black" d="M39,-439.63C38.97,-435.87 38.03,-317.51 38,-313.81"/>
</g>
<!-- m2 -->
<g id="node10" class="node">
<title>m2</title>
<path fill="none" stroke="black" d="M279,-486.72C279,-486.72 141,-486.72 141,-486.72 135,-486.72 129,-480.72 129,-474.72 129,-474.72 129,-406.72 129,-406.72 129,-400.72 135,-394.72 141,-394.72 141,-394.72 279,-394.72 279,-394.72 285,-394.72 291,-400.72 291,-406.72 291,-406.72 291,-474.72 291,-474.72 291,-480.72 285,-486.72 279,-486.72"/>
<text text-anchor="start" x="172.12" y="-470.42" font-family="Helvetica,sans-Serif" font-size="14.00"> </text>
<text text-anchor="start" x="175.88" y="-470.42" font-family="Helvetica,sans-Serif" font-style="italic" font-size="14.00">(encrypted:)</text>
<text text-anchor="start" x="175.12" y="-456.42" font-family="Helvetica,sans-Serif" font-size="14.00">server hello</text>
<text text-anchor="start" x="164.62" y="-442.42" font-family="Helvetica,sans-Serif" font-size="14.00">chosen ciphers</text>
<text text-anchor="start" x="161.62" y="-428.42" font-family="Helvetica,sans-Serif" font-size="14.00">random number</text>
<text text-anchor="start" x="142.5" y="-414.42" font-family="Helvetica,sans-Serif" font-size="14.00">server cert (key share)</text>
<text text-anchor="start" x="168" y="-400.42" font-family="Helvetica,sans-Serif" font-size="14.00">get client cert </text>
</g>
<!-- c2&#45;&gt;m2 -->
<g id="edge22" class="edge">
<title>c2&#45;&gt;m2</title>
<path fill="none" stroke="black" d="M51.16,-440.72C77.05,-440.72 102.94,-440.72 128.83,-440.72"/>
<polygon fill="black" stroke="black" points="51.18,-437.22 41.18,-440.72 51.18,-444.22 51.18,-437.22"/>
</g>
<!-- c4 -->
<g id="node5" class="node">
<title>c4</title>
<ellipse fill="black" stroke="black" cx="39" cy="-205.72" rx="0.36" ry="0.36"/>
</g>
<!-- c3&#45;&gt;c4 -->
<g id="edge4" class="edge">
<title>c3&#45;&gt;c4</title>
<path fill="none" stroke="black" d="M38,-311.64C38.03,-308.51 38.97,-209.88 39,-206.79"/>
</g>
<!-- m3 -->
<g id="node11" class="node">
<title>m3</title>
<path fill="none" stroke="black" d="M280.62,-358.72C280.62,-358.72 139.38,-358.72 139.38,-358.72 133.38,-358.72 127.38,-352.72 127.38,-346.72 127.38,-346.72 127.38,-278.72 127.38,-278.72 127.38,-272.72 133.38,-266.72 139.38,-266.72 139.38,-266.72 280.62,-266.72 280.62,-266.72 286.62,-266.72 292.62,-272.72 292.62,-278.72 292.62,-278.72 292.62,-346.72 292.62,-346.72 292.62,-352.72 286.62,-358.72 280.62,-358.72"/>
<text text-anchor="start" x="172.12" y="-342.42" font-family="Helvetica,sans-Serif" font-size="14.00"> </text>
<text text-anchor="start" x="175.88" y="-342.42" font-family="Helvetica,sans-Serif" font-style="italic" font-size="14.00">(encrypted:)</text>
<text text-anchor="start" x="145.5" y="-328.42" font-family="Helvetica,sans-Serif" font-size="14.00">client cert (key share)</text>
<text text-anchor="start" x="195" y="-314.42" font-family="Helvetica,sans-Serif" font-size="14.00">PMS</text>
<text text-anchor="start" x="135.38" y="-300.42" font-family="Helvetica,sans-Serif" font-size="14.00">hash of msgs (signature)</text>
<text text-anchor="start" x="165" y="-286.42" font-family="Helvetica,sans-Serif" font-size="14.00">change to AES</text>
<text text-anchor="start" x="184.88" y="-272.42" font-family="Helvetica,sans-Serif" font-size="14.00">finished </text>
</g>
<!-- c3&#45;&gt;m3 -->
<g id="edge24" class="edge">
<title>c3&#45;&gt;m3</title>
<path fill="none" stroke="black" d="M38.67,-312.72C68.12,-312.72 97.57,-312.72 127.01,-312.72"/>
</g>
<!-- c5 -->
<g id="node6" class="node">
<title>c5</title>
<ellipse fill="black" stroke="black" cx="39" cy="-126.72" rx="0.36" ry="0.36"/>
</g>
<!-- c4&#45;&gt;c5 -->
<g id="edge5" class="edge">
<title>c4&#45;&gt;c5</title>
<path fill="none" stroke="black" d="M39,-204.66C39,-202.37 39,-130.03 39,-127.77"/>
</g>
<!-- m4 -->
<g id="node12" class="node">
<title>m4</title>
<path fill="none" stroke="black" d="M279,-230.72C279,-230.72 141,-230.72 141,-230.72 135,-230.72 129,-224.72 129,-218.72 129,-218.72 129,-192.72 129,-192.72 129,-186.72 135,-180.72 141,-180.72 141,-180.72 279,-180.72 279,-180.72 285,-180.72 291,-186.72 291,-192.72 291,-192.72 291,-218.72 291,-218.72 291,-224.72 285,-230.72 279,-230.72"/>
<text text-anchor="start" x="172.12" y="-214.42" font-family="Helvetica,sans-Serif" font-size="14.00"> </text>
<text text-anchor="start" x="175.88" y="-214.42" font-family="Helvetica,sans-Serif" font-style="italic" font-size="14.00">(encrypted:)</text>
<text text-anchor="start" x="159.75" y="-200.42" font-family="Helvetica,sans-Serif" font-size="14.00">changing to AES</text>
<text text-anchor="start" x="184.88" y="-186.42" font-family="Helvetica,sans-Serif" font-size="14.00">finished </text>
</g>
<!-- c4&#45;&gt;m4 -->
<g id="edge26" class="edge">
<title>c4&#45;&gt;m4</title>
<path fill="none" stroke="black" d="M51.16,-205.72C77.05,-205.72 102.94,-205.72 128.83,-205.72"/>
<polygon fill="black" stroke="black" points="51.18,-202.22 41.18,-205.72 51.18,-209.22 51.18,-202.22"/>
</g>
<!-- c6 -->
<g id="node7" class="node">
<title>c6</title>
<ellipse fill="black" stroke="black" cx="39" cy="-54.72" rx="0.36" ry="0.36"/>
</g>
<!-- c5&#45;&gt;c6 -->
<g id="edge6" class="edge">
<title>c5&#45;&gt;c6</title>
<path fill="none" stroke="black" d="M39,-125.67C39,-123.58 39,-57.82 39,-55.77"/>
</g>
<!-- m5 -->
<g id="node13" class="node">
<title>m5</title>
<path fill="none" stroke="black" d="M279,-144.72C279,-144.72 141,-144.72 141,-144.72 135,-144.72 129,-138.72 129,-132.72 129,-132.72 129,-120.72 129,-120.72 129,-114.72 135,-108.72 141,-108.72 141,-108.72 279,-108.72 279,-108.72 285,-108.72 291,-114.72 291,-120.72 291,-120.72 291,-132.72 291,-132.72 291,-138.72 285,-144.72 279,-144.72"/>
<text text-anchor="start" x="168" y="-120.92" font-family="Helvetica,sans-Serif" font-size="14.00"> HTTPS GET </text>
</g>
<!-- c5&#45;&gt;m5 -->
<g id="edge28" class="edge">
<title>c5&#45;&gt;m5</title>
<path fill="none" stroke="black" d="M39.67,-126.72C69.39,-126.72 99.11,-126.72 128.83,-126.72"/>
</g>
<!-- c7 -->
<g id="node8" class="node">
<title>c7</title>
<ellipse fill="black" stroke="black" cx="39" cy="-0.36" rx="0.36" ry="0.36"/>
</g>
<!-- c6&#45;&gt;c7 -->
<g id="edge7" class="edge">
<title>c6&#45;&gt;c7</title>
<path fill="none" stroke="black" d="M39,-53.57C39,-50.56 39,-3.78 39,-0.86"/>
</g>
<!-- m6 -->
<g id="node14" class="node">
<title>m6</title>
<path fill="none" stroke="black" d="M279,-72.72C279,-72.72 141,-72.72 141,-72.72 135,-72.72 129,-66.72 129,-60.72 129,-60.72 129,-48.72 129,-48.72 129,-42.72 135,-36.72 141,-36.72 141,-36.72 279,-36.72 279,-36.72 285,-36.72 291,-42.72 291,-48.72 291,-48.72 291,-60.72 291,-60.72 291,-66.72 285,-72.72 279,-72.72"/>
<text text-anchor="start" x="160.5" y="-48.92" font-family="Helvetica,sans-Serif" font-size="14.00"> HTTPS answer </text>
</g>
<!-- c6&#45;&gt;m6 -->
<g id="edge30" class="edge">
<title>c6&#45;&gt;m6</title>
<path fill="none" stroke="black" d="M51.16,-54.72C77.05,-54.72 102.94,-54.72 128.83,-54.72"/>
<polygon fill="black" stroke="black" points="51.18,-51.22 41.18,-54.72 51.18,-58.22 51.18,-51.22"/>
</g>
<!-- m1&#45;&gt;m2 -->
<!-- s1 -->
<g id="node16" class="node">
<title>s1</title>
<ellipse fill="black" stroke="black" cx="381" cy="-554.72" rx="0.36" ry="0.36"/>
</g>
<!-- m1&#45;&gt;s1 -->
<g id="edge21" class="edge">
<title>m1&#45;&gt;s1</title>
<path fill="none" stroke="black" d="M291.49,-554.72C317.28,-554.72 343.07,-554.72 368.85,-554.72"/>
<polygon fill="black" stroke="black" points="368.79,-558.22 378.79,-554.72 368.79,-551.22 368.79,-558.22"/>
</g>
<!-- m2&#45;&gt;m3 -->
<!-- s2 -->
<g id="node17" class="node">
<title>s2</title>
<ellipse fill="black" stroke="black" cx="381" cy="-440.72" rx="0.36" ry="0.36"/>
</g>
<!-- m2&#45;&gt;s2 -->
<g id="edge23" class="edge">
<title>m2&#45;&gt;s2</title>
<path fill="none" stroke="black" d="M291.49,-440.72C321.1,-440.72 350.7,-440.72 380.3,-440.72"/>
</g>
<!-- m3&#45;&gt;m4 -->
<!-- s3 -->
<g id="node18" class="node">
<title>s3</title>
<ellipse fill="black" stroke="black" cx="382" cy="-312.72" rx="0.36" ry="0.36"/>
</g>
<!-- m3&#45;&gt;s3 -->
<g id="edge25" class="edge">
<title>m3&#45;&gt;s3</title>
<path fill="none" stroke="black" d="M292.98,-312.72C318.62,-312.72 344.27,-312.72 369.92,-312.72"/>
<polygon fill="black" stroke="black" points="369.79,-316.22 379.79,-312.72 369.79,-309.22 369.79,-316.22"/>
</g>
<!-- m4&#45;&gt;m5 -->
<!-- s4 -->
<g id="node19" class="node">
<title>s4</title>
<ellipse fill="black" stroke="black" cx="381" cy="-205.72" rx="0.36" ry="0.36"/>
</g>
<!-- m4&#45;&gt;s4 -->
<g id="edge27" class="edge">
<title>m4&#45;&gt;s4</title>
<path fill="none" stroke="black" d="M291.49,-205.72C321.1,-205.72 350.7,-205.72 380.3,-205.72"/>
</g>
<!-- m5&#45;&gt;m6 -->
<!-- s5 -->
<g id="node20" class="node">
<title>s5</title>
<ellipse fill="black" stroke="black" cx="381" cy="-126.72" rx="0.36" ry="0.36"/>
</g>
<!-- m5&#45;&gt;s5 -->
<g id="edge29" class="edge">
<title>m5&#45;&gt;s5</title>
<path fill="none" stroke="black" d="M291.49,-126.72C317.28,-126.72 343.07,-126.72 368.85,-126.72"/>
<polygon fill="black" stroke="black" points="368.79,-130.22 378.79,-126.72 368.79,-123.22 368.79,-130.22"/>
</g>
<!-- s6 -->
<g id="node21" class="node">
<title>s6</title>
<ellipse fill="black" stroke="black" cx="381" cy="-54.72" rx="0.36" ry="0.36"/>
</g>
<!-- m6&#45;&gt;s6 -->
<g id="edge31" class="edge">
<title>m6&#45;&gt;s6</title>
<path fill="none" stroke="black" d="M291.49,-54.72C321.1,-54.72 350.7,-54.72 380.3,-54.72"/>
</g>
<!-- server -->
<g id="node15" class="node">
<title>server</title>
<image xlink:href="/Users/aaron/Dropbox/git/nws/slides/images/graphs/terminal.svg" width="78px" height="56px" preserveAspectRatio="xMinYMin meet" x="342" y="-678.72"/>
<text text-anchor="middle" x="381" y="-644.92" font-family="Helvetica,sans-Serif" font-size="14.00"> server</text>
</g>
<!-- server&#45;&gt;s1 -->
<g id="edge13" class="edge">
<title>server&#45;&gt;s1</title>
<path fill="none" stroke="black" d="M381,-622.78C381,-595.87 381,-558.16 381,-555.83"/>
</g>
<!-- s1&#45;&gt;s2 -->
<g id="edge14" class="edge">
<title>s1&#45;&gt;s2</title>
<path fill="none" stroke="black" d="M381,-553.64C381,-550.3 381,-445.09 381,-441.8"/>
</g>
<!-- s2&#45;&gt;s3 -->
<g id="edge15" class="edge">
<title>s2&#45;&gt;s3</title>
<path fill="none" stroke="black" d="M381,-439.63C381.03,-435.87 381.97,-317.51 382,-313.81"/>
</g>
<!-- s3&#45;&gt;s4 -->
<g id="edge16" class="edge">
<title>s3&#45;&gt;s4</title>
<path fill="none" stroke="black" d="M382,-311.64C381.97,-308.51 381.03,-209.88 381,-206.79"/>
</g>
<!-- s4&#45;&gt;s5 -->
<g id="edge17" class="edge">
<title>s4&#45;&gt;s5</title>
<path fill="none" stroke="black" d="M381,-204.66C381,-202.37 381,-130.03 381,-127.77"/>
</g>
<!-- s5&#45;&gt;s6 -->
<g id="edge18" class="edge">
<title>s5&#45;&gt;s6</title>
<path fill="none" stroke="black" d="M381,-125.67C381,-123.58 381,-57.82 381,-55.77"/>
</g>
<!-- s7 -->
<g id="node22" class="node">
<title>s7</title>
<ellipse fill="black" stroke="black" cx="381" cy="-0.36" rx="0.36" ry="0.36"/>
</g>
<!-- s6&#45;&gt;s7 -->
<g id="edge19" class="edge">
<title>s6&#45;&gt;s7</title>
<path fill="none" stroke="black" d="M381,-53.57C381,-50.56 381,-3.78 381,-0.86"/>
</g>
</g>
</svg>
