<?xml version="1.0" encoding="UTF-8"?>
<!-- Do not edit this file with editors other than draw.io -->
<!DOCTYPE svg PUBLIC "-//W3C//DTD SVG 1.1//EN" "http://www.w3.org/Graphics/SVG/1.1/DTD/svg11.dtd">
<svg xmlns="http://www.w3.org/2000/svg" xmlns:xlink="http://www.w3.org/1999/xlink" version="1.1" width="107px" height="107px" viewBox="-0.5 -0.5 107 107" content="&lt;mxfile host=&quot;app.diagrams.net&quot; modified=&quot;2024-02-19T03:28:45.792Z&quot; agent=&quot;Mozilla/5.0 (Macintosh; Intel Mac OS X 10_15_7) AppleWebKit/605.1.15 (KHTML, like Gecko) Version/17.2.1 Safari/605.1.15&quot; etag=&quot;gsiIaWHiwmFu8gkD1faV&quot; version=&quot;23.1.5&quot; type=&quot;device&quot; scale=&quot;1&quot; border=&quot;0&quot;&gt;&#10;  &lt;diagram name=&quot;Page-1&quot; id=&quot;FDI92g2CxVinfzBlUGHJ&quot;&gt;&#10;    &lt;mxGraphModel dx=&quot;1016&quot; dy=&quot;696&quot; grid=&quot;1&quot; gridSize=&quot;10&quot; guides=&quot;1&quot; tooltips=&quot;1&quot; connect=&quot;1&quot; arrows=&quot;1&quot; fold=&quot;1&quot; page=&quot;1&quot; pageScale=&quot;1&quot; pageWidth=&quot;850&quot; pageHeight=&quot;1100&quot; math=&quot;0&quot; shadow=&quot;0&quot;&gt;&#10;      &lt;root&gt;&#10;        &lt;mxCell id=&quot;0&quot; /&gt;&#10;        &lt;mxCell id=&quot;1&quot; parent=&quot;0&quot; /&gt;&#10;        &lt;mxCell id=&quot;G9Go7QivKFlqKiR12PxE-6&quot; value=&quot;&quot; style=&quot;fontColor=#0066CC;verticalAlign=top;verticalLabelPosition=bottom;labelPosition=center;align=center;html=1;outlineConnect=0;fillColor=#CCCCCC;strokeColor=#6881B3;gradientColor=none;gradientDirection=north;strokeWidth=2;shape=mxgraph.networks.web_server;&quot; vertex=&quot;1&quot; parent=&quot;1&quot;&gt;&#10;          &lt;mxGeometry x=&quot;140&quot; y=&quot;370&quot; width=&quot;105&quot; height=&quot;105&quot; as=&quot;geometry&quot; /&gt;&#10;        &lt;/mxCell&gt;&#10;      &lt;/root&gt;&#10;    &lt;/mxGraphModel&gt;&#10;  &lt;/diagram&gt;&#10;&lt;/mxfile&gt;&#10;" style="background-color: rgb(255, 255, 255);"><defs/><rect fill="#ffffff" width="100%" height="100%" x="0" y="0"/><g><rect x="1" y="84.41" width="91.75" height="14.72" rx="1.96" ry="1.96" fill="#cccccc" stroke="#6881b3" stroke-width="1.96" pointer-events="all"/><rect x="1" y="67.24" width="91.75" height="14.72" rx="1.96" ry="1.96" fill="#cccccc" stroke="#6881b3" stroke-width="1.96" pointer-events="all"/><rect x="1" y="50.07" width="91.75" height="14.72" rx="1.96" ry="1.96" fill="#cccccc" stroke="#6881b3" stroke-width="1.96" pointer-events="all"/><rect x="1" y="32.89" width="91.75" height="14.72" rx="1.96" ry="1.96" fill="#cccccc" stroke="#6881b3" stroke-width="1.96" pointer-events="all"/><rect x="1" y="15.72" width="91.75" height="14.72" rx="1.96" ry="1.96" fill="#cccccc" stroke="#6881b3" stroke-width="1.96" pointer-events="all"/><path d="M 5.08 13.76 L 26.49 1 L 67.26 1 L 88.67 13.76 Z" fill="#cccccc" stroke="#6881b3" stroke-width="1.96" stroke-miterlimit="10" pointer-events="all"/><ellipse cx="84.59" cy="91.77" rx="4.077669902912621" ry="3.925233644859813" fill="#ffffff" stroke="none" pointer-events="all"/><ellipse cx="84.26" cy="74.6" rx="4.077669902912621" ry="3.925233644859813" fill="#ffffff" stroke="none" pointer-events="all"/><ellipse cx="84.59" cy="57.43" rx="4.077669902912621" ry="3.925233644859813" fill="#ffffff" stroke="none" pointer-events="all"/><ellipse cx="84.59" cy="40.25" rx="4.077669902912621" ry="3.925233644859813" fill="#ffffff" stroke="none" pointer-events="all"/><ellipse cx="84.59" cy="23.08" rx="4.077669902912621" ry="3.925233644859813" fill="#ffffff" stroke="none" pointer-events="all"/><path d="M 6.1 97.17 L 11.19 86.37 L 16.29 86.37 L 11.19 97.17 Z M 16.29 97.17 L 21.39 86.37 L 26.49 86.37 L 21.39 97.17 Z M 26.49 97.17 L 31.58 86.37 L 36.68 86.37 L 31.58 97.17 Z M 36.68 97.17 L 41.78 86.37 L 46.87 86.37 L 41.78 97.17 Z M 46.87 97.17 L 51.97 86.37 L 57.07 86.37 L 51.97 97.17 Z M 57.07 97.17 L 62.17 86.37 L 67.26 86.37 L 62.17 97.17 Z M 6.1 80 L 11.19 69.2 L 16.29 69.2 L 11.19 80 Z M 16.29 80 L 21.39 69.2 L 26.49 69.2 L 21.39 80 Z M 26.49 80 L 31.58 69.2 L 36.68 69.2 L 31.58 80 Z M 36.68 80 L 41.78 69.2 L 46.87 69.2 L 41.78 80 Z M 46.87 80 L 51.97 69.2 L 57.07 69.2 L 51.97 80 Z M 57.07 80 L 62.17 69.2 L 67.26 69.2 L 62.17 80 Z M 6.1 62.82 L 11.19 52.03 L 16.29 52.03 L 11.19 62.82 Z M 16.29 62.82 L 21.39 52.03 L 26.49 52.03 L 21.39 62.82 Z M 26.49 62.82 L 31.07 52.03 L 36.17 52.03 L 31.07 62.82 Z M 36.68 62.82 L 41.78 52.03 L 46.87 52.03 L 41.78 62.82 Z M 46.87 62.82 L 51.97 52.03 L 57.07 52.03 L 51.97 62.82 Z M 57.07 62.82 L 62.17 52.03 L 67.26 52.03 L 62.17 62.82 Z M 6.1 45.65 L 11.19 34.86 L 16.29 34.86 L 11.19 45.65 Z M 16.29 45.65 L 21.39 34.86 L 26.49 34.86 L 21.39 45.65 Z M 26.49 45.65 L 31.58 34.86 L 36.68 34.86 L 31.58 45.65 Z M 36.68 45.65 L 41.78 34.86 L 46.87 34.86 L 41.78 45.65 Z M 46.87 45.65 L 51.97 34.86 L 57.07 34.86 L 51.97 45.65 Z M 57.07 45.65 L 62.17 34.86 L 67.26 34.86 L 62.17 45.65 Z M 6.1 28.48 L 11.19 17.68 L 16.29 17.68 L 11.19 28.48 Z M 16.29 28.48 L 21.39 17.68 L 26.49 17.68 L 21.39 28.48 Z M 26.49 28.48 L 31.58 17.68 L 36.68 17.68 L 31.58 28.48 Z M 36.68 28.48 L 41.78 17.68 L 46.87 17.68 L 41.78 28.48 Z M 46.87 28.48 L 51.97 17.68 L 57.07 17.68 L 51.97 28.48 Z M 57.07 28.48 L 62.17 17.68 L 67.26 17.68 L 62.17 28.48 Z" fill="#ffffff" stroke="none" pointer-events="all"/><rect x="1" y="1" width="0" height="0" fill="none" stroke="#6881b3" stroke-width="1.96" pointer-events="all"/><ellipse cx="87.65" cy="88.34" rx="18.349514563106794" ry="17.66355140186916" fill="#cccccc" stroke="#6881b3" stroke-width="1.96" pointer-events="all"/><path d="M 87.65 70.67 L 87.65 106 M 69.71 88.34 L 106 88.14 M 87.65 70.67 C 97.36 80.21 97.36 95.48 87.65 105.02 M 87.65 70.67 C 77.94 80.21 77.94 95.48 87.65 105.02 M 87.65 70.67 C 95.89 72.58 101.71 79.68 101.71 87.85 C 101.71 96.01 95.89 103.11 87.65 105.02 M 87.65 70.67 C 79.41 72.58 73.6 79.68 73.6 87.85 C 73.6 96.01 79.41 103.11 87.65 105.02 M 71.85 79.5 L 103.45 79.5 M 71.75 98.15 L 103.15 98.35" fill="none" stroke="#6881b3" stroke-width="1.96" stroke-miterlimit="10" pointer-events="all"/></g></svg>