<?xml version="1.0" encoding="UTF-8" standalone="no"?>
<!DOCTYPE svg PUBLIC "-//W3C//DTD SVG 1.1//EN"
 "http://www.w3.org/Graphics/SVG/1.1/DTD/svg11.dtd">
<!-- Generated by graphviz version 10.0.1 (20240210.2158)
 -->
<!-- Title: winauth Pages: 1 -->
<svg width="514pt" height="500pt"
 viewBox="0.00 0.00 513.62 500.48" xmlns="http://www.w3.org/2000/svg" xmlns:xlink="http://www.w3.org/1999/xlink">
<g id="graph0" class="graph" transform="scale(1 1) rotate(0) translate(4 496.48)">
<title>winauth</title>
<polygon fill="white" stroke="none" points="-4,4 -4,-496.48 509.62,-496.48 509.62,4 -4,4"/>
<!-- utitle -->
<g id="node1" class="node">
<title>utitle</title>
<text text-anchor="start" x="18" y="-467.68" font-family="Helvetica,sans-Serif" font-size="14.00"> User </text>
</g>
<!-- user -->
<g id="node2" class="node">
<title>user</title>
<image xlink:href="/Users/aaron/Dropbox/git/nws/slides/images/graphs/female-user-icon.svg" width="72px" height="72px" preserveAspectRatio="xMinYMin meet" x="0" y="-414.48"/>
</g>
<!-- utitle&#45;&gt;user -->
<!-- u1 -->
<g id="node3" class="node">
<title>u1</title>
<ellipse fill="black" stroke="black" cx="36" cy="-302.12" rx="0.36" ry="0.36"/>
</g>
<!-- user&#45;&gt;u1 -->
<g id="edge2" class="edge">
<title>user&#45;&gt;u1</title>
<path fill="none" stroke="black" d="M36,-342.61C36,-324.25 36,-305.04 36,-302.72"/>
</g>
<!-- u2 -->
<g id="node4" class="node">
<title>u2</title>
<ellipse fill="black" stroke="black" cx="36" cy="-264.4" rx="0.36" ry="0.36"/>
</g>
<!-- u1&#45;&gt;u2 -->
<g id="edge3" class="edge">
<title>u1&#45;&gt;u2</title>
<path fill="none" stroke="black" d="M36,-301.34C36,-297.53 36,-268.71 36,-265.13"/>
</g>
<!-- d1 -->
<g id="node14" class="node">
<title>d1</title>
<ellipse fill="black" stroke="black" cx="180" cy="-302.12" rx="0.36" ry="0.36"/>
</g>
<!-- u1&#45;&gt;d1 -->
<g id="edge41" class="edge">
<title>u1&#45;&gt;d1</title>
<path fill="none" stroke="black" d="M36.64,-302.12C45.11,-302.12 135.08,-302.12 168.01,-302.12"/>
<polygon fill="black" stroke="black" points="167.64,-305.62 177.64,-302.12 167.64,-298.62 167.64,-305.62"/>
<text text-anchor="start" x="62.62" y="-321.82" font-family="Helvetica,sans-Serif" font-size="14.00"> username and</text>
<text text-anchor="start" x="77.25" y="-306.82" font-family="Helvetica,sans-Serif" font-size="14.00">password </text>
</g>
<!-- u3 -->
<g id="node5" class="node">
<title>u3</title>
<ellipse fill="black" stroke="black" cx="36" cy="-226.68" rx="0.36" ry="0.36"/>
</g>
<!-- u2&#45;&gt;u3 -->
<g id="edge4" class="edge">
<title>u2&#45;&gt;u3</title>
<path fill="none" stroke="black" d="M36,-263.62C36,-259.81 36,-230.99 36,-227.41"/>
</g>
<!-- u4 -->
<g id="node6" class="node">
<title>u4</title>
<ellipse fill="black" stroke="black" cx="36" cy="-188.96" rx="0.36" ry="0.36"/>
</g>
<!-- u3&#45;&gt;u4 -->
<g id="edge5" class="edge">
<title>u3&#45;&gt;u4</title>
<path fill="none" stroke="black" d="M36,-225.9C36,-222.09 36,-193.27 36,-189.69"/>
</g>
<!-- u5 -->
<g id="node7" class="node">
<title>u5</title>
<ellipse fill="black" stroke="black" cx="36" cy="-151.24" rx="0.36" ry="0.36"/>
</g>
<!-- u4&#45;&gt;u5 -->
<g id="edge6" class="edge">
<title>u4&#45;&gt;u5</title>
<path fill="none" stroke="black" d="M36,-188.18C36,-184.37 36,-155.55 36,-151.97"/>
</g>
<!-- u6 -->
<g id="node8" class="node">
<title>u6</title>
<ellipse fill="black" stroke="black" cx="36" cy="-113.52" rx="0.36" ry="0.36"/>
</g>
<!-- u5&#45;&gt;u6 -->
<g id="edge7" class="edge">
<title>u5&#45;&gt;u6</title>
<path fill="none" stroke="black" d="M36,-150.46C36,-146.65 36,-117.83 36,-114.25"/>
</g>
<!-- u7 -->
<g id="node9" class="node">
<title>u7</title>
<ellipse fill="black" stroke="black" cx="36" cy="-75.8" rx="0.36" ry="0.36"/>
</g>
<!-- u6&#45;&gt;u7 -->
<g id="edge8" class="edge">
<title>u6&#45;&gt;u7</title>
<path fill="none" stroke="black" d="M36,-112.74C36,-108.93 36,-80.11 36,-76.53"/>
</g>
<!-- u8 -->
<g id="node10" class="node">
<title>u8</title>
<ellipse fill="black" stroke="black" cx="36" cy="-38.08" rx="0.36" ry="0.36"/>
</g>
<!-- u7&#45;&gt;u8 -->
<g id="edge9" class="edge">
<title>u7&#45;&gt;u8</title>
<path fill="none" stroke="black" d="M36,-75.02C36,-71.21 36,-42.39 36,-38.81"/>
</g>
<!-- u9 -->
<g id="node11" class="node">
<title>u9</title>
<ellipse fill="black" stroke="black" cx="36" cy="-0.36" rx="0.36" ry="0.36"/>
</g>
<!-- u8&#45;&gt;u9 -->
<g id="edge10" class="edge">
<title>u8&#45;&gt;u9</title>
<path fill="none" stroke="black" d="M36,-37.3C36,-33.49 36,-4.67 36,-1.09"/>
</g>
<!-- d8 -->
<g id="node21" class="node">
<title>d8</title>
<ellipse fill="black" stroke="black" cx="180" cy="-38.08" rx="0.36" ry="0.36"/>
</g>
<!-- u8&#45;&gt;d8 -->
<g id="edge48" class="edge">
<title>u8&#45;&gt;d8</title>
<path fill="none" stroke="black" d="M48.14,-38.08C80.94,-38.08 169.53,-38.08 179.15,-38.08"/>
<polygon fill="black" stroke="black" points="48.16,-34.58 38.16,-38.08 48.16,-41.58 48.16,-34.58"/>
<text text-anchor="middle" x="108" y="-42.78" font-family="Helvetica,sans-Serif" font-size="14.00">authenticated</text>
</g>
<!-- dtitle -->
<g id="node12" class="node">
<title>dtitle</title>
<text text-anchor="start" x="151.5" y="-467.68" font-family="Helvetica,sans-Serif" font-size="14.00"> Desktop </text>
</g>
<!-- desktop -->
<g id="node13" class="node">
<title>desktop</title>
<image xlink:href="/Users/aaron/Dropbox/git/nws/slides/images/graphs/terminal.svg" width="78px" height="56px" preserveAspectRatio="xMinYMin meet" x="141" y="-406.48"/>
</g>
<!-- dtitle&#45;&gt;desktop -->
<!-- desktop&#45;&gt;d1 -->
<g id="edge12" class="edge">
<title>desktop&#45;&gt;d1</title>
<path fill="none" stroke="black" d="M180,-350.83C180,-330.62 180,-305.81 180,-302.79"/>
</g>
<!-- d2 -->
<g id="node15" class="node">
<title>d2</title>
<ellipse fill="black" stroke="black" cx="180" cy="-264.4" rx="0.36" ry="0.36"/>
</g>
<!-- d1&#45;&gt;d2 -->
<g id="edge13" class="edge">
<title>d1&#45;&gt;d2</title>
<path fill="none" stroke="black" d="M180,-301.34C180,-297.53 180,-268.71 180,-265.13"/>
</g>
<!-- d3 -->
<g id="node16" class="node">
<title>d3</title>
<ellipse fill="black" stroke="black" cx="180" cy="-226.68" rx="0.36" ry="0.36"/>
</g>
<!-- d2&#45;&gt;d3 -->
<g id="edge14" class="edge">
<title>d2&#45;&gt;d3</title>
<path fill="none" stroke="black" d="M180,-263.62C180,-259.81 180,-230.99 180,-227.41"/>
</g>
<!-- s2 -->
<g id="node26" class="node">
<title>s2</title>
<ellipse fill="black" stroke="black" cx="324" cy="-264.4" rx="0.36" ry="0.36"/>
</g>
<!-- d2&#45;&gt;s2 -->
<g id="edge42" class="edge">
<title>d2&#45;&gt;s2</title>
<path fill="none" stroke="black" d="M180.64,-264.4C189.11,-264.4 279.08,-264.4 312.01,-264.4"/>
<polygon fill="black" stroke="black" points="311.64,-267.9 321.64,-264.4 311.64,-260.9 311.64,-267.9"/>
<text text-anchor="middle" x="252" y="-269.1" font-family="Helvetica,sans-Serif" font-size="14.00">username</text>
</g>
<!-- d4 -->
<g id="node17" class="node">
<title>d4</title>
<ellipse fill="black" stroke="black" cx="180" cy="-188.96" rx="0.36" ry="0.36"/>
</g>
<!-- d3&#45;&gt;d4 -->
<g id="edge15" class="edge">
<title>d3&#45;&gt;d4</title>
<path fill="none" stroke="black" d="M180,-225.9C180,-222.09 180,-193.27 180,-189.69"/>
</g>
<!-- s3 -->
<g id="node27" class="node">
<title>s3</title>
<ellipse fill="black" stroke="black" cx="324" cy="-226.68" rx="0.36" ry="0.36"/>
</g>
<!-- d3&#45;&gt;s3 -->
<g id="edge43" class="edge">
<title>d3&#45;&gt;s3</title>
<path fill="none" stroke="black" d="M192.14,-226.68C224.94,-226.68 313.53,-226.68 323.15,-226.68"/>
<polygon fill="black" stroke="black" points="192.16,-223.18 182.16,-226.68 192.16,-230.18 192.16,-223.18"/>
<text text-anchor="middle" x="252" y="-231.38" font-family="Helvetica,sans-Serif" font-size="14.00">nonce</text>
</g>
<!-- d5 -->
<g id="node18" class="node">
<title>d5</title>
<ellipse fill="black" stroke="black" cx="180" cy="-151.24" rx="0.36" ry="0.36"/>
</g>
<!-- d4&#45;&gt;d5 -->
<g id="edge16" class="edge">
<title>d4&#45;&gt;d5</title>
<path fill="none" stroke="black" d="M180,-188.18C180,-184.37 180,-155.55 180,-151.97"/>
</g>
<!-- s4 -->
<g id="node28" class="node">
<title>s4</title>
<ellipse fill="black" stroke="black" cx="324" cy="-188.96" rx="0.36" ry="0.36"/>
</g>
<!-- d4&#45;&gt;s4 -->
<g id="edge44" class="edge">
<title>d4&#45;&gt;s4</title>
<path fill="none" stroke="black" d="M180.64,-188.96C189.11,-188.96 279.08,-188.96 312.01,-188.96"/>
<polygon fill="black" stroke="black" points="311.64,-192.46 321.64,-188.96 311.64,-185.46 311.64,-192.46"/>
<text text-anchor="start" x="200.25" y="-208.66" font-family="Helvetica,sans-Serif" font-size="14.00"> nonce encrypted</text>
<text text-anchor="start" x="198" y="-193.66" font-family="Helvetica,sans-Serif" font-size="14.00">w/password hash </text>
</g>
<!-- d6 -->
<g id="node19" class="node">
<title>d6</title>
<ellipse fill="black" stroke="black" cx="180" cy="-113.52" rx="0.36" ry="0.36"/>
</g>
<!-- d5&#45;&gt;d6 -->
<g id="edge17" class="edge">
<title>d5&#45;&gt;d6</title>
<path fill="none" stroke="black" d="M180,-150.46C180,-146.65 180,-117.83 180,-114.25"/>
</g>
<!-- d7 -->
<g id="node20" class="node">
<title>d7</title>
<ellipse fill="black" stroke="black" cx="180" cy="-75.8" rx="0.36" ry="0.36"/>
</g>
<!-- d6&#45;&gt;d7 -->
<g id="edge18" class="edge">
<title>d6&#45;&gt;d7</title>
<path fill="none" stroke="black" d="M180,-112.74C180,-108.93 180,-80.11 180,-76.53"/>
</g>
<!-- d7&#45;&gt;d8 -->
<g id="edge19" class="edge">
<title>d7&#45;&gt;d8</title>
<path fill="none" stroke="black" d="M180,-75.02C180,-71.21 180,-42.39 180,-38.81"/>
</g>
<!-- s7 -->
<g id="node31" class="node">
<title>s7</title>
<ellipse fill="black" stroke="black" cx="324" cy="-75.8" rx="0.36" ry="0.36"/>
</g>
<!-- d7&#45;&gt;s7 -->
<g id="edge47" class="edge">
<title>d7&#45;&gt;s7</title>
<path fill="none" stroke="black" d="M192.14,-75.8C224.94,-75.8 313.53,-75.8 323.15,-75.8"/>
<polygon fill="black" stroke="black" points="192.16,-72.3 182.16,-75.8 192.16,-79.3 192.16,-72.3"/>
<text text-anchor="middle" x="252" y="-80.5" font-family="Helvetica,sans-Serif" font-size="14.00">authenticated</text>
</g>
<!-- d9 -->
<g id="node22" class="node">
<title>d9</title>
<ellipse fill="black" stroke="black" cx="180" cy="-0.36" rx="0.36" ry="0.36"/>
</g>
<!-- d8&#45;&gt;d9 -->
<g id="edge20" class="edge">
<title>d8&#45;&gt;d9</title>
<path fill="none" stroke="black" d="M180,-37.3C180,-33.49 180,-4.67 180,-1.09"/>
</g>
<!-- stitle -->
<g id="node23" class="node">
<title>stitle</title>
<text text-anchor="start" x="300.38" y="-467.68" font-family="Helvetica,sans-Serif" font-size="14.00"> Server </text>
</g>
<!-- server -->
<g id="node24" class="node">
<title>server</title>
<image xlink:href="/Users/aaron/Dropbox/git/nws/slides/images/graphs/server.svg" width="71px" height="78px" preserveAspectRatio="xMinYMin meet" x="288.5" y="-417.48"/>
</g>
<!-- stitle&#45;&gt;server -->
<!-- s1 -->
<g id="node25" class="node">
<title>s1</title>
<ellipse fill="black" stroke="black" cx="324" cy="-302.12" rx="0.36" ry="0.36"/>
</g>
<!-- server&#45;&gt;s1 -->
<g id="edge22" class="edge">
<title>server&#45;&gt;s1</title>
<path fill="none" stroke="black" d="M324,-339.54C324,-322.68 324,-305.94 324,-302.95"/>
</g>
<!-- s1&#45;&gt;s2 -->
<g id="edge23" class="edge">
<title>s1&#45;&gt;s2</title>
<path fill="none" stroke="black" d="M324,-301.34C324,-297.53 324,-268.71 324,-265.13"/>
</g>
<!-- s2&#45;&gt;s3 -->
<g id="edge24" class="edge">
<title>s2&#45;&gt;s3</title>
<path fill="none" stroke="black" d="M324,-263.62C324,-259.81 324,-230.99 324,-227.41"/>
</g>
<!-- s3&#45;&gt;s4 -->
<g id="edge25" class="edge">
<title>s3&#45;&gt;s4</title>
<path fill="none" stroke="black" d="M324,-225.9C324,-222.09 324,-193.27 324,-189.69"/>
</g>
<!-- s5 -->
<g id="node29" class="node">
<title>s5</title>
<ellipse fill="black" stroke="black" cx="324" cy="-151.24" rx="0.36" ry="0.36"/>
</g>
<!-- s4&#45;&gt;s5 -->
<g id="edge26" class="edge">
<title>s4&#45;&gt;s5</title>
<path fill="none" stroke="black" d="M324,-188.18C324,-184.37 324,-155.55 324,-151.97"/>
</g>
<!-- s6 -->
<g id="node30" class="node">
<title>s6</title>
<ellipse fill="black" stroke="black" cx="324" cy="-113.52" rx="0.36" ry="0.36"/>
</g>
<!-- s5&#45;&gt;s6 -->
<g id="edge27" class="edge">
<title>s5&#45;&gt;s6</title>
<path fill="none" stroke="black" d="M324,-150.46C324,-146.65 324,-117.83 324,-114.25"/>
</g>
<!-- c5 -->
<g id="node40" class="node">
<title>c5</title>
<ellipse fill="black" stroke="black" cx="468" cy="-151.24" rx="0.36" ry="0.36"/>
</g>
<!-- s5&#45;&gt;c5 -->
<g id="edge45" class="edge">
<title>s5&#45;&gt;c5</title>
<path fill="none" stroke="black" d="M324.64,-151.24C333.11,-151.24 423.08,-151.24 456.01,-151.24"/>
<polygon fill="black" stroke="black" points="455.64,-154.74 465.64,-151.24 455.64,-147.74 455.64,-154.74"/>
<text text-anchor="start" x="339.75" y="-170.94" font-family="Helvetica,sans-Serif" font-size="14.00"> username, nonce,</text>
<text text-anchor="start" x="344.25" y="-155.94" font-family="Helvetica,sans-Serif" font-size="14.00">encrypted nonce </text>
</g>
<!-- s6&#45;&gt;s7 -->
<g id="edge28" class="edge">
<title>s6&#45;&gt;s7</title>
<path fill="none" stroke="black" d="M324,-112.74C324,-108.93 324,-80.11 324,-76.53"/>
</g>
<!-- c6 -->
<g id="node41" class="node">
<title>c6</title>
<ellipse fill="black" stroke="black" cx="468" cy="-113.52" rx="0.36" ry="0.36"/>
</g>
<!-- s6&#45;&gt;c6 -->
<g id="edge46" class="edge">
<title>s6&#45;&gt;c6</title>
<path fill="none" stroke="black" d="M336.14,-113.52C368.94,-113.52 457.53,-113.52 467.15,-113.52"/>
<polygon fill="black" stroke="black" points="336.16,-110.02 326.16,-113.52 336.16,-117.02 336.16,-110.02"/>
<text text-anchor="middle" x="396" y="-118.22" font-family="Helvetica,sans-Serif" font-size="14.00">authenticated</text>
</g>
<!-- s8 -->
<g id="node32" class="node">
<title>s8</title>
<ellipse fill="black" stroke="black" cx="324" cy="-38.08" rx="0.36" ry="0.36"/>
</g>
<!-- s7&#45;&gt;s8 -->
<g id="edge29" class="edge">
<title>s7&#45;&gt;s8</title>
<path fill="none" stroke="black" d="M324,-75.02C324,-71.21 324,-42.39 324,-38.81"/>
</g>
<!-- s9 -->
<g id="node33" class="node">
<title>s9</title>
<ellipse fill="black" stroke="black" cx="324" cy="-0.36" rx="0.36" ry="0.36"/>
</g>
<!-- s8&#45;&gt;s9 -->
<g id="edge30" class="edge">
<title>s8&#45;&gt;s9</title>
<path fill="none" stroke="black" d="M324,-37.3C324,-33.49 324,-4.67 324,-1.09"/>
</g>
<!-- ctitle -->
<g id="node34" class="node">
<title>ctitle</title>
<text text-anchor="start" x="442.5" y="-475.18" font-family="Helvetica,sans-Serif" font-size="14.00"> Domain</text>
<text text-anchor="start" x="438.38" y="-460.18" font-family="Helvetica,sans-Serif" font-size="14.00">controller </text>
</g>
<!-- controller -->
<g id="node35" class="node">
<title>controller</title>
<image xlink:href="/Users/aaron/Dropbox/git/nws/slides/images/graphs/server.svg" width="71px" height="78px" preserveAspectRatio="xMinYMin meet" x="432.5" y="-417.48"/>
</g>
<!-- ctitle&#45;&gt;controller -->
<!-- c1 -->
<g id="node36" class="node">
<title>c1</title>
<ellipse fill="black" stroke="black" cx="468" cy="-302.12" rx="0.36" ry="0.36"/>
</g>
<!-- controller&#45;&gt;c1 -->
<g id="edge32" class="edge">
<title>controller&#45;&gt;c1</title>
<path fill="none" stroke="black" d="M468,-339.54C468,-322.68 468,-305.94 468,-302.95"/>
</g>
<!-- c2 -->
<g id="node37" class="node">
<title>c2</title>
<ellipse fill="black" stroke="black" cx="468" cy="-264.4" rx="0.36" ry="0.36"/>
</g>
<!-- c1&#45;&gt;c2 -->
<g id="edge33" class="edge">
<title>c1&#45;&gt;c2</title>
<path fill="none" stroke="black" d="M468,-301.34C468,-297.53 468,-268.71 468,-265.13"/>
</g>
<!-- c3 -->
<g id="node38" class="node">
<title>c3</title>
<ellipse fill="black" stroke="black" cx="468" cy="-226.68" rx="0.36" ry="0.36"/>
</g>
<!-- c2&#45;&gt;c3 -->
<g id="edge34" class="edge">
<title>c2&#45;&gt;c3</title>
<path fill="none" stroke="black" d="M468,-263.62C468,-259.81 468,-230.99 468,-227.41"/>
</g>
<!-- c4 -->
<g id="node39" class="node">
<title>c4</title>
<ellipse fill="black" stroke="black" cx="468" cy="-188.96" rx="0.36" ry="0.36"/>
</g>
<!-- c3&#45;&gt;c4 -->
<g id="edge35" class="edge">
<title>c3&#45;&gt;c4</title>
<path fill="none" stroke="black" d="M468,-225.9C468,-222.09 468,-193.27 468,-189.69"/>
</g>
<!-- c4&#45;&gt;c5 -->
<g id="edge36" class="edge">
<title>c4&#45;&gt;c5</title>
<path fill="none" stroke="black" d="M468,-188.18C468,-184.37 468,-155.55 468,-151.97"/>
</g>
<!-- c5&#45;&gt;c6 -->
<g id="edge37" class="edge">
<title>c5&#45;&gt;c6</title>
<path fill="none" stroke="black" d="M468,-150.46C468,-146.65 468,-117.83 468,-114.25"/>
</g>
<!-- c7 -->
<g id="node42" class="node">
<title>c7</title>
<ellipse fill="black" stroke="black" cx="468" cy="-75.8" rx="0.36" ry="0.36"/>
</g>
<!-- c6&#45;&gt;c7 -->
<g id="edge38" class="edge">
<title>c6&#45;&gt;c7</title>
<path fill="none" stroke="black" d="M468,-112.74C468,-108.93 468,-80.11 468,-76.53"/>
</g>
<!-- c8 -->
<g id="node43" class="node">
<title>c8</title>
<ellipse fill="black" stroke="black" cx="468" cy="-38.08" rx="0.36" ry="0.36"/>
</g>
<!-- c7&#45;&gt;c8 -->
<g id="edge39" class="edge">
<title>c7&#45;&gt;c8</title>
<path fill="none" stroke="black" d="M468,-75.02C468,-71.21 468,-42.39 468,-38.81"/>
</g>
<!-- c9 -->
<g id="node44" class="node">
<title>c9</title>
<ellipse fill="black" stroke="black" cx="468" cy="-0.36" rx="0.36" ry="0.36"/>
</g>
<!-- c8&#45;&gt;c9 -->
<g id="edge40" class="edge">
<title>c8&#45;&gt;c9</title>
<path fill="none" stroke="black" d="M468,-37.3C468,-33.49 468,-4.67 468,-1.09"/>
</g>
</g>
</svg>
