<?xml version="1.0" encoding="UTF-8" standalone="no"?>
<!DOCTYPE svg PUBLIC "-//W3C//DTD SVG 1.1//EN"
 "http://www.w3.org/Graphics/SVG/1.1/DTD/svg11.dtd">
<!-- Generated by graphviz version 11.0.0 (20240428.1522)
 -->
<!-- Title: network_compact Pages: 1 -->
<svg width="914pt" height="302pt"
 viewBox="0.00 0.00 913.50 302.00" xmlns="http://www.w3.org/2000/svg" xmlns:xlink="http://www.w3.org/1999/xlink">
<g id="page0,1_graph0" class="graph" transform="scale(1 1) rotate(0) translate(4 298)">
<title>network_compact</title>
<polygon fill="white" stroke="none" points="-4,4 -4,-298 909.5,-298 909.5,4 -4,4"/>
<!-- outer_network -->
<g id="node1" class="node">
<title>outer_network</title>
<ellipse fill="none" stroke="black" cx="436" cy="-190" rx="136.16" ry="18"/>
<text text-anchor="middle" x="436" y="-184.2" font-family="Helvetica,sans-Serif" font-size="14.00">outernet network: 192.168.100.x</text>
</g>
<!-- outer1 -->
<g id="node5" class="node">
<title>outer1</title>
<path fill="none" stroke="black" d="M148,-136C148,-136 12,-136 12,-136 6,-136 0,-130 0,-124 0,-124 0,-98 0,-98 0,-92 6,-86 12,-86 12,-86 148,-86 148,-86 154,-86 160,-92 160,-98 160,-98 160,-124 160,-124 160,-130 154,-136 148,-136"/>
<text text-anchor="start" x="8" y="-119.7" font-family="Helvetica,sans-Serif" font-size="14.00"> 192.168.100.101 (eth1)</text>
<text text-anchor="start" x="59.38" y="-105.7" font-family="Helvetica,sans-Serif" font-weight="bold" font-size="14.00">outer1</text>
<text text-anchor="start" x="78.12" y="-91.7" font-family="Helvetica,sans-Serif" font-size="14.00"> </text>
</g>
<!-- outer_network&#45;&#45;outer1 -->
<g id="edge3" class="edge">
<title>outer_network&#45;&#45;outer1</title>
<path fill="none" stroke="black" d="M357.72,-174.9C304.34,-164.93 232.16,-150.77 169,-136 166.2,-135.34 163.34,-134.66 160.47,-133.96"/>
</g>
<!-- outer2 -->
<g id="node6" class="node">
<title>outer2</title>
<path fill="none" stroke="black" d="M326,-136C326,-136 190,-136 190,-136 184,-136 178,-130 178,-124 178,-124 178,-98 178,-98 178,-92 184,-86 190,-86 190,-86 326,-86 326,-86 332,-86 338,-92 338,-98 338,-98 338,-124 338,-124 338,-130 332,-136 326,-136"/>
<text text-anchor="start" x="186" y="-119.7" font-family="Helvetica,sans-Serif" font-size="14.00"> 192.168.100.102 (eth0)</text>
<text text-anchor="start" x="237.38" y="-105.7" font-family="Helvetica,sans-Serif" font-weight="bold" font-size="14.00">outer2</text>
<text text-anchor="start" x="256.12" y="-91.7" font-family="Helvetica,sans-Serif" font-size="14.00"> </text>
</g>
<!-- outer_network&#45;&#45;outer2 -->
<g id="edge4" class="edge">
<title>outer_network&#45;&#45;outer2</title>
<path fill="none" stroke="black" d="M397.38,-172.29C373.14,-161.81 341.48,-148.11 314.46,-136.42"/>
</g>
<!-- outer3 -->
<g id="node7" class="node">
<title>outer3</title>
<path fill="none" stroke="black" d="M504,-136C504,-136 368,-136 368,-136 362,-136 356,-130 356,-124 356,-124 356,-98 356,-98 356,-92 362,-86 368,-86 368,-86 504,-86 504,-86 510,-86 516,-92 516,-98 516,-98 516,-124 516,-124 516,-130 510,-136 504,-136"/>
<text text-anchor="start" x="364" y="-119.7" font-family="Helvetica,sans-Serif" font-size="14.00"> 192.168.100.103 (eth1)</text>
<text text-anchor="start" x="415.38" y="-105.7" font-family="Helvetica,sans-Serif" font-weight="bold" font-size="14.00">outer3</text>
<text text-anchor="start" x="371.5" y="-91.7" font-family="Helvetica,sans-Serif" font-size="14.00">192.168.200.4 (eth0) </text>
</g>
<!-- outer_network&#45;&#45;outer3 -->
<g id="edge5" class="edge">
<title>outer_network&#45;&#45;outer3</title>
<path fill="none" stroke="black" d="M436,-171.53C436,-161.14 436,-147.82 436,-136.41"/>
</g>
<!-- gateway -->
<g id="node8" class="node">
<title>gateway</title>
<path fill="none" stroke="black" d="M667.5,-136C667.5,-136 546.5,-136 546.5,-136 540.5,-136 534.5,-130 534.5,-124 534.5,-124 534.5,-98 534.5,-98 534.5,-92 540.5,-86 546.5,-86 546.5,-86 667.5,-86 667.5,-86 673.5,-86 679.5,-92 679.5,-98 679.5,-98 679.5,-124 679.5,-124 679.5,-130 673.5,-136 667.5,-136"/>
<text text-anchor="start" x="542.5" y="-119.7" font-family="Helvetica,sans-Serif" font-size="14.00"> 192.168.100.2 (eth1)</text>
<text text-anchor="start" x="580" y="-105.7" font-family="Helvetica,sans-Serif" font-weight="bold" font-size="14.00">gateway</text>
<text text-anchor="start" x="542.5" y="-91.7" font-family="Helvetica,sans-Serif" font-size="14.00">192.168.200.1 (eth0) </text>
</g>
<!-- outer_network&#45;&#45;gateway -->
<g id="edge8" class="edge">
<title>outer_network&#45;&#45;gateway</title>
<path fill="none" stroke="black" d="M473.1,-172.29C496.38,-161.81 526.8,-148.11 552.76,-136.42"/>
</g>
<!-- metasploit -->
<g id="node9" class="node">
<title>metasploit</title>
<path fill="none" stroke="black" d="M830.5,-136C830.5,-136 709.5,-136 709.5,-136 703.5,-136 697.5,-130 697.5,-124 697.5,-124 697.5,-98 697.5,-98 697.5,-92 703.5,-86 709.5,-86 709.5,-86 830.5,-86 830.5,-86 836.5,-86 842.5,-92 842.5,-98 842.5,-98 842.5,-124 842.5,-124 842.5,-130 836.5,-136 830.5,-136"/>
<text text-anchor="start" x="705.5" y="-119.7" font-family="Helvetica,sans-Serif" font-size="14.00"> 192.168.100.3 (eth1)</text>
<text text-anchor="start" x="735.88" y="-105.7" font-family="Helvetica,sans-Serif" font-weight="bold" font-size="14.00">metasploit</text>
<text text-anchor="start" x="705.5" y="-91.7" font-family="Helvetica,sans-Serif" font-size="14.00">192.168.200.2 (eth0) </text>
</g>
<!-- outer_network&#45;&#45;metasploit -->
<g id="edge6" class="edge">
<title>outer_network&#45;&#45;metasploit</title>
<path fill="none" stroke="black" d="M512.21,-174.72C562.62,-164.86 630.04,-150.88 689,-136 691.7,-135.32 694.45,-134.6 697.22,-133.87"/>
</g>
<!-- inner_network -->
<g id="node2" class="node">
<title>inner_network</title>
<ellipse fill="none" stroke="black" cx="607" cy="-25" rx="135.68" ry="18"/>
<text text-anchor="middle" x="607" y="-19.2" font-family="Helvetica,sans-Serif" font-size="14.00">innernet network: 192.168.200.x</text>
</g>
<!-- inner -->
<g id="node10" class="node">
<title>inner</title>
<path fill="none" stroke="black" d="M893.5,-50C893.5,-50 772.5,-50 772.5,-50 766.5,-50 760.5,-44 760.5,-38 760.5,-38 760.5,-12 760.5,-12 760.5,-6 766.5,0 772.5,0 772.5,0 893.5,0 893.5,0 899.5,0 905.5,-6 905.5,-12 905.5,-12 905.5,-38 905.5,-38 905.5,-44 899.5,-50 893.5,-50"/>
<text text-anchor="start" x="768.5" y="-33.7" font-family="Helvetica,sans-Serif" font-size="14.00"> 192.168.200.3 (eth0)</text>
<text text-anchor="start" x="816.5" y="-19.7" font-family="Helvetica,sans-Serif" font-weight="bold" font-size="14.00">inner</text>
<text text-anchor="start" x="829.25" y="-5.7" font-family="Helvetica,sans-Serif" font-size="14.00"> &#160;</text>
</g>
<!-- inner_network&#45;&#45;inner -->
<g id="edge10" class="edge">
<title>inner_network&#45;&#45;inner</title>
<path fill="none" stroke="black" d="M742.95,-25C748.7,-25 754.44,-25 760.19,-25"/>
</g>
<!-- internet -->
<g id="node3" class="node">
<title>internet</title>
<text text-anchor="start" x="254.38" y="-261.5" font-family="Helvetica,sans-Serif" font-size="20.00"> </text>
<text text-anchor="start" x="259.62" y="-261.5" font-family="Helvetica,sans-Serif" font-weight="bold" font-size="20.00">Internet</text>
<text text-anchor="start" x="332.38" y="-261.5" font-family="Helvetica,sans-Serif" font-size="20.00"> </text>
</g>
<!-- firewall -->
<g id="node4" class="node">
<title>firewall</title>
<path fill="none" stroke="black" d="M496.5,-294C496.5,-294 375.5,-294 375.5,-294 369.5,-294 363.5,-288 363.5,-282 363.5,-282 363.5,-256 363.5,-256 363.5,-250 369.5,-244 375.5,-244 375.5,-244 496.5,-244 496.5,-244 502.5,-244 508.5,-250 508.5,-256 508.5,-256 508.5,-282 508.5,-282 508.5,-288 502.5,-294 496.5,-294"/>
<text text-anchor="start" x="379.38" y="-277.7" font-family="Helvetica,sans-Serif" font-size="14.00"> &lt;bridge IP&gt; (eth0)</text>
<text text-anchor="start" x="412.38" y="-263.7" font-family="Helvetica,sans-Serif" font-weight="bold" font-size="14.00">firewall</text>
<text text-anchor="start" x="371.5" y="-249.7" font-family="Helvetica,sans-Serif" font-size="14.00">192.168.100.1 (eth1) </text>
</g>
<!-- internet&#45;&#45;firewall -->
<g id="edge1" class="edge">
<title>internet&#45;&#45;firewall</title>
<path fill="none" stroke="black" d="M345.49,-269C351.38,-269 357.28,-269 363.17,-269"/>
</g>
<!-- firewall&#45;&#45;outer_network -->
<g id="edge2" class="edge">
<title>firewall&#45;&#45;outer_network</title>
<path fill="none" stroke="black" d="M436,-243.64C436,-232.18 436,-218.79 436,-208.38"/>
</g>
<!-- outer3&#45;&#45;inner_network -->
<g id="edge11" class="edge">
<title>outer3&#45;&#45;inner_network</title>
<path fill="none" stroke="black" d="M485.46,-85.7C513.47,-71.94 547.8,-55.08 572.83,-42.79"/>
</g>
<!-- gateway&#45;&#45;inner_network -->
<g id="edge9" class="edge">
<title>gateway&#45;&#45;inner_network</title>
<path fill="none" stroke="black" d="M607,-85.7C607,-72.14 607,-55.55 607,-43.31"/>
</g>
<!-- metasploit&#45;&#45;inner_network -->
<g id="edge7" class="edge">
<title>metasploit&#45;&#45;inner_network</title>
<path fill="none" stroke="black" d="M722.85,-85.7C696.24,-71.99 663.66,-55.2 639.83,-42.92"/>
</g>
</g>
</svg>
