<?xml version="1.0" encoding="UTF-8" standalone="no"?>
<!DOCTYPE svg PUBLIC "-//W3C//DTD SVG 1.1//EN"
 "http://www.w3.org/Graphics/SVG/1.1/DTD/svg11.dtd">
<!-- Generated by graphviz version 2.43.0 (0)
 -->
<!-- Title: network_compact_for_arp_spoofed_metasploit Pages: 1 -->
<svg width="443pt" height="159pt"
 viewBox="0.00 0.00 443.00 159.00" xmlns="http://www.w3.org/2000/svg" xmlns:xlink="http://www.w3.org/1999/xlink">
<g id="page0,1_graph0" class="graph" transform="scale(1 1) rotate(0) translate(4 155)">
<title>network_compact_for_arp_spoofed_metasploit</title>
<polygon fill="white" stroke="transparent" points="-4,4 -4,-155 439,-155 439,4 -4,4"/>
<!-- internet -->
<g id="node1" class="node">
<title>internet</title>
<text text-anchor="start" x="8" y="-122" font-family="Helvetica,sans-Serif" font-size="20.00"> </text>
<text text-anchor="start" x="15" y="-122" font-family="Helvetica,sans-Serif" font-weight="bold" font-size="20.00">Internet</text>
<text text-anchor="start" x="108" y="-122" font-family="Helvetica,sans-Serif" font-size="20.00"> </text>
</g>
<!-- firewall -->
<g id="node2" class="node">
<title>firewall</title>
<path fill="none" stroke="black" d="M318,-151C318,-151 171,-151 171,-151 165,-151 159,-145 159,-139 159,-139 159,-113 159,-113 159,-107 165,-101 171,-101 171,-101 318,-101 318,-101 324,-101 330,-107 330,-113 330,-113 330,-139 330,-139 330,-145 324,-151 318,-151"/>
<text text-anchor="start" x="175.5" y="-136.8" font-family="Helvetica,sans-Serif" font-size="14.00"> &lt;bridge IP&gt; (eth0)</text>
<text text-anchor="start" x="215" y="-122.8" font-family="Helvetica,sans-Serif" font-weight="bold" font-size="14.00">firewall</text>
<text text-anchor="start" x="167" y="-108.8" font-family="Helvetica,sans-Serif" font-size="14.00">192.168.100.1 (eth1) </text>
</g>
<!-- internet&#45;&gt;firewall -->
<g id="edge1" class="edge">
<title>internet&#45;&gt;firewall</title>
<path fill="none" stroke="black" d="M123.33,-126C135.17,-126 147,-126 158.83,-126"/>
</g>
<!-- outer1 -->
<g id="node3" class="node">
<title>outer1</title>
<path fill="none" stroke="black" d="M178,-50C178,-50 13,-50 13,-50 7,-50 1,-44 1,-38 1,-38 1,-12 1,-12 1,-6 7,0 13,0 13,0 178,0 178,0 184,0 190,-6 190,-12 190,-12 190,-38 190,-38 190,-44 184,-50 178,-50"/>
<text text-anchor="start" x="9" y="-35.8" font-family="Helvetica,sans-Serif" font-size="14.00"> 192.168.100.101 (eth1)</text>
<text text-anchor="start" x="69" y="-21.8" font-family="Helvetica,sans-Serif" font-weight="bold" font-size="14.00">outer1</text>
<text text-anchor="start" x="90.5" y="-7.8" font-family="Helvetica,sans-Serif" font-size="14.00"> &#160;</text>
</g>
<!-- firewall&#45;&gt;outer1 -->
<g id="edge3" class="edge">
<title>firewall&#45;&gt;outer1</title>
<path fill="none" stroke="red" stroke-width="2" d="M199.65,-95.2C180.84,-82.7 159.02,-68.21 140.23,-55.72"/>
<polygon fill="red" stroke="red" stroke-width="2" points="197.78,-98.16 208.05,-100.78 201.66,-92.33 197.78,-98.16"/>
<polygon fill="red" stroke="red" stroke-width="2" points="142.1,-52.76 131.83,-50.14 138.22,-58.59 142.1,-52.76"/>
<text text-anchor="middle" x="207.5" y="-71.8" font-family="Helvetica,sans-Serif" font-size="14.00" fill="red">spoofed</text>
</g>
<!-- metasploit -->
<g id="node4" class="node">
<title>metasploit</title>
<path fill="none" stroke="black" d="M423,-50C423,-50 276,-50 276,-50 270,-50 264,-44 264,-38 264,-38 264,-12 264,-12 264,-6 270,0 276,0 276,0 423,0 423,0 429,0 435,-6 435,-12 435,-12 435,-38 435,-38 435,-44 429,-50 423,-50"/>
<text text-anchor="start" x="272" y="-35.8" font-family="Helvetica,sans-Serif" font-size="14.00"> 192.168.100.3 (eth1)</text>
<text text-anchor="start" x="307" y="-21.8" font-family="Helvetica,sans-Serif" font-weight="bold" font-size="14.00">metasploit</text>
<text text-anchor="start" x="344.5" y="-7.8" font-family="Helvetica,sans-Serif" font-size="14.00"> &#160;</text>
</g>
<!-- firewall&#45;&gt;metasploit -->
<g id="edge2" class="edge">
<title>firewall&#45;&gt;metasploit</title>
<path fill="none" stroke="green" stroke-width="2" d="M277.71,-93.69C290.02,-82.08 303.98,-68.92 316.29,-57.31"/>
<polygon fill="green" stroke="green" stroke-width="2" points="275.06,-91.38 270.19,-100.78 279.86,-96.47 275.06,-91.38"/>
<polygon fill="green" stroke="green" stroke-width="2" points="318.84,-59.72 323.72,-50.31 314.04,-54.62 318.84,-59.72"/>
<text text-anchor="middle" x="327" y="-71.8" font-family="Helvetica,sans-Serif" font-size="14.00" fill="green">normal</text>
</g>
<!-- outer1&#45;&gt;metasploit -->
<g id="edge4" class="edge">
<title>outer1&#45;&gt;metasploit</title>
<path fill="none" stroke="red" stroke-width="2" d="M200.34,-25C217.95,-25 236.15,-25 253.52,-25"/>
<polygon fill="red" stroke="red" stroke-width="2" points="200.08,-21.5 190.08,-25 200.08,-28.5 200.08,-21.5"/>
<polygon fill="red" stroke="red" stroke-width="2" points="253.65,-28.5 263.65,-25 253.65,-21.5 253.65,-28.5"/>
<text text-anchor="middle" x="227" y="-31.8" font-family="Helvetica,sans-Serif" font-size="14.00" fill="red">spoofed</text>
</g>
</g>
</svg>
