<?xml version="1.0" encoding="UTF-8" standalone="no"?>
<!DOCTYPE svg PUBLIC "-//W3C//DTD SVG 1.1//EN"
 "http://www.w3.org/Graphics/SVG/1.1/DTD/svg11.dtd">
<!-- Generated by graphviz version 2.43.0 (0)
 -->
<!-- Title: network_compact Pages: 1 -->
<svg width="1158pt" height="316pt"
 viewBox="0.00 0.00 1158.00 316.00" xmlns="http://www.w3.org/2000/svg" xmlns:xlink="http://www.w3.org/1999/xlink">
<g id="page0,1_graph0" class="graph" transform="scale(1 1) rotate(0) translate(4 312)">
<title>network_compact</title>
<polygon fill="white" stroke="transparent" points="-4,4 -4,-312 1154,-312 1154,4 -4,4"/>
<!-- outer_network -->
<g id="node1" class="node">
<title>outer_network</title>
<ellipse fill="none" stroke="black" cx="508.5" cy="-204" rx="161.37" ry="18"/>
<text text-anchor="middle" x="508.5" y="-200.3" font-family="Helvetica,sans-Serif" font-size="14.00">outernet network: 192.168.100.x</text>
</g>
<!-- outer1 -->
<g id="node6" class="node">
<title>outer1</title>
<path fill="none" stroke="black" d="M177,-143C177,-143 12,-143 12,-143 6,-143 0,-137 0,-131 0,-131 0,-105 0,-105 0,-99 6,-93 12,-93 12,-93 177,-93 177,-93 183,-93 189,-99 189,-105 189,-105 189,-131 189,-131 189,-137 183,-143 177,-143"/>
<text text-anchor="start" x="8" y="-128.8" font-family="Helvetica,sans-Serif" font-size="14.00"> 192.168.100.101 (eth0)</text>
<text text-anchor="start" x="68" y="-114.8" font-family="Helvetica,sans-Serif" font-weight="bold" font-size="14.00">outer1</text>
<text text-anchor="start" x="89.5" y="-100.8" font-family="Helvetica,sans-Serif" font-size="14.00"> &#160;</text>
</g>
<!-- outer_network&#45;&#45;outer1 -->
<g id="edge3" class="edge">
<title>outer_network&#45;&#45;outer1</title>
<path fill="none" stroke="black" d="M411.22,-189.58C349.59,-180.3 268.42,-166.65 197.5,-150 188.68,-147.93 179.51,-145.53 170.43,-143"/>
</g>
<!-- outer2 -->
<g id="node7" class="node">
<title>outer2</title>
<path fill="none" stroke="black" d="M384,-143C384,-143 219,-143 219,-143 213,-143 207,-137 207,-131 207,-131 207,-105 207,-105 207,-99 213,-93 219,-93 219,-93 384,-93 384,-93 390,-93 396,-99 396,-105 396,-105 396,-131 396,-131 396,-137 390,-143 384,-143"/>
<text text-anchor="start" x="215" y="-128.8" font-family="Helvetica,sans-Serif" font-size="14.00"> 192.168.100.102 (eth0)</text>
<text text-anchor="start" x="275" y="-114.8" font-family="Helvetica,sans-Serif" font-weight="bold" font-size="14.00">outer2</text>
<text text-anchor="start" x="296.5" y="-100.8" font-family="Helvetica,sans-Serif" font-size="14.00"> &#160;</text>
</g>
<!-- outer_network&#45;&#45;outer2 -->
<g id="edge4" class="edge">
<title>outer_network&#45;&#45;outer2</title>
<path fill="none" stroke="black" d="M467.6,-186.4C437.09,-174.02 394.94,-156.92 360.74,-143.04"/>
</g>
<!-- outer3 -->
<g id="node8" class="node">
<title>outer3</title>
<path fill="none" stroke="black" d="M591,-143C591,-143 426,-143 426,-143 420,-143 414,-137 414,-131 414,-131 414,-105 414,-105 414,-99 420,-93 426,-93 426,-93 591,-93 591,-93 597,-93 603,-99 603,-105 603,-105 603,-131 603,-131 603,-137 597,-143 591,-143"/>
<text text-anchor="start" x="422" y="-128.8" font-family="Helvetica,sans-Serif" font-size="14.00"> 192.168.100.103 (eth0)</text>
<text text-anchor="start" x="482" y="-114.8" font-family="Helvetica,sans-Serif" font-weight="bold" font-size="14.00">outer3</text>
<text text-anchor="start" x="503.5" y="-100.8" font-family="Helvetica,sans-Serif" font-size="14.00"> &#160;</text>
</g>
<!-- outer_network&#45;&#45;outer3 -->
<g id="edge5" class="edge">
<title>outer_network&#45;&#45;outer3</title>
<path fill="none" stroke="black" d="M508.5,-185.6C508.5,-173.29 508.5,-156.64 508.5,-143.07"/>
</g>
<!-- gateway -->
<g id="node9" class="node">
<title>gateway</title>
<path fill="none" stroke="black" d="M780,-150C780,-150 633,-150 633,-150 627,-150 621,-144 621,-138 621,-138 621,-98 621,-98 621,-92 627,-86 633,-86 633,-86 780,-86 780,-86 786,-86 792,-92 792,-98 792,-98 792,-138 792,-138 792,-144 786,-150 780,-150"/>
<text text-anchor="start" x="629" y="-135.8" font-family="Helvetica,sans-Serif" font-size="14.00"> 192.168.100.2 (eth2)</text>
<text text-anchor="start" x="673" y="-121.8" font-family="Helvetica,sans-Serif" font-weight="bold" font-size="14.00">gateway</text>
<text text-anchor="start" x="631" y="-107.8" font-family="Helvetica,sans-Serif" font-size="14.00">192.168.200.1 (eth0)</text>
<text text-anchor="start" x="629" y="-93.8" font-family="Helvetica,sans-Serif" font-size="14.00">192.168.150.1 (eth1) </text>
</g>
<!-- outer_network&#45;&#45;gateway -->
<g id="edge8" class="edge">
<title>outer_network&#45;&#45;gateway</title>
<path fill="none" stroke="black" d="M547.62,-186.4C572.07,-176.03 604.34,-162.34 633.4,-150.01"/>
</g>
<!-- metasploit -->
<g id="node10" class="node">
<title>metasploit</title>
<path fill="none" stroke="black" d="M969,-143C969,-143 822,-143 822,-143 816,-143 810,-137 810,-131 810,-131 810,-105 810,-105 810,-99 816,-93 822,-93 822,-93 969,-93 969,-93 975,-93 981,-99 981,-105 981,-105 981,-131 981,-131 981,-137 975,-143 969,-143"/>
<text text-anchor="start" x="818" y="-128.8" font-family="Helvetica,sans-Serif" font-size="14.00"> 192.168.100.3 (eth1)</text>
<text text-anchor="start" x="853" y="-114.8" font-family="Helvetica,sans-Serif" font-weight="bold" font-size="14.00">metasploit</text>
<text text-anchor="start" x="818" y="-100.8" font-family="Helvetica,sans-Serif" font-size="14.00">192.168.200.2 (eth0) </text>
</g>
<!-- outer_network&#45;&#45;metasploit -->
<g id="edge6" class="edge">
<title>outer_network&#45;&#45;metasploit</title>
<path fill="none" stroke="black" d="M602.23,-189.31C659.85,-180.08 734.94,-166.57 800.5,-150 808.66,-147.94 817.13,-145.55 825.52,-143.02"/>
</g>
<!-- inner_network -->
<g id="node2" class="node">
<title>inner_network</title>
<ellipse fill="none" stroke="black" cx="800.5" cy="-25" rx="160.57" ry="18"/>
<text text-anchor="middle" x="800.5" y="-21.3" font-family="Helvetica,sans-Serif" font-size="14.00">innernet network: 192.168.200.x</text>
</g>
<!-- inner -->
<g id="node11" class="node">
<title>inner</title>
<path fill="none" stroke="black" d="M1138,-50C1138,-50 991,-50 991,-50 985,-50 979,-44 979,-38 979,-38 979,-12 979,-12 979,-6 985,0 991,0 991,0 1138,0 1138,0 1144,0 1150,-6 1150,-12 1150,-12 1150,-38 1150,-38 1150,-44 1144,-50 1138,-50"/>
<text text-anchor="start" x="987" y="-35.8" font-family="Helvetica,sans-Serif" font-size="14.00"> 192.168.200.3 (eth0)</text>
<text text-anchor="start" x="1044" y="-21.8" font-family="Helvetica,sans-Serif" font-weight="bold" font-size="14.00">inner</text>
<text text-anchor="start" x="1059.5" y="-7.8" font-family="Helvetica,sans-Serif" font-size="14.00"> &#160;</text>
</g>
<!-- inner_network&#45;&#45;inner -->
<g id="edge10" class="edge">
<title>inner_network&#45;&#45;inner</title>
<path fill="none" stroke="black" d="M961.12,-25C967.04,-25 972.96,-25 978.89,-25"/>
</g>
<!-- other_network -->
<g id="node3" class="node">
<title>other_network</title>
<ellipse fill="none" stroke="black" cx="230.5" cy="-25" rx="161.37" ry="18"/>
<text text-anchor="middle" x="230.5" y="-21.3" font-family="Helvetica,sans-Serif" font-size="14.00">othernet network: 192.168.150.x</text>
</g>
<!-- other_network&#45;&#45;gateway -->
<g id="edge11" class="edge">
<title>other_network&#45;&#45;gateway</title>
<path fill="none" stroke="black" d="M327.31,-39.45C421.91,-52.92 559.09,-73.41 611.5,-86 614.62,-86.75 617.79,-87.55 620.97,-88.4"/>
</g>
<!-- other -->
<g id="node12" class="node">
<title>other</title>
<path fill="none" stroke="black" d="M569,-50C569,-50 422,-50 422,-50 416,-50 410,-44 410,-38 410,-38 410,-12 410,-12 410,-6 416,0 422,0 422,0 569,0 569,0 575,0 581,-6 581,-12 581,-12 581,-38 581,-38 581,-44 575,-50 569,-50"/>
<text text-anchor="start" x="418" y="-35.8" font-family="Helvetica,sans-Serif" font-size="14.00"> 192.168.150.2 (eth0)</text>
<text text-anchor="start" x="474" y="-21.8" font-family="Helvetica,sans-Serif" font-weight="bold" font-size="14.00">other</text>
<text text-anchor="start" x="490.5" y="-7.8" font-family="Helvetica,sans-Serif" font-size="14.00"> &#160;</text>
</g>
<!-- other_network&#45;&#45;other -->
<g id="edge12" class="edge">
<title>other_network&#45;&#45;other</title>
<path fill="none" stroke="black" d="M391.73,-25C397.81,-25 403.89,-25 409.97,-25"/>
</g>
<!-- internet -->
<g id="node4" class="node">
<title>internet</title>
<text text-anchor="start" x="290" y="-279" font-family="Helvetica,sans-Serif" font-size="20.00"> </text>
<text text-anchor="start" x="297" y="-279" font-family="Helvetica,sans-Serif" font-weight="bold" font-size="20.00">Internet</text>
<text text-anchor="start" x="390" y="-279" font-family="Helvetica,sans-Serif" font-size="20.00"> </text>
</g>
<!-- firewall -->
<g id="node5" class="node">
<title>firewall</title>
<path fill="none" stroke="black" d="M582,-308C582,-308 435,-308 435,-308 429,-308 423,-302 423,-296 423,-296 423,-270 423,-270 423,-264 429,-258 435,-258 435,-258 582,-258 582,-258 588,-258 594,-264 594,-270 594,-270 594,-296 594,-296 594,-302 588,-308 582,-308"/>
<text text-anchor="start" x="439.5" y="-293.8" font-family="Helvetica,sans-Serif" font-size="14.00"> &lt;bridge IP&gt; (eth0)</text>
<text text-anchor="start" x="479" y="-279.8" font-family="Helvetica,sans-Serif" font-weight="bold" font-size="14.00">firewall</text>
<text text-anchor="start" x="431" y="-265.8" font-family="Helvetica,sans-Serif" font-size="14.00">192.168.100.1 (eth1) </text>
</g>
<!-- internet&#45;&#45;firewall -->
<g id="edge1" class="edge">
<title>internet&#45;&#45;firewall</title>
<path fill="none" stroke="black" d="M405.05,-283C410.98,-283 416.91,-283 422.83,-283"/>
</g>
<!-- firewall&#45;&#45;outer_network -->
<g id="edge2" class="edge">
<title>firewall&#45;&#45;outer_network</title>
<path fill="none" stroke="black" d="M508.5,-257.64C508.5,-246.18 508.5,-232.79 508.5,-222.38"/>
</g>
<!-- outer1&#45;&#45;other_network -->
<g id="edge13" class="edge">
<title>outer1&#45;&#45;other_network</title>
<path fill="none" stroke="black" d="M130.59,-92.85C154.04,-77.16 184.04,-57.09 205.02,-43.05"/>
</g>
<!-- gateway&#45;&#45;inner_network -->
<g id="edge9" class="edge">
<title>gateway&#45;&#45;inner_network</title>
<path fill="none" stroke="black" d="M738.59,-85.94C753.37,-71.62 770.35,-55.18 782.79,-43.15"/>
</g>
<!-- metasploit&#45;&#45;inner_network -->
<g id="edge7" class="edge">
<title>metasploit&#45;&#45;inner_network</title>
<path fill="none" stroke="black" d="M870.04,-92.61C853.66,-76.92 832.79,-56.93 818.21,-42.96"/>
</g>
</g>
</svg>
