<?xml version="1.0" encoding="UTF-8" standalone="no"?>
<!DOCTYPE svg PUBLIC "-//W3C//DTD SVG 1.1//EN"
 "http://www.w3.org/Graphics/SVG/1.1/DTD/svg11.dtd">
<!-- Generated by graphviz version 10.0.1 (20240210.2158)
 -->
<!-- Title: network_digram_for_sshmitm Pages: 1 -->
<svg width="229pt" height="260pt"
 viewBox="0.00 0.00 228.75 260.00" xmlns="http://www.w3.org/2000/svg" xmlns:xlink="http://www.w3.org/1999/xlink">
<g id="page0,1_graph0" class="graph" transform="scale(1 1) rotate(0) translate(4 256)">
<title>network_digram_for_sshmitm</title>
<polygon fill="white" stroke="none" points="-4,4 -4,-256 224.75,-256 224.75,4 -4,4"/>
<!-- outer2 -->
<g id="node1" class="node">
<title>outer2</title>
<path fill="none" stroke="black" d="M206,-252C206,-252 70,-252 70,-252 64,-252 58,-246 58,-240 58,-240 58,-214 58,-214 58,-208 64,-202 70,-202 70,-202 206,-202 206,-202 212,-202 218,-208 218,-214 218,-214 218,-240 218,-240 218,-246 212,-252 206,-252"/>
<text text-anchor="start" x="66" y="-235.7" font-family="Helvetica,sans-Serif" font-size="14.00"> 192.168.100.102 (eth0)</text>
<text text-anchor="start" x="117.38" y="-221.7" font-family="Helvetica,sans-Serif" font-weight="bold" font-size="14.00">outer2</text>
<text text-anchor="start" x="114" y="-207.7" font-family="Helvetica,sans-Serif" font-size="14.00">(client) &#160;</text>
</g>
<!-- outer1 -->
<g id="node2" class="node">
<title>outer1</title>
<path fill="none" stroke="black" d="M148,-151C148,-151 12,-151 12,-151 6,-151 0,-145 0,-139 0,-139 0,-113 0,-113 0,-107 6,-101 12,-101 12,-101 148,-101 148,-101 154,-101 160,-107 160,-113 160,-113 160,-139 160,-139 160,-145 154,-151 148,-151"/>
<text text-anchor="start" x="8" y="-134.7" font-family="Helvetica,sans-Serif" font-size="14.00"> 192.168.100.101 (eth1)</text>
<text text-anchor="start" x="16.25" y="-120.7" font-family="Helvetica,sans-Serif" font-weight="bold" font-size="14.00">outer1 | outer3mitm</text>
<text text-anchor="start" x="13.62" y="-106.7" font-family="Helvetica,sans-Serif" font-size="14.00">192.168.150.3 (eth0) &#160;</text>
</g>
<!-- outer2&#45;&gt;outer1 -->
<g id="edge3" class="edge">
<title>outer2&#45;&gt;outer1</title>
<path fill="none" stroke="red" stroke-width="2" d="M123.66,-201.53C116.71,-189.66 108.23,-175.19 100.6,-162.16"/>
<polygon fill="red" stroke="red" stroke-width="2" points="103.78,-160.66 95.7,-153.8 97.74,-164.2 103.78,-160.66"/>
<text text-anchor="middle" x="137" y="-170.7" font-family="Helvetica,sans-Serif" font-size="14.00" fill="red">spoofed</text>
</g>
<!-- outer3 -->
<g id="node3" class="node">
<title>outer3</title>
<path fill="none" stroke="black" d="M206,-50C206,-50 70,-50 70,-50 64,-50 58,-44 58,-38 58,-38 58,-12 58,-12 58,-6 64,0 70,0 70,0 206,0 206,0 212,0 218,-6 218,-12 218,-12 218,-38 218,-38 218,-44 212,-50 206,-50"/>
<text text-anchor="start" x="66" y="-33.7" font-family="Helvetica,sans-Serif" font-size="14.00"> 192.168.100.103 (eth0)</text>
<text text-anchor="start" x="117.38" y="-19.7" font-family="Helvetica,sans-Serif" font-weight="bold" font-size="14.00">outer3</text>
<text text-anchor="start" x="112.88" y="-5.7" font-family="Helvetica,sans-Serif" font-size="14.00">(server) </text>
</g>
<!-- outer2&#45;&gt;outer3 -->
<g id="edge2" class="edge">
<title>outer2&#45;&gt;outer3</title>
<path fill="none" stroke="green" stroke-width="2" d="M156.24,-201.65C159.65,-196.09 162.82,-190.03 165,-184 177.52,-149.26 175.41,-137.37 169,-101 166.65,-87.68 161.71,-73.8 156.44,-61.66"/>
<polygon fill="green" stroke="green" stroke-width="2" points="159.78,-60.55 152.42,-52.93 153.42,-63.48 159.78,-60.55"/>
<text text-anchor="middle" x="197.88" y="-120.2" font-family="Helvetica,sans-Serif" font-size="14.00" fill="green"> normal</text>
</g>
<!-- outer1&#45;&gt;outer3 -->
<g id="edge1" class="edge">
<title>outer1&#45;&gt;outer3</title>
<path fill="none" stroke="black" stroke-width="2" d="M94.34,-100.53C101.29,-88.66 109.77,-74.19 117.4,-61.16"/>
<polygon fill="black" stroke="black" stroke-width="2" points="120.26,-63.2 122.3,-52.8 114.22,-59.66 120.26,-63.2"/>
<text text-anchor="middle" x="132.88" y="-69.7" font-family="Helvetica,sans-Serif" font-size="14.00"> MITM</text>
</g>
</g>
</svg>
