<?xml version="1.0" encoding="UTF-8" standalone="no"?>
<!DOCTYPE svg PUBLIC "-//W3C//DTD SVG 1.1//EN"
 "http://www.w3.org/Graphics/SVG/1.1/DTD/svg11.dtd">
<!-- Generated by graphviz version 2.43.0 (0)
 -->
<!-- Title: network Pages: 1 -->
<svg width="989pt" height="460pt"
 viewBox="0.00 0.00 989.00 460.00" xmlns="http://www.w3.org/2000/svg" xmlns:xlink="http://www.w3.org/1999/xlink">
<g id="graph0" class="graph" transform="scale(1 1) rotate(0) translate(4 456)">
<title>network</title>
<polygon fill="white" stroke="transparent" points="-4,4 -4,-456 985,-456 985,4 -4,4"/>
<!-- outer_network -->
<g id="node1" class="node">
<title>outer_network</title>
<ellipse fill="none" stroke="black" cx="508.5" cy="-276" rx="161.37" ry="18"/>
<text text-anchor="middle" x="508.5" y="-272.3" font-family="Helvetica,sans-Serif" font-size="14.00">outernet network: 192.168.100.x</text>
</g>
<!-- outer1 -->
<g id="node6" class="node">
<title>outer1</title>
<path fill="none" stroke="black" d="M177,-215C177,-215 12,-215 12,-215 6,-215 0,-209 0,-203 0,-203 0,-177 0,-177 0,-171 6,-165 12,-165 12,-165 177,-165 177,-165 183,-165 189,-171 189,-177 189,-177 189,-203 189,-203 189,-209 183,-215 177,-215"/>
<text text-anchor="start" x="8" y="-200.8" font-family="Helvetica,sans-Serif" font-size="14.00"> 192.168.100.101 (eth1)</text>
<text text-anchor="start" x="68" y="-186.8" font-family="Helvetica,sans-Serif" font-weight="bold" font-size="14.00">outer1</text>
<text text-anchor="start" x="17" y="-172.8" font-family="Helvetica,sans-Serif" font-size="14.00">192.168.150.3 (eth0) </text>
</g>
<!-- outer_network&#45;&#45;outer1 -->
<g id="edge3" class="edge">
<title>outer_network&#45;&#45;outer1</title>
<path fill="none" stroke="black" d="M411.22,-261.58C349.59,-252.3 268.42,-238.65 197.5,-222 188.68,-219.93 179.51,-217.53 170.43,-215"/>
</g>
<!-- outer2 -->
<g id="node7" class="node">
<title>outer2</title>
<path fill="none" stroke="black" d="M384,-215C384,-215 219,-215 219,-215 213,-215 207,-209 207,-203 207,-203 207,-177 207,-177 207,-171 213,-165 219,-165 219,-165 384,-165 384,-165 390,-165 396,-171 396,-177 396,-177 396,-203 396,-203 396,-209 390,-215 384,-215"/>
<text text-anchor="start" x="215" y="-200.8" font-family="Helvetica,sans-Serif" font-size="14.00"> 192.168.100.102 (eth0)</text>
<text text-anchor="start" x="275" y="-186.8" font-family="Helvetica,sans-Serif" font-weight="bold" font-size="14.00">outer2</text>
<text text-anchor="start" x="299" y="-172.8" font-family="Helvetica,sans-Serif" font-size="14.00"> </text>
</g>
<!-- outer_network&#45;&#45;outer2 -->
<g id="edge4" class="edge">
<title>outer_network&#45;&#45;outer2</title>
<path fill="none" stroke="black" d="M467.6,-258.4C437.09,-246.02 394.94,-228.92 360.74,-215.04"/>
</g>
<!-- outer3 -->
<g id="node8" class="node">
<title>outer3</title>
<path fill="none" stroke="black" d="M591,-215C591,-215 426,-215 426,-215 420,-215 414,-209 414,-203 414,-203 414,-177 414,-177 414,-171 420,-165 426,-165 426,-165 591,-165 591,-165 597,-165 603,-171 603,-177 603,-177 603,-203 603,-203 603,-209 597,-215 591,-215"/>
<text text-anchor="start" x="422" y="-200.8" font-family="Helvetica,sans-Serif" font-size="14.00"> 192.168.100.103 (eth0)</text>
<text text-anchor="start" x="482" y="-186.8" font-family="Helvetica,sans-Serif" font-weight="bold" font-size="14.00">outer3</text>
<text text-anchor="start" x="506" y="-172.8" font-family="Helvetica,sans-Serif" font-size="14.00"> </text>
</g>
<!-- outer_network&#45;&#45;outer3 -->
<g id="edge5" class="edge">
<title>outer_network&#45;&#45;outer3</title>
<path fill="none" stroke="black" d="M508.5,-257.6C508.5,-245.29 508.5,-228.64 508.5,-215.07"/>
</g>
<!-- gateway -->
<g id="node9" class="node">
<title>gateway</title>
<path fill="none" stroke="black" d="M780,-222C780,-222 633,-222 633,-222 627,-222 621,-216 621,-210 621,-210 621,-170 621,-170 621,-164 627,-158 633,-158 633,-158 780,-158 780,-158 786,-158 792,-164 792,-170 792,-170 792,-210 792,-210 792,-216 786,-222 780,-222"/>
<text text-anchor="start" x="629" y="-207.8" font-family="Helvetica,sans-Serif" font-size="14.00"> 192.168.100.2 (eth2)</text>
<text text-anchor="start" x="673" y="-193.8" font-family="Helvetica,sans-Serif" font-weight="bold" font-size="14.00">gateway</text>
<text text-anchor="start" x="631" y="-179.8" font-family="Helvetica,sans-Serif" font-size="14.00">192.168.200.1 (eth0)</text>
<text text-anchor="start" x="629" y="-165.8" font-family="Helvetica,sans-Serif" font-size="14.00">192.168.150.1 (eth1) </text>
</g>
<!-- outer_network&#45;&#45;gateway -->
<g id="edge8" class="edge">
<title>outer_network&#45;&#45;gateway</title>
<path fill="none" stroke="black" d="M547.62,-258.4C572.07,-248.03 604.34,-234.34 633.4,-222.01"/>
</g>
<!-- metasploit -->
<g id="node10" class="node">
<title>metasploit</title>
<path fill="none" stroke="black" d="M969,-215C969,-215 822,-215 822,-215 816,-215 810,-209 810,-203 810,-203 810,-177 810,-177 810,-171 816,-165 822,-165 822,-165 969,-165 969,-165 975,-165 981,-171 981,-177 981,-177 981,-203 981,-203 981,-209 975,-215 969,-215"/>
<text text-anchor="start" x="818" y="-200.8" font-family="Helvetica,sans-Serif" font-size="14.00"> 192.168.100.3 (eth1)</text>
<text text-anchor="start" x="853" y="-186.8" font-family="Helvetica,sans-Serif" font-weight="bold" font-size="14.00">metasploit</text>
<text text-anchor="start" x="818" y="-172.8" font-family="Helvetica,sans-Serif" font-size="14.00">192.168.200.2 (eth0) </text>
</g>
<!-- outer_network&#45;&#45;metasploit -->
<g id="edge6" class="edge">
<title>outer_network&#45;&#45;metasploit</title>
<path fill="none" stroke="black" d="M602.23,-261.31C659.85,-252.08 734.94,-238.57 800.5,-222 808.66,-219.94 817.13,-217.55 825.52,-215.02"/>
</g>
<!-- inner_network -->
<g id="node2" class="node">
<title>inner_network</title>
<ellipse fill="none" stroke="black" cx="800.5" cy="-104" rx="160.57" ry="18"/>
<text text-anchor="middle" x="800.5" y="-100.3" font-family="Helvetica,sans-Serif" font-size="14.00">innernet network: 192.168.200.x</text>
</g>
<!-- inner -->
<g id="node11" class="node">
<title>inner</title>
<path fill="none" stroke="black" d="M874,-50C874,-50 727,-50 727,-50 721,-50 715,-44 715,-38 715,-38 715,-12 715,-12 715,-6 721,0 727,0 727,0 874,0 874,0 880,0 886,-6 886,-12 886,-12 886,-38 886,-38 886,-44 880,-50 874,-50"/>
<text text-anchor="start" x="723" y="-35.8" font-family="Helvetica,sans-Serif" font-size="14.00"> 192.168.200.3 (eth0)</text>
<text text-anchor="start" x="780" y="-21.8" font-family="Helvetica,sans-Serif" font-weight="bold" font-size="14.00">inner</text>
<text text-anchor="start" x="798" y="-7.8" font-family="Helvetica,sans-Serif" font-size="14.00"> </text>
</g>
<!-- inner_network&#45;&#45;inner -->
<g id="edge10" class="edge">
<title>inner_network&#45;&#45;inner</title>
<path fill="none" stroke="black" d="M800.5,-85.91C800.5,-75.37 800.5,-61.68 800.5,-50.05"/>
</g>
<!-- other_network -->
<g id="node3" class="node">
<title>other_network</title>
<ellipse fill="none" stroke="black" cx="324.5" cy="-104" rx="161.37" ry="18"/>
<text text-anchor="middle" x="324.5" y="-100.3" font-family="Helvetica,sans-Serif" font-size="14.00">othernet network: 192.168.150.x</text>
</g>
<!-- other_network&#45;&#45;gateway -->
<g id="edge11" class="edge">
<title>other_network&#45;&#45;gateway</title>
<path fill="none" stroke="black" d="M416.62,-118.81C473.25,-128.1 547.05,-141.61 611.5,-158 614.61,-158.79 617.77,-159.63 620.95,-160.5"/>
</g>
<!-- other -->
<g id="node12" class="node">
<title>other</title>
<path fill="none" stroke="black" d="M398,-50C398,-50 251,-50 251,-50 245,-50 239,-44 239,-38 239,-38 239,-12 239,-12 239,-6 245,0 251,0 251,0 398,0 398,0 404,0 410,-6 410,-12 410,-12 410,-38 410,-38 410,-44 404,-50 398,-50"/>
<text text-anchor="start" x="247" y="-35.8" font-family="Helvetica,sans-Serif" font-size="14.00"> 192.168.150.2 (eth0)</text>
<text text-anchor="start" x="303" y="-21.8" font-family="Helvetica,sans-Serif" font-weight="bold" font-size="14.00">other</text>
<text text-anchor="start" x="322" y="-7.8" font-family="Helvetica,sans-Serif" font-size="14.00"> </text>
</g>
<!-- other_network&#45;&#45;other -->
<g id="edge12" class="edge">
<title>other_network&#45;&#45;other</title>
<path fill="none" stroke="black" d="M324.5,-85.91C324.5,-75.37 324.5,-61.68 324.5,-50.05"/>
</g>
<!-- internet -->
<g id="node4" class="node">
<title>internet</title>
<text text-anchor="start" x="455" y="-430" font-family="Helvetica,sans-Serif" font-size="20.00"> </text>
<text text-anchor="start" x="462" y="-430" font-family="Helvetica,sans-Serif" font-weight="bold" font-size="20.00">Internet</text>
<text text-anchor="start" x="555" y="-430" font-family="Helvetica,sans-Serif" font-size="20.00"> </text>
</g>
<!-- firewall -->
<g id="node5" class="node">
<title>firewall</title>
<path fill="none" stroke="black" d="M582,-380C582,-380 435,-380 435,-380 429,-380 423,-374 423,-368 423,-368 423,-342 423,-342 423,-336 429,-330 435,-330 435,-330 582,-330 582,-330 588,-330 594,-336 594,-342 594,-342 594,-368 594,-368 594,-374 588,-380 582,-380"/>
<text text-anchor="start" x="439.5" y="-365.8" font-family="Helvetica,sans-Serif" font-size="14.00"> &lt;bridge IP&gt; (eth0)</text>
<text text-anchor="start" x="479" y="-351.8" font-family="Helvetica,sans-Serif" font-weight="bold" font-size="14.00">firewall</text>
<text text-anchor="start" x="431" y="-337.8" font-family="Helvetica,sans-Serif" font-size="14.00">192.168.100.1 (eth1) </text>
</g>
<!-- internet&#45;&#45;firewall -->
<g id="edge1" class="edge">
<title>internet&#45;&#45;firewall</title>
<path fill="none" stroke="black" d="M508.5,-415.91C508.5,-405.37 508.5,-391.68 508.5,-380.05"/>
</g>
<!-- firewall&#45;&#45;outer_network -->
<g id="edge2" class="edge">
<title>firewall&#45;&#45;outer_network</title>
<path fill="none" stroke="black" d="M508.5,-329.64C508.5,-318.18 508.5,-304.79 508.5,-294.38"/>
</g>
<!-- outer1&#45;&#45;other_network -->
<g id="edge13" class="edge">
<title>outer1&#45;&#45;other_network</title>
<path fill="none" stroke="black" d="M160.41,-164.93C198.64,-150.97 245.78,-133.75 279.71,-121.36"/>
</g>
<!-- gateway&#45;&#45;inner_network -->
<g id="edge9" class="edge">
<title>gateway&#45;&#45;inner_network</title>
<path fill="none" stroke="black" d="M741.24,-157.96C754.83,-145.81 769.9,-132.34 781.44,-122.03"/>
</g>
<!-- metasploit&#45;&#45;inner_network -->
<g id="edge7" class="edge">
<title>metasploit&#45;&#45;inner_network</title>
<path fill="none" stroke="black" d="M868.28,-164.93C852.71,-151.16 833.56,-134.23 819.59,-121.88"/>
</g>
</g>
</svg>
