<?xml version="1.0" encoding="UTF-8" standalone="no"?>
<!DOCTYPE svg PUBLIC "-//W3C//DTD SVG 1.1//EN"
 "http://www.w3.org/Graphics/SVG/1.1/DTD/svg11.dtd">
<!-- Generated by graphviz version 2.43.0 (0)
 -->
<!-- Title: network_for_routing Pages: 1 -->
<svg width="386pt" height="420pt"
 viewBox="0.00 0.00 386.00 420.00" xmlns="http://www.w3.org/2000/svg" xmlns:xlink="http://www.w3.org/1999/xlink">
<g id="page0,1_graph0" class="graph" transform="scale(1 1) rotate(0) translate(4 416)">
<title>network_for_routing</title>
<polygon fill="white" stroke="transparent" points="-4,4 -4,-416 382,-416 382,4 -4,4"/>
<!-- firewall -->
<g id="node1" class="node">
<title>firewall</title>
<path fill="none" stroke="black" d="M267,-412C267,-412 120,-412 120,-412 114,-412 108,-406 108,-400 108,-400 108,-374 108,-374 108,-368 114,-362 120,-362 120,-362 267,-362 267,-362 273,-362 279,-368 279,-374 279,-374 279,-400 279,-400 279,-406 273,-412 267,-412"/>
<text text-anchor="start" x="124.5" y="-397.8" font-family="Helvetica,sans-Serif" font-size="14.00"> &lt;bridge IP&gt; (eth0)</text>
<text text-anchor="start" x="164" y="-383.8" font-family="Helvetica,sans-Serif" font-weight="bold" font-size="14.00">firewall</text>
<text text-anchor="start" x="116" y="-369.8" font-family="Helvetica,sans-Serif" font-size="14.00">192.168.100.1 (eth1) </text>
</g>
<!-- outer_network -->
<g id="node2" class="node">
<title>outer_network</title>
<ellipse fill="none" stroke="black" cx="193.5" cy="-307" rx="161.37" ry="18"/>
<text text-anchor="middle" x="193.5" y="-303.3" font-family="Helvetica,sans-Serif" font-size="14.00">outernet network: 192.168.100.x</text>
</g>
<!-- firewall&#45;&gt;outer_network -->
<g id="edge1" class="edge">
<title>firewall&#45;&gt;outer_network</title>
<path fill="none" stroke="black" d="M193.5,-351.7C193.5,-342.57 193.5,-333.09 193.5,-325.3"/>
<polygon fill="black" stroke="black" points="190,-351.75 193.5,-361.75 197,-351.75 190,-351.75"/>
</g>
<!-- outer1 -->
<g id="node3" class="node">
<title>outer1</title>
<path fill="none" stroke="black" d="M177,-231C177,-231 12,-231 12,-231 6,-231 0,-225 0,-219 0,-219 0,-193 0,-193 0,-187 6,-181 12,-181 12,-181 177,-181 177,-181 183,-181 189,-187 189,-193 189,-193 189,-219 189,-219 189,-225 183,-231 177,-231"/>
<text text-anchor="start" x="8" y="-216.8" font-family="Helvetica,sans-Serif" font-size="14.00"> 192.168.100.101 (eth1)</text>
<text text-anchor="start" x="68" y="-202.8" font-family="Helvetica,sans-Serif" font-weight="bold" font-size="14.00">outer1</text>
<text text-anchor="start" x="17" y="-188.8" font-family="Helvetica,sans-Serif" font-size="14.00">192.168.150.3 (eth0) </text>
</g>
<!-- outer_network&#45;&gt;outer1 -->
<g id="edge2" class="edge">
<title>outer_network&#45;&gt;outer1</title>
<path fill="none" stroke="red" d="M169.09,-281.59C153.71,-266.21 133.92,-246.42 118.59,-231.09"/>
<polygon fill="red" stroke="red" points="166.71,-284.16 176.26,-288.76 171.66,-279.21 166.71,-284.16"/>
<text text-anchor="middle" x="162.5" y="-259.8" font-family="Helvetica,sans-Serif" font-size="14.00" fill="red"> *</text>
</g>
<!-- other_network -->
<g id="node5" class="node">
<title>other_network</title>
<ellipse fill="none" stroke="black" cx="193.5" cy="-105" rx="161.37" ry="18"/>
<text text-anchor="middle" x="193.5" y="-101.3" font-family="Helvetica,sans-Serif" font-size="14.00">othernet network: 192.168.150.x</text>
</g>
<!-- outer1&#45;&gt;other_network -->
<g id="edge6" class="edge">
<title>outer1&#45;&gt;other_network</title>
<path fill="none" stroke="red" d="M126.12,-173.38C142.78,-156.72 162.55,-136.95 176.36,-123.14"/>
<polygon fill="red" stroke="red" points="123.31,-171.24 118.72,-180.78 128.26,-176.19 123.31,-171.24"/>
<text text-anchor="middle" x="160" y="-144.8" font-family="Helvetica,sans-Serif" font-size="14.00" fill="red">*</text>
</g>
<!-- gateway -->
<g id="node4" class="node">
<title>gateway</title>
<path fill="none" stroke="black" d="M366,-238C366,-238 219,-238 219,-238 213,-238 207,-232 207,-226 207,-226 207,-186 207,-186 207,-180 213,-174 219,-174 219,-174 366,-174 366,-174 372,-174 378,-180 378,-186 378,-186 378,-226 378,-226 378,-232 372,-238 366,-238"/>
<text text-anchor="start" x="215" y="-223.8" font-family="Helvetica,sans-Serif" font-size="14.00"> 192.168.100.2 (eth2)</text>
<text text-anchor="start" x="259" y="-209.8" font-family="Helvetica,sans-Serif" font-weight="bold" font-size="14.00">gateway</text>
<text text-anchor="start" x="217" y="-195.8" font-family="Helvetica,sans-Serif" font-size="14.00">192.168.200.1 (eth0)</text>
<text text-anchor="start" x="215" y="-181.8" font-family="Helvetica,sans-Serif" font-size="14.00">192.168.150.1 (eth1) </text>
</g>
<!-- gateway&#45;&gt;outer_network -->
<g id="edge3" class="edge">
<title>gateway&#45;&gt;outer_network</title>
<path fill="none" stroke="black" d="M261.46,-238.04C247.47,-252.03 231.19,-268.31 218.06,-281.44"/>
<polygon fill="black" stroke="black" points="215.34,-279.21 210.74,-288.76 220.29,-284.16 215.34,-279.21"/>
</g>
<!-- other_network&#45;&gt;gateway -->
<g id="edge4" class="edge">
<title>other_network&#45;&gt;gateway</title>
<path fill="none" stroke="black" d="M210.61,-123.11C222.61,-135.11 239.13,-151.63 254.2,-166.7"/>
<polygon fill="black" stroke="black" points="251.9,-169.35 261.45,-173.95 256.85,-164.4 251.9,-169.35"/>
</g>
<!-- other -->
<g id="node6" class="node">
<title>other</title>
<path fill="none" stroke="black" d="M267,-50C267,-50 120,-50 120,-50 114,-50 108,-44 108,-38 108,-38 108,-12 108,-12 108,-6 114,0 120,0 120,0 267,0 267,0 273,0 279,-6 279,-12 279,-12 279,-38 279,-38 279,-44 273,-50 267,-50"/>
<text text-anchor="start" x="116" y="-35.8" font-family="Helvetica,sans-Serif" font-size="14.00"> 192.168.150.2 (eth0)</text>
<text text-anchor="start" x="172" y="-21.8" font-family="Helvetica,sans-Serif" font-weight="bold" font-size="14.00">other</text>
<text text-anchor="start" x="191" y="-7.8" font-family="Helvetica,sans-Serif" font-size="14.00"> </text>
</g>
<!-- other_network&#45;&gt;other -->
<g id="edge5" class="edge">
<title>other_network&#45;&gt;other</title>
<path fill="none" stroke="black" d="M193.5,-76.67C193.5,-68 193.5,-58.49 193.5,-50.07"/>
<polygon fill="black" stroke="black" points="190,-76.69 193.5,-86.69 197,-76.69 190,-76.69"/>
</g>
</g>
</svg>
