<?xml version="1.0" encoding="UTF-8" standalone="no"?>
<!DOCTYPE svg PUBLIC "-//W3C//DTD SVG 1.1//EN"
 "http://www.w3.org/Graphics/SVG/1.1/DTD/svg11.dtd">
<!-- Generated by graphviz version 11.0.0 (20240428.1522)
 -->
<!-- Title: network_for_routing Pages: 1 -->
<svg width="332pt" height="390pt"
 viewBox="0.00 0.00 331.50 390.00" xmlns="http://www.w3.org/2000/svg" xmlns:xlink="http://www.w3.org/1999/xlink">
<g id="page0,1_graph0" class="graph" transform="scale(1 1) rotate(0) translate(4 386)">
<title>network_for_routing</title>
<polygon fill="white" stroke="none" points="-4,4 -4,-386 327.5,-386 327.5,4 -4,4"/>
<!-- firewall -->
<g id="node1" class="node">
<title>firewall</title>
<path fill="none" stroke="black" d="M225.5,-382C225.5,-382 104.5,-382 104.5,-382 98.5,-382 92.5,-376 92.5,-370 92.5,-370 92.5,-344 92.5,-344 92.5,-338 98.5,-332 104.5,-332 104.5,-332 225.5,-332 225.5,-332 231.5,-332 237.5,-338 237.5,-344 237.5,-344 237.5,-370 237.5,-370 237.5,-376 231.5,-382 225.5,-382"/>
<text text-anchor="start" x="108.38" y="-365.7" font-family="Helvetica,sans-Serif" font-size="14.00"> &lt;bridge IP&gt; (eth0)</text>
<text text-anchor="start" x="141.38" y="-351.7" font-family="Helvetica,sans-Serif" font-weight="bold" font-size="14.00">firewall</text>
<text text-anchor="start" x="100.5" y="-337.7" font-family="Helvetica,sans-Serif" font-size="14.00">192.168.100.1 (eth1) </text>
</g>
<!-- outer_network -->
<g id="node2" class="node">
<title>outer_network</title>
<ellipse fill="none" stroke="black" cx="165" cy="-278" rx="136.16" ry="18"/>
<text text-anchor="middle" x="165" y="-272.2" font-family="Helvetica,sans-Serif" font-size="14.00">outernet network: 192.168.100.x</text>
</g>
<!-- firewall&#45;&gt;outer_network -->
<g id="edge1" class="edge">
<title>firewall&#45;&gt;outer_network</title>
<path fill="none" stroke="black" d="M165,-320.19C165,-311.91 165,-303.45 165,-296.38"/>
<polygon fill="black" stroke="black" points="161.5,-320.12 165,-330.12 168.5,-320.12 161.5,-320.12"/>
</g>
<!-- outer3 -->
<g id="node3" class="node">
<title>outer3</title>
<path fill="none" stroke="black" d="M148,-209C148,-209 12,-209 12,-209 6,-209 0,-203 0,-197 0,-197 0,-171 0,-171 0,-165 6,-159 12,-159 12,-159 148,-159 148,-159 154,-159 160,-165 160,-171 160,-171 160,-197 160,-197 160,-203 154,-209 148,-209"/>
<text text-anchor="start" x="8" y="-192.7" font-family="Helvetica,sans-Serif" font-size="14.00"> 192.168.100.103 (eth1)</text>
<text text-anchor="start" x="59.38" y="-178.7" font-family="Helvetica,sans-Serif" font-weight="bold" font-size="14.00">outer3</text>
<text text-anchor="start" x="15.5" y="-164.7" font-family="Helvetica,sans-Serif" font-size="14.00">192.168.200.4 (eth0) </text>
</g>
<!-- outer_network&#45;&gt;outer3 -->
<g id="edge2" class="edge">
<title>outer_network&#45;&gt;outer3</title>
<path fill="none" stroke="red" d="M141.42,-251.48C129.2,-238.25 114.36,-222.19 102.33,-209.17"/>
<polygon fill="red" stroke="red" points="138.63,-253.61 147.99,-258.58 143.77,-248.86 138.63,-253.61"/>
<text text-anchor="middle" x="137.5" y="-228.7" font-family="Helvetica,sans-Serif" font-size="14.00" fill="red"> *</text>
</g>
<!-- inner_network -->
<g id="node5" class="node">
<title>inner_network</title>
<ellipse fill="none" stroke="black" cx="165" cy="-90" rx="135.68" ry="18"/>
<text text-anchor="middle" x="165" y="-84.2" font-family="Helvetica,sans-Serif" font-size="14.00">innernet network: 192.168.200.x</text>
</g>
<!-- outer3&#45;&gt;inner_network -->
<g id="edge6" class="edge">
<title>outer3&#45;&gt;inner_network</title>
<path fill="none" stroke="red" d="M109.84,-150.7C123.02,-136.44 137.98,-120.25 148.99,-108.33"/>
<polygon fill="red" stroke="red" points="107.58,-148 103.36,-157.72 112.72,-152.75 107.58,-148"/>
<text text-anchor="middle" x="135.62" y="-127.7" font-family="Helvetica,sans-Serif" font-size="14.00" fill="red">*</text>
</g>
<!-- gateway -->
<g id="node4" class="node">
<title>gateway</title>
<path fill="none" stroke="black" d="M311.5,-209C311.5,-209 190.5,-209 190.5,-209 184.5,-209 178.5,-203 178.5,-197 178.5,-197 178.5,-171 178.5,-171 178.5,-165 184.5,-159 190.5,-159 190.5,-159 311.5,-159 311.5,-159 317.5,-159 323.5,-165 323.5,-171 323.5,-171 323.5,-197 323.5,-197 323.5,-203 317.5,-209 311.5,-209"/>
<text text-anchor="start" x="186.5" y="-192.7" font-family="Helvetica,sans-Serif" font-size="14.00"> 192.168.100.2 (eth1)</text>
<text text-anchor="start" x="224" y="-178.7" font-family="Helvetica,sans-Serif" font-weight="bold" font-size="14.00">gateway</text>
<text text-anchor="start" x="186.5" y="-164.7" font-family="Helvetica,sans-Serif" font-size="14.00">192.168.200.1 (eth0) </text>
</g>
<!-- gateway&#45;&gt;outer_network -->
<g id="edge3" class="edge">
<title>gateway&#45;&gt;outer_network</title>
<path fill="none" stroke="black" d="M228.41,-209.17C216.23,-222.19 201.22,-238.25 188.86,-251.48"/>
<polygon fill="black" stroke="black" points="186.48,-248.89 182.21,-258.59 191.6,-253.67 186.48,-248.89"/>
</g>
<!-- inner_network&#45;&gt;gateway -->
<g id="edge4" class="edge">
<title>inner_network&#45;&gt;gateway</title>
<path fill="none" stroke="black" d="M181.2,-108.33C192.34,-120.25 207.48,-136.44 220.81,-150.7"/>
<polygon fill="black" stroke="black" points="217.99,-152.81 227.37,-157.72 223.1,-148.03 217.99,-152.81"/>
</g>
<!-- inner -->
<g id="node6" class="node">
<title>inner</title>
<path fill="none" stroke="black" d="M180,-36C180,-36 150,-36 150,-36 144,-36 138,-30 138,-24 138,-24 138,-12 138,-12 138,-6 144,0 150,0 150,0 180,0 180,0 186,0 192,-6 192,-12 192,-12 192,-24 192,-24 192,-30 186,-36 180,-36"/>
<text text-anchor="middle" x="165" y="-12.2" font-family="Helvetica,sans-Serif" font-size="14.00">inner</text>
</g>
<!-- inner_network&#45;&gt;inner -->
<g id="edge5" class="edge">
<title>inner_network&#45;&gt;inner</title>
<path fill="none" stroke="black" d="M165,-60.24C165,-52.04 165,-43.37 165,-36.1"/>
<polygon fill="black" stroke="black" points="161.5,-60.18 165,-70.18 168.5,-60.18 161.5,-60.18"/>
</g>
</g>
</svg>
