<?xml version="1.0" encoding="UTF-8" standalone="no"?>
<!DOCTYPE svg PUBLIC "-//W3C//DTD SVG 1.1//EN"
 "http://www.w3.org/Graphics/SVG/1.1/DTD/svg11.dtd">
<!-- Generated by graphviz version 9.0.0 (20230911.1827)
 -->
<!-- Title: network_for_routing Pages: 1 -->
<svg width="332pt" height="420pt"
 viewBox="0.00 0.00 331.50 420.00" xmlns="http://www.w3.org/2000/svg" xmlns:xlink="http://www.w3.org/1999/xlink">
<g id="page0,1_graph0" class="graph" transform="scale(1 1) rotate(0) translate(4 416)">
<title>network_for_routing</title>
<polygon fill="white" stroke="none" points="-4,4 -4,-416 327.5,-416 327.5,4 -4,4"/>
<!-- firewall -->
<g id="node1" class="node">
<title>firewall</title>
<polygon fill="none" stroke="black" points="237.5,-412 92.5,-412 92.5,-362 237.5,-362 237.5,-412"/>
<text text-anchor="start" x="108.38" y="-395.7" font-family="Helvetica,sans-Serif" font-size="14.00"> &lt;bridge IP&gt; (eth0)</text>
<text text-anchor="start" x="141.38" y="-381.7" font-family="Helvetica,sans-Serif" font-weight="bold" font-size="14.00">firewall</text>
<text text-anchor="start" x="100.5" y="-367.7" font-family="Helvetica,sans-Serif" font-size="14.00">192.168.100.1 (eth1) </text>
</g>
<!-- outer_network -->
<g id="node2" class="node">
<title>outer_network</title>
<ellipse fill="none" stroke="black" cx="165" cy="-307" rx="136.16" ry="18"/>
<text text-anchor="middle" x="165" y="-301.2" font-family="Helvetica,sans-Serif" font-size="14.00">outernet network: 192.168.100.x</text>
</g>
<!-- firewall&#45;&gt;outer_network -->
<g id="edge1" class="edge">
<title>firewall&#45;&gt;outer_network</title>
<path fill="none" stroke="black" d="M165,-350.52C165,-341.76 165,-332.76 165,-325.3"/>
<polygon fill="black" stroke="black" points="161.5,-350.23 165,-360.23 168.5,-350.23 161.5,-350.23"/>
</g>
<!-- outer1 -->
<g id="node3" class="node">
<title>outer1</title>
<polygon fill="none" stroke="black" points="160,-231 0,-231 0,-181 160,-181 160,-231"/>
<text text-anchor="start" x="8" y="-214.7" font-family="Helvetica,sans-Serif" font-size="14.00"> 192.168.100.101 (eth1)</text>
<text text-anchor="start" x="59.38" y="-200.7" font-family="Helvetica,sans-Serif" font-weight="bold" font-size="14.00">outer1</text>
<text text-anchor="start" x="15.5" y="-186.7" font-family="Helvetica,sans-Serif" font-size="14.00">192.168.150.3 (eth0) </text>
</g>
<!-- outer_network&#45;&gt;outer1 -->
<g id="edge2" class="edge">
<title>outer_network&#45;&gt;outer1</title>
<path fill="none" stroke="red" d="M143.01,-280.39C130.06,-265.31 113.78,-246.34 101,-231.46"/>
<polygon fill="red" stroke="red" points="140.04,-282.3 149.21,-287.61 145.35,-277.74 140.04,-282.3"/>
<text text-anchor="middle" x="137.5" y="-257.7" font-family="Helvetica,sans-Serif" font-size="14.00" fill="red"> *</text>
</g>
<!-- other_network -->
<g id="node5" class="node">
<title>other_network</title>
<ellipse fill="none" stroke="black" cx="165" cy="-105" rx="136.16" ry="18"/>
<text text-anchor="middle" x="165" y="-99.2" font-family="Helvetica,sans-Serif" font-size="14.00">othernet network: 192.168.150.x</text>
</g>
<!-- outer1&#45;&gt;other_network -->
<g id="edge6" class="edge">
<title>outer1&#45;&gt;other_network</title>
<path fill="none" stroke="red" d="M108.48,-171.83C122.42,-155.6 138.62,-136.73 150.1,-123.36"/>
<polygon fill="red" stroke="red" points="105.86,-169.51 102,-179.38 111.17,-174.07 105.86,-169.51"/>
<text text-anchor="middle" x="135.62" y="-142.7" font-family="Helvetica,sans-Serif" font-size="14.00" fill="red">*</text>
</g>
<!-- gateway -->
<g id="node4" class="node">
<title>gateway</title>
<polygon fill="none" stroke="black" points="323.5,-238 178.5,-238 178.5,-174 323.5,-174 323.5,-238"/>
<text text-anchor="start" x="186.5" y="-221.7" font-family="Helvetica,sans-Serif" font-size="14.00"> 192.168.100.2 (eth2)</text>
<text text-anchor="start" x="224" y="-207.7" font-family="Helvetica,sans-Serif" font-weight="bold" font-size="14.00">gateway</text>
<text text-anchor="start" x="188.38" y="-193.7" font-family="Helvetica,sans-Serif" font-size="14.00">192.168.200.1 (eth0)</text>
<text text-anchor="start" x="186.5" y="-179.7" font-family="Helvetica,sans-Serif" font-size="14.00">192.168.150.1 (eth1) </text>
</g>
<!-- gateway&#45;&gt;outer_network -->
<g id="edge3" class="edge">
<title>gateway&#45;&gt;outer_network</title>
<path fill="none" stroke="black" d="M223.69,-238.43C211.94,-251.97 198.37,-267.59 187.24,-280.4"/>
<polygon fill="black" stroke="black" points="184.89,-277.77 180.97,-287.61 190.17,-282.36 184.89,-277.77"/>
</g>
<!-- other_network&#45;&gt;gateway -->
<g id="edge4" class="edge">
<title>other_network&#45;&gt;gateway</title>
<path fill="none" stroke="black" d="M180.03,-123.3C190.11,-134.9 203.81,-150.67 216.48,-165.26"/>
<polygon fill="black" stroke="black" points="213.6,-167.28 222.8,-172.53 218.88,-162.69 213.6,-167.28"/>
</g>
<!-- other -->
<g id="node6" class="node">
<title>other</title>
<polygon fill="none" stroke="black" points="237.5,-50 92.5,-50 92.5,0 237.5,0 237.5,-50"/>
<text text-anchor="start" x="100.5" y="-33.7" font-family="Helvetica,sans-Serif" font-size="14.00"> 192.168.150.2 (eth0)</text>
<text text-anchor="start" x="148.12" y="-19.7" font-family="Helvetica,sans-Serif" font-weight="bold" font-size="14.00">other</text>
<text text-anchor="start" x="163.12" y="-5.7" font-family="Helvetica,sans-Serif" font-size="14.00"> </text>
</g>
<!-- other_network&#45;&gt;other -->
<g id="edge5" class="edge">
<title>other_network&#45;&gt;other</title>
<path fill="none" stroke="black" d="M165,-75.33C165,-67.13 165,-58.28 165,-50.36"/>
<polygon fill="black" stroke="black" points="161.5,-75.18 165,-85.18 168.5,-75.18 161.5,-75.18"/>
</g>
</g>
</svg>
