<?xml version="1.0" encoding="UTF-8" standalone="no"?>
<!DOCTYPE svg PUBLIC "-//W3C//DTD SVG 1.1//EN"
 "http://www.w3.org/Graphics/SVG/1.1/DTD/svg11.dtd">
<!-- Generated by graphviz version 2.43.0 (0)
 -->
<!-- Title: network_compact_for_arp_spoofed_outer2 Pages: 1 -->
<svg width="460pt" height="159pt"
 viewBox="0.00 0.00 460.00 159.00" xmlns="http://www.w3.org/2000/svg" xmlns:xlink="http://www.w3.org/1999/xlink">
<g id="page0,1_graph0" class="graph" transform="scale(1 1) rotate(0) translate(4 155)">
<title>network_compact_for_arp_spoofed_outer2</title>
<polygon fill="white" stroke="transparent" points="-4,4 -4,-155 456,-155 456,4 -4,4"/>
<!-- internet -->
<g id="node1" class="node">
<title>internet</title>
<text text-anchor="start" x="13" y="-122" font-family="Helvetica,sans-Serif" font-size="20.00"> </text>
<text text-anchor="start" x="20" y="-122" font-family="Helvetica,sans-Serif" font-weight="bold" font-size="20.00">Internet</text>
<text text-anchor="start" x="113" y="-122" font-family="Helvetica,sans-Serif" font-size="20.00"> </text>
</g>
<!-- firewall -->
<g id="node2" class="node">
<title>firewall</title>
<path fill="none" stroke="black" d="M323,-151C323,-151 176,-151 176,-151 170,-151 164,-145 164,-139 164,-139 164,-113 164,-113 164,-107 170,-101 176,-101 176,-101 323,-101 323,-101 329,-101 335,-107 335,-113 335,-113 335,-139 335,-139 335,-145 329,-151 323,-151"/>
<text text-anchor="start" x="180.5" y="-136.8" font-family="Helvetica,sans-Serif" font-size="14.00"> &lt;bridge IP&gt; (eth0)</text>
<text text-anchor="start" x="220" y="-122.8" font-family="Helvetica,sans-Serif" font-weight="bold" font-size="14.00">firewall</text>
<text text-anchor="start" x="172" y="-108.8" font-family="Helvetica,sans-Serif" font-size="14.00">192.168.100.1 (eth1) </text>
</g>
<!-- internet&#45;&gt;firewall -->
<g id="edge1" class="edge">
<title>internet&#45;&gt;firewall</title>
<path fill="none" stroke="black" d="M128.33,-126C140.17,-126 152,-126 163.83,-126"/>
</g>
<!-- outer1 -->
<g id="node3" class="node">
<title>outer1</title>
<path fill="none" stroke="black" d="M177,-50C177,-50 12,-50 12,-50 6,-50 0,-44 0,-38 0,-38 0,-12 0,-12 0,-6 6,0 12,0 12,0 177,0 177,0 183,0 189,-6 189,-12 189,-12 189,-38 189,-38 189,-44 183,-50 177,-50"/>
<text text-anchor="start" x="8" y="-35.8" font-family="Helvetica,sans-Serif" font-size="14.00"> 192.168.100.101 (eth1)</text>
<text text-anchor="start" x="68" y="-21.8" font-family="Helvetica,sans-Serif" font-weight="bold" font-size="14.00">outer1</text>
<text text-anchor="start" x="89.5" y="-7.8" font-family="Helvetica,sans-Serif" font-size="14.00"> &#160;</text>
</g>
<!-- firewall&#45;&gt;outer1 -->
<g id="edge3" class="edge">
<title>firewall&#45;&gt;outer1</title>
<path fill="none" stroke="red" stroke-width="2" d="M203.14,-95.39C183.44,-82.8 160.51,-68.16 140.81,-55.58"/>
<polygon fill="red" stroke="red" stroke-width="2" points="201.27,-98.35 211.58,-100.78 205.04,-92.45 201.27,-98.35"/>
<polygon fill="red" stroke="red" stroke-width="2" points="142.61,-52.57 132.29,-50.14 138.84,-58.47 142.61,-52.57"/>
<text text-anchor="middle" x="209.5" y="-71.8" font-family="Helvetica,sans-Serif" font-size="14.00" fill="red">spoofed</text>
</g>
<!-- outer2 -->
<g id="node4" class="node">
<title>outer2</title>
<path fill="none" stroke="black" d="M440,-50C440,-50 275,-50 275,-50 269,-50 263,-44 263,-38 263,-38 263,-12 263,-12 263,-6 269,0 275,0 275,0 440,0 440,0 446,0 452,-6 452,-12 452,-12 452,-38 452,-38 452,-44 446,-50 440,-50"/>
<text text-anchor="start" x="271" y="-35.8" font-family="Helvetica,sans-Serif" font-size="14.00"> 192.168.100.102 (eth0)</text>
<text text-anchor="start" x="331" y="-21.8" font-family="Helvetica,sans-Serif" font-weight="bold" font-size="14.00">outer2</text>
<text text-anchor="start" x="352.5" y="-7.8" font-family="Helvetica,sans-Serif" font-size="14.00"> &#160;</text>
</g>
<!-- firewall&#45;&gt;outer2 -->
<g id="edge2" class="edge">
<title>firewall&#45;&gt;outer2</title>
<path fill="none" stroke="green" stroke-width="2" d="M283.66,-93.69C296.32,-82.08 310.68,-68.92 323.34,-57.31"/>
<polygon fill="green" stroke="green" stroke-width="2" points="280.93,-91.44 275.92,-100.78 285.66,-96.6 280.93,-91.44"/>
<polygon fill="green" stroke="green" stroke-width="2" points="325.97,-59.65 330.98,-50.31 321.24,-54.49 325.97,-59.65"/>
<text text-anchor="middle" x="334" y="-71.8" font-family="Helvetica,sans-Serif" font-size="14.00" fill="green">normal</text>
</g>
<!-- outer1&#45;&gt;outer2 -->
<g id="edge4" class="edge">
<title>outer1&#45;&gt;outer2</title>
<path fill="none" stroke="red" stroke-width="2" d="M199.3,-25C216.85,-25 235.07,-25 252.63,-25"/>
<polygon fill="red" stroke="red" stroke-width="2" points="199.08,-21.5 189.08,-25 199.08,-28.5 199.08,-21.5"/>
<polygon fill="red" stroke="red" stroke-width="2" points="252.88,-28.5 262.88,-25 252.88,-21.5 252.88,-28.5"/>
<text text-anchor="middle" x="226" y="-31.8" font-family="Helvetica,sans-Serif" font-size="14.00" fill="red">spoofed</text>
</g>
</g>
</svg>
