<?xml version="1.0" encoding="UTF-8" standalone="no"?>
<!DOCTYPE svg PUBLIC "-//W3C//DTD SVG 1.1//EN"
 "http://www.w3.org/Graphics/SVG/1.1/DTD/svg11.dtd">
<!-- Generated by graphviz version 11.0.0 (20240428.1522)
 -->
<!-- Title: network_compact_for_arp_spoofed_metasploit Pages: 1 -->
<svg width="379pt" height="159pt"
 viewBox="0.00 0.00 379.12 159.00" xmlns="http://www.w3.org/2000/svg" xmlns:xlink="http://www.w3.org/1999/xlink">
<g id="page0,1_graph0" class="graph" transform="scale(1 1) rotate(0) translate(4 155)">
<title>network_compact_for_arp_spoofed_metasploit</title>
<polygon fill="white" stroke="none" points="-4,4 -4,-155 375.12,-155 375.12,4 -4,4"/>
<!-- internet -->
<g id="node1" class="node">
<title>internet</title>
<text text-anchor="start" x="8" y="-118.5" font-family="Helvetica,sans-Serif" font-size="20.00"> </text>
<text text-anchor="start" x="13.25" y="-118.5" font-family="Helvetica,sans-Serif" font-weight="bold" font-size="20.00">Internet</text>
<text text-anchor="start" x="86" y="-118.5" font-family="Helvetica,sans-Serif" font-size="20.00"> </text>
</g>
<!-- firewall -->
<g id="node2" class="node">
<title>firewall</title>
<path fill="none" stroke="black" d="M268.12,-151C268.12,-151 147.12,-151 147.12,-151 141.12,-151 135.12,-145 135.12,-139 135.12,-139 135.12,-113 135.12,-113 135.12,-107 141.12,-101 147.12,-101 147.12,-101 268.12,-101 268.12,-101 274.12,-101 280.12,-107 280.12,-113 280.12,-113 280.12,-139 280.12,-139 280.12,-145 274.12,-151 268.12,-151"/>
<text text-anchor="start" x="151" y="-134.7" font-family="Helvetica,sans-Serif" font-size="14.00"> &lt;bridge IP&gt; (eth0)</text>
<text text-anchor="start" x="184" y="-120.7" font-family="Helvetica,sans-Serif" font-weight="bold" font-size="14.00">firewall</text>
<text text-anchor="start" x="143.12" y="-106.7" font-family="Helvetica,sans-Serif" font-size="14.00">192.168.100.1 (eth1) </text>
</g>
<!-- internet&#45;&gt;firewall -->
<g id="edge1" class="edge">
<title>internet&#45;&gt;firewall</title>
<path fill="none" stroke="black" d="M99.18,-126C110.5,-126 122.75,-126 134.81,-126"/>
</g>
<!-- outer1 -->
<g id="node3" class="node">
<title>outer1</title>
<path fill="none" stroke="black" d="M148.62,-50C148.62,-50 12.62,-50 12.62,-50 6.62,-50 0.62,-44 0.62,-38 0.62,-38 0.62,-12 0.62,-12 0.62,-6 6.62,0 12.62,0 12.62,0 148.62,0 148.62,0 154.62,0 160.62,-6 160.62,-12 160.62,-12 160.62,-38 160.62,-38 160.62,-44 154.62,-50 148.62,-50"/>
<text text-anchor="start" x="8.62" y="-33.7" font-family="Helvetica,sans-Serif" font-size="14.00"> 192.168.100.101 (eth1)</text>
<text text-anchor="start" x="60" y="-19.7" font-family="Helvetica,sans-Serif" font-weight="bold" font-size="14.00">outer1</text>
<text text-anchor="start" x="76.88" y="-5.7" font-family="Helvetica,sans-Serif" font-size="14.00"> &#160;</text>
</g>
<!-- firewall&#45;&gt;outer1 -->
<g id="edge3" class="edge">
<title>firewall&#45;&gt;outer1</title>
<path fill="none" stroke="red" stroke-width="2" d="M166.14,-92.66C151.87,-81.54 135.91,-69.09 121.67,-57.99"/>
<polygon fill="red" stroke="red" stroke-width="2" points="163.81,-95.28 173.84,-98.67 168.11,-89.76 163.81,-95.28"/>
<polygon fill="red" stroke="red" stroke-width="2" points="124.08,-55.44 114.04,-52.05 119.78,-60.96 124.08,-55.44"/>
<text text-anchor="middle" x="176.62" y="-69.7" font-family="Helvetica,sans-Serif" font-size="14.00" fill="red">spoofed</text>
</g>
<!-- metasploit -->
<g id="node4" class="node">
<title>metasploit</title>
<path fill="none" stroke="black" d="M359.12,-50C359.12,-50 238.12,-50 238.12,-50 232.12,-50 226.12,-44 226.12,-38 226.12,-38 226.12,-12 226.12,-12 226.12,-6 232.12,0 238.12,0 238.12,0 359.12,0 359.12,0 365.12,0 371.12,-6 371.12,-12 371.12,-12 371.12,-38 371.12,-38 371.12,-44 365.12,-50 359.12,-50"/>
<text text-anchor="start" x="234.12" y="-33.7" font-family="Helvetica,sans-Serif" font-size="14.00"> 192.168.100.3 (eth1)</text>
<text text-anchor="start" x="264.5" y="-19.7" font-family="Helvetica,sans-Serif" font-weight="bold" font-size="14.00">metasploit</text>
<text text-anchor="start" x="294.88" y="-5.7" font-family="Helvetica,sans-Serif" font-size="14.00"> &#160;</text>
</g>
<!-- firewall&#45;&gt;metasploit -->
<g id="edge2" class="edge">
<title>firewall&#45;&gt;metasploit</title>
<path fill="none" stroke="green" stroke-width="2" d="M238.78,-91.1C248.15,-80.91 258.42,-69.74 267.77,-59.57"/>
<polygon fill="green" stroke="green" stroke-width="2" points="236.36,-88.57 232.17,-98.3 241.51,-93.31 236.36,-88.57"/>
<polygon fill="green" stroke="green" stroke-width="2" points="270.15,-62.15 274.34,-52.42 265,-57.41 270.15,-62.15"/>
<text text-anchor="middle" x="278.62" y="-69.7" font-family="Helvetica,sans-Serif" font-size="14.00" fill="green">normal</text>
</g>
<!-- outer1&#45;&gt;metasploit -->
<g id="edge4" class="edge">
<title>outer1&#45;&gt;metasploit</title>
<path fill="none" stroke="red" stroke-width="2" d="M173.73,-25C186.78,-25 200.14,-25 213.04,-25"/>
<polygon fill="red" stroke="red" stroke-width="2" points="173.9,-21.5 163.9,-25 173.9,-28.5 173.9,-21.5"/>
<polygon fill="red" stroke="red" stroke-width="2" points="212.74,-28.5 222.74,-25 212.74,-21.5 212.74,-28.5"/>
<text text-anchor="middle" x="193.38" y="-29.7" font-family="Helvetica,sans-Serif" font-size="14.00" fill="red">spoofed</text>
</g>
</g>
</svg>
