<?xml version="1.0" encoding="UTF-8" standalone="no"?>
<!DOCTYPE svg PUBLIC "-//W3C//DTD SVG 1.1//EN"
 "http://www.w3.org/Graphics/SVG/1.1/DTD/svg11.dtd">
<!-- Generated by graphviz version 11.0.0 (20240428.1522)
 -->
<!-- Title: network_compact_for_arp_spoofed_outer2 Pages: 1 -->
<svg width="394pt" height="159pt"
 viewBox="0.00 0.00 394.00 159.00" xmlns="http://www.w3.org/2000/svg" xmlns:xlink="http://www.w3.org/1999/xlink">
<g id="page0,1_graph0" class="graph" transform="scale(1 1) rotate(0) translate(4 155)">
<title>network_compact_for_arp_spoofed_outer2</title>
<polygon fill="white" stroke="none" points="-4,4 -4,-155 390,-155 390,4 -4,4"/>
<!-- internet -->
<g id="node1" class="node">
<title>internet</title>
<text text-anchor="start" x="12.38" y="-118.5" font-family="Helvetica,sans-Serif" font-size="20.00"> </text>
<text text-anchor="start" x="17.62" y="-118.5" font-family="Helvetica,sans-Serif" font-weight="bold" font-size="20.00">Internet</text>
<text text-anchor="start" x="90.38" y="-118.5" font-family="Helvetica,sans-Serif" font-size="20.00"> </text>
</g>
<!-- firewall -->
<g id="node2" class="node">
<title>firewall</title>
<path fill="none" stroke="black" d="M272.5,-151C272.5,-151 151.5,-151 151.5,-151 145.5,-151 139.5,-145 139.5,-139 139.5,-139 139.5,-113 139.5,-113 139.5,-107 145.5,-101 151.5,-101 151.5,-101 272.5,-101 272.5,-101 278.5,-101 284.5,-107 284.5,-113 284.5,-113 284.5,-139 284.5,-139 284.5,-145 278.5,-151 272.5,-151"/>
<text text-anchor="start" x="155.38" y="-134.7" font-family="Helvetica,sans-Serif" font-size="14.00"> &lt;bridge IP&gt; (eth0)</text>
<text text-anchor="start" x="188.38" y="-120.7" font-family="Helvetica,sans-Serif" font-weight="bold" font-size="14.00">firewall</text>
<text text-anchor="start" x="147.5" y="-106.7" font-family="Helvetica,sans-Serif" font-size="14.00">192.168.100.1 (eth1) </text>
</g>
<!-- internet&#45;&gt;firewall -->
<g id="edge1" class="edge">
<title>internet&#45;&gt;firewall</title>
<path fill="none" stroke="black" d="M103.56,-126C114.87,-126 127.12,-126 139.18,-126"/>
</g>
<!-- outer1 -->
<g id="node3" class="node">
<title>outer1</title>
<path fill="none" stroke="black" d="M148,-50C148,-50 12,-50 12,-50 6,-50 0,-44 0,-38 0,-38 0,-12 0,-12 0,-6 6,0 12,0 12,0 148,0 148,0 154,0 160,-6 160,-12 160,-12 160,-38 160,-38 160,-44 154,-50 148,-50"/>
<text text-anchor="start" x="8" y="-33.7" font-family="Helvetica,sans-Serif" font-size="14.00"> 192.168.100.101 (eth1)</text>
<text text-anchor="start" x="59.38" y="-19.7" font-family="Helvetica,sans-Serif" font-weight="bold" font-size="14.00">outer1</text>
<text text-anchor="start" x="76.25" y="-5.7" font-family="Helvetica,sans-Serif" font-size="14.00"> &#160;</text>
</g>
<!-- firewall&#45;&gt;outer1 -->
<g id="edge3" class="edge">
<title>firewall&#45;&gt;outer1</title>
<path fill="none" stroke="red" stroke-width="2" d="M169.14,-92.86C154.11,-81.59 137.26,-68.94 122.28,-57.71"/>
<polygon fill="red" stroke="red" stroke-width="2" points="166.85,-95.51 176.95,-98.71 171.05,-89.91 166.85,-95.51"/>
<polygon fill="red" stroke="red" stroke-width="2" points="124.78,-55.21 114.68,-52.01 120.58,-60.81 124.78,-55.21"/>
<text text-anchor="middle" x="178" y="-69.7" font-family="Helvetica,sans-Serif" font-size="14.00" fill="red">spoofed</text>
</g>
<!-- outer2 -->
<g id="node4" class="node">
<title>outer2</title>
<path fill="none" stroke="black" d="M374,-50C374,-50 238,-50 238,-50 232,-50 226,-44 226,-38 226,-38 226,-12 226,-12 226,-6 232,0 238,0 238,0 374,0 374,0 380,0 386,-6 386,-12 386,-12 386,-38 386,-38 386,-44 380,-50 374,-50"/>
<text text-anchor="start" x="234" y="-33.7" font-family="Helvetica,sans-Serif" font-size="14.00"> 192.168.100.102 (eth0)</text>
<text text-anchor="start" x="285.38" y="-19.7" font-family="Helvetica,sans-Serif" font-weight="bold" font-size="14.00">outer2</text>
<text text-anchor="start" x="302.25" y="-5.7" font-family="Helvetica,sans-Serif" font-size="14.00"> &#160;</text>
</g>
<!-- firewall&#45;&gt;outer2 -->
<g id="edge2" class="edge">
<title>firewall&#45;&gt;outer2</title>
<path fill="none" stroke="none" stroke-width="2" d="M244.18,-91.1C253.86,-80.91 264.47,-69.74 274.13,-59.57"/>
<polygon fill="none" stroke="none" stroke-width="2" points="241.67,-88.67 237.32,-98.33 246.74,-93.49 241.67,-88.67"/>
<polygon fill="none" stroke="none" stroke-width="2" points="276.6,-62.05 280.95,-52.39 271.52,-57.23 276.6,-62.05"/>
<text text-anchor="middle" x="285" y="-69.7" font-family="Helvetica,sans-Serif" font-size="14.00" fill="#fffffe" fill-opacity="0.000000">normal</text>
</g>
<!-- outer1&#45;&gt;outer2 -->
<g id="edge4" class="edge">
<title>outer1&#45;&gt;outer2</title>
<path fill="none" stroke="red" stroke-width="2" d="M173.15,-25C186.2,-25 199.61,-25 212.66,-25"/>
<polygon fill="red" stroke="red" stroke-width="2" points="173.34,-21.5 163.34,-25 173.34,-28.5 173.34,-21.5"/>
<polygon fill="red" stroke="red" stroke-width="2" points="212.54,-28.5 222.54,-25 212.54,-21.5 212.54,-28.5"/>
<text text-anchor="middle" x="193" y="-29.7" font-family="Helvetica,sans-Serif" font-size="14.00" fill="red">spoofed</text>
</g>
</g>
</svg>
