<?xml version="1.0" encoding="UTF-8" standalone="no"?>
<!DOCTYPE svg PUBLIC "-//W3C//DTD SVG 1.1//EN"
 "http://www.w3.org/Graphics/SVG/1.1/DTD/svg11.dtd">
<!-- Generated by graphviz version 10.0.1 (20240210.2158)
 -->
<!-- Title: network_compact_for_dns Pages: 1 -->
<svg width="995pt" height="316pt"
 viewBox="0.00 0.00 994.50 316.00" xmlns="http://www.w3.org/2000/svg" xmlns:xlink="http://www.w3.org/1999/xlink">
<g id="page0,1_graph0" class="graph" transform="scale(1 1) rotate(0) translate(4 312)">
<title>network_compact_for_dns</title>
<polygon fill="white" stroke="none" points="-4,4 -4,-312 990.5,-312 990.5,4 -4,4"/>
<!-- outer_network -->
<g id="node1" class="node">
<title>outer_network</title>
<ellipse fill="none" stroke="black" cx="436" cy="-204" rx="136.16" ry="18"/>
<text text-anchor="middle" x="436" y="-198.2" font-family="Helvetica,sans-Serif" font-size="14.00">outernet network: 192.168.100.x</text>
</g>
<!-- outer1 -->
<g id="node6" class="node">
<title>outer1</title>
<path fill="none" stroke="black" d="M148,-143C148,-143 12,-143 12,-143 6,-143 0,-137 0,-131 0,-131 0,-105 0,-105 0,-99 6,-93 12,-93 12,-93 148,-93 148,-93 154,-93 160,-99 160,-105 160,-105 160,-131 160,-131 160,-137 154,-143 148,-143"/>
<text text-anchor="start" x="8" y="-126.7" font-family="Helvetica,sans-Serif" font-size="14.00"> 192.168.100.101 (eth1)</text>
<text text-anchor="start" x="59.38" y="-112.7" font-family="Helvetica,sans-Serif" font-weight="bold" font-size="14.00">outer1</text>
<text text-anchor="start" x="15.5" y="-98.7" font-family="Helvetica,sans-Serif" font-size="14.00">192.168.150.3 (eth0) </text>
</g>
<!-- outer_network&#45;&#45;outer1 -->
<g id="edge3" class="edge">
<title>outer_network&#45;&#45;outer1</title>
<path fill="none" stroke="black" d="M352.02,-189.42C299.09,-180.11 229.54,-166.47 169,-150 161.74,-148.02 154.21,-145.76 146.75,-143.37"/>
</g>
<!-- outer2 -->
<g id="node7" class="node">
<title>outer2</title>
<path fill="none" stroke="black" d="M326,-143C326,-143 190,-143 190,-143 184,-143 178,-137 178,-131 178,-131 178,-105 178,-105 178,-99 184,-93 190,-93 190,-93 326,-93 326,-93 332,-93 338,-99 338,-105 338,-105 338,-131 338,-131 338,-137 332,-143 326,-143"/>
<text text-anchor="start" x="186" y="-126.7" font-family="Helvetica,sans-Serif" font-size="14.00"> 192.168.100.102 (eth0)</text>
<text text-anchor="start" x="237.38" y="-112.7" font-family="Helvetica,sans-Serif" font-weight="bold" font-size="14.00">outer2</text>
<text text-anchor="start" x="254.25" y="-98.7" font-family="Helvetica,sans-Serif" font-size="14.00"> &#160;</text>
</g>
<!-- outer_network&#45;&#45;outer2 -->
<g id="edge4" class="edge">
<title>outer_network&#45;&#45;outer2</title>
<path fill="none" stroke="black" d="M400.41,-186.2C374.43,-173.95 338.83,-157.15 309.72,-143.41"/>
</g>
<!-- outer3 -->
<g id="node8" class="node">
<title>outer3</title>
<path fill="none" stroke="black" d="M504,-143C504,-143 368,-143 368,-143 362,-143 356,-137 356,-131 356,-131 356,-105 356,-105 356,-99 362,-93 368,-93 368,-93 504,-93 504,-93 510,-93 516,-99 516,-105 516,-105 516,-131 516,-131 516,-137 510,-143 504,-143"/>
<text text-anchor="start" x="364" y="-126.7" font-family="Helvetica,sans-Serif" font-size="14.00"> 192.168.100.103 (eth0)</text>
<text text-anchor="start" x="415.38" y="-112.7" font-family="Helvetica,sans-Serif" font-weight="bold" font-size="14.00">outer3</text>
<text text-anchor="start" x="432.25" y="-98.7" font-family="Helvetica,sans-Serif" font-size="14.00"> &#160;</text>
</g>
<!-- outer_network&#45;&#45;outer3 -->
<g id="edge5" class="edge">
<title>outer_network&#45;&#45;outer3</title>
<path fill="none" stroke="black" d="M436,-185.6C436,-173.39 436,-156.9 436,-143.39"/>
</g>
<!-- gateway -->
<g id="node9" class="node">
<title>gateway</title>
<path fill="none" stroke="black" d="M667.5,-150C667.5,-150 546.5,-150 546.5,-150 540.5,-150 534.5,-144 534.5,-138 534.5,-138 534.5,-98 534.5,-98 534.5,-92 540.5,-86 546.5,-86 546.5,-86 667.5,-86 667.5,-86 673.5,-86 679.5,-92 679.5,-98 679.5,-98 679.5,-138 679.5,-138 679.5,-144 673.5,-150 667.5,-150"/>
<text text-anchor="start" x="542.5" y="-133.7" font-family="Helvetica,sans-Serif" font-size="14.00"> 192.168.100.2 (eth2)</text>
<text text-anchor="start" x="580" y="-119.7" font-family="Helvetica,sans-Serif" font-weight="bold" font-size="14.00">gateway</text>
<text text-anchor="start" x="544.38" y="-105.7" font-family="Helvetica,sans-Serif" font-size="14.00">192.168.200.1 (eth0)</text>
<text text-anchor="start" x="542.5" y="-91.7" font-family="Helvetica,sans-Serif" font-size="14.00">192.168.150.1 (eth1) </text>
</g>
<!-- outer_network&#45;&#45;gateway -->
<g id="edge8" class="edge">
<title>outer_network&#45;&#45;gateway</title>
<path fill="none" stroke="blue" stroke-width="4" d="M470.19,-186.2C491.05,-175.96 518.37,-162.54 543.11,-150.38"/>
</g>
<!-- metasploit -->
<g id="node10" class="node">
<title>metasploit</title>
<path fill="none" stroke="black" d="M830.5,-143C830.5,-143 709.5,-143 709.5,-143 703.5,-143 697.5,-137 697.5,-131 697.5,-131 697.5,-105 697.5,-105 697.5,-99 703.5,-93 709.5,-93 709.5,-93 830.5,-93 830.5,-93 836.5,-93 842.5,-99 842.5,-105 842.5,-105 842.5,-131 842.5,-131 842.5,-137 836.5,-143 830.5,-143"/>
<text text-anchor="start" x="705.5" y="-126.7" font-family="Helvetica,sans-Serif" font-size="14.00"> 192.168.100.3 (eth1)</text>
<text text-anchor="start" x="735.88" y="-112.7" font-family="Helvetica,sans-Serif" font-weight="bold" font-size="14.00">metasploit</text>
<text text-anchor="start" x="705.5" y="-98.7" font-family="Helvetica,sans-Serif" font-size="14.00">192.168.200.2 (eth0) </text>
</g>
<!-- outer_network&#45;&#45;metasploit -->
<g id="edge6" class="edge">
<title>outer_network&#45;&#45;metasploit</title>
<path fill="none" stroke="black" d="M517.36,-189.18C567.12,-179.92 631.79,-166.43 688,-150 694.72,-148.04 701.67,-145.78 708.56,-143.39"/>
</g>
<!-- inner_network -->
<g id="node2" class="node">
<title>inner_network</title>
<ellipse fill="none" stroke="black" cx="688" cy="-25" rx="135.68" ry="18"/>
<text text-anchor="middle" x="688" y="-19.2" font-family="Helvetica,sans-Serif" font-size="14.00">innernet network: 192.168.200.x</text>
</g>
<!-- inner -->
<g id="node11" class="node">
<title>inner</title>
<path fill="none" stroke="black" d="M974.5,-50C974.5,-50 853.5,-50 853.5,-50 847.5,-50 841.5,-44 841.5,-38 841.5,-38 841.5,-12 841.5,-12 841.5,-6 847.5,0 853.5,0 853.5,0 974.5,0 974.5,0 980.5,0 986.5,-6 986.5,-12 986.5,-12 986.5,-38 986.5,-38 986.5,-44 980.5,-50 974.5,-50"/>
<text text-anchor="start" x="849.5" y="-33.7" font-family="Helvetica,sans-Serif" font-size="14.00"> 192.168.200.3 (eth0)</text>
<text text-anchor="start" x="897.5" y="-19.7" font-family="Helvetica,sans-Serif" font-weight="bold" font-size="14.00">inner</text>
<text text-anchor="start" x="910.25" y="-5.7" font-family="Helvetica,sans-Serif" font-size="14.00"> &#160;</text>
</g>
<!-- inner_network&#45;&#45;inner -->
<g id="edge10" class="edge">
<title>inner_network&#45;&#45;inner</title>
<path fill="none" stroke="black" d="M823.95,-25C829.7,-25 835.44,-25 841.19,-25"/>
</g>
<!-- other_network -->
<g id="node3" class="node">
<title>other_network</title>
<ellipse fill="none" stroke="black" cx="198" cy="-25" rx="136.16" ry="18"/>
<text text-anchor="middle" x="198" y="-19.2" font-family="Helvetica,sans-Serif" font-size="14.00">othernet network: 192.168.150.x</text>
</g>
<!-- other_network&#45;&#45;gateway -->
<g id="edge11" class="edge">
<title>other_network&#45;&#45;gateway</title>
<path fill="none" stroke="purple" stroke-width="4" d="M278.28,-39.95C367.32,-55.55 501.58,-79.48 525,-86 528.08,-86.86 531.2,-87.78 534.35,-88.76"/>
</g>
<!-- other -->
<g id="node12" class="node">
<title>other</title>
<path fill="none" stroke="black" d="M485.5,-50C485.5,-50 364.5,-50 364.5,-50 358.5,-50 352.5,-44 352.5,-38 352.5,-38 352.5,-12 352.5,-12 352.5,-6 358.5,0 364.5,0 364.5,0 485.5,0 485.5,0 491.5,0 497.5,-6 497.5,-12 497.5,-12 497.5,-38 497.5,-38 497.5,-44 491.5,-50 485.5,-50"/>
<text text-anchor="start" x="360.5" y="-33.7" font-family="Helvetica,sans-Serif" font-size="14.00"> 192.168.150.2 (eth0)</text>
<text text-anchor="start" x="408.12" y="-19.7" font-family="Helvetica,sans-Serif" font-weight="bold" font-size="14.00">other</text>
<text text-anchor="start" x="421.25" y="-5.7" font-family="Helvetica,sans-Serif" font-size="14.00"> &#160;</text>
</g>
<!-- other_network&#45;&#45;other -->
<g id="edge12" class="edge">
<title>other_network&#45;&#45;other</title>
<path fill="none" stroke="black" d="M334.55,-25C340.44,-25 346.33,-25 352.22,-25"/>
</g>
<!-- internet -->
<g id="node4" class="node">
<title>internet</title>
<text text-anchor="start" x="254.38" y="-275.5" font-family="Helvetica,sans-Serif" font-size="20.00"> </text>
<text text-anchor="start" x="259.62" y="-275.5" font-family="Helvetica,sans-Serif" font-weight="bold" font-size="20.00">Internet</text>
<text text-anchor="start" x="332.38" y="-275.5" font-family="Helvetica,sans-Serif" font-size="20.00"> </text>
</g>
<!-- firewall -->
<g id="node5" class="node">
<title>firewall</title>
<path fill="none" stroke="black" d="M496.5,-308C496.5,-308 375.5,-308 375.5,-308 369.5,-308 363.5,-302 363.5,-296 363.5,-296 363.5,-270 363.5,-270 363.5,-264 369.5,-258 375.5,-258 375.5,-258 496.5,-258 496.5,-258 502.5,-258 508.5,-264 508.5,-270 508.5,-270 508.5,-296 508.5,-296 508.5,-302 502.5,-308 496.5,-308"/>
<text text-anchor="start" x="379.38" y="-291.7" font-family="Helvetica,sans-Serif" font-size="14.00"> &lt;bridge IP&gt; (eth0)</text>
<text text-anchor="start" x="412.38" y="-277.7" font-family="Helvetica,sans-Serif" font-weight="bold" font-size="14.00">firewall</text>
<text text-anchor="start" x="371.5" y="-263.7" font-family="Helvetica,sans-Serif" font-size="14.00">192.168.100.1 (eth1) </text>
</g>
<!-- internet&#45;&#45;firewall -->
<g id="edge1" class="edge">
<title>internet&#45;&#45;firewall</title>
<path fill="none" stroke="red" stroke-width="4" d="M345.49,-283C351.38,-283 357.28,-283 363.17,-283"/>
</g>
<!-- firewall&#45;&#45;outer_network -->
<g id="edge2" class="edge">
<title>firewall&#45;&#45;outer_network</title>
<path fill="none" stroke="black" d="M436,-257.64C436,-246.18 436,-232.79 436,-222.38"/>
</g>
<!-- outer1&#45;&#45;other_network -->
<g id="edge13" class="edge">
<title>outer1&#45;&#45;other_network</title>
<path fill="none" stroke="black" d="M111.62,-92.61C131.83,-77.03 157.54,-57.2 175.64,-43.24"/>
</g>
<!-- gateway&#45;&#45;inner_network -->
<g id="edge9" class="edge">
<title>gateway&#45;&#45;inner_network</title>
<path fill="none" stroke="green" stroke-width="4" d="M634.88,-85.68C647.51,-71.49 661.96,-55.26 672.59,-43.31"/>
</g>
<!-- metasploit&#45;&#45;inner_network -->
<g id="edge7" class="edge">
<title>metasploit&#45;&#45;inner_network</title>
<path fill="none" stroke="black" d="M748.03,-92.61C733.98,-77.03 716.12,-57.2 703.54,-43.24"/>
</g>
</g>
</svg>
