<?xml version="1.0" encoding="UTF-8" standalone="no"?>
<!DOCTYPE svg PUBLIC "-//W3C//DTD SVG 1.1//EN"
 "http://www.w3.org/Graphics/SVG/1.1/DTD/svg11.dtd">
<!-- Generated by graphviz version 11.0.0 (20240428.1522)
 -->
<!-- Title: network Pages: 1 -->
<svg width="851pt" height="446pt"
 viewBox="0.00 0.00 850.50 446.00" xmlns="http://www.w3.org/2000/svg" xmlns:xlink="http://www.w3.org/1999/xlink">
<g id="graph0" class="graph" transform="scale(1 1) rotate(0) translate(4 442)">
<title>network</title>
<polygon fill="white" stroke="none" points="-4,4 -4,-442 846.5,-442 846.5,4 -4,4"/>
<!-- outer_network -->
<g id="node1" class="node">
<title>outer_network</title>
<ellipse fill="none" stroke="black" cx="436" cy="-262" rx="136.16" ry="18"/>
<text text-anchor="middle" x="436" y="-256.2" font-family="Helvetica,sans-Serif" font-size="14.00">outernet network: 192.168.100.x</text>
</g>
<!-- outer1 -->
<g id="node5" class="node">
<title>outer1</title>
<path fill="none" stroke="black" d="M148,-208C148,-208 12,-208 12,-208 6,-208 0,-202 0,-196 0,-196 0,-170 0,-170 0,-164 6,-158 12,-158 12,-158 148,-158 148,-158 154,-158 160,-164 160,-170 160,-170 160,-196 160,-196 160,-202 154,-208 148,-208"/>
<text text-anchor="start" x="8" y="-191.7" font-family="Helvetica,sans-Serif" font-size="14.00"> 192.168.100.101 (eth0)</text>
<text text-anchor="start" x="59.38" y="-177.7" font-family="Helvetica,sans-Serif" font-weight="bold" font-size="14.00">outer1</text>
<text text-anchor="start" x="78.12" y="-163.7" font-family="Helvetica,sans-Serif" font-size="14.00"> </text>
</g>
<!-- outer_network&#45;&#45;outer1 -->
<g id="edge3" class="edge">
<title>outer_network&#45;&#45;outer1</title>
<path fill="none" stroke="black" d="M357.72,-246.9C304.34,-236.93 232.16,-222.77 169,-208 166.2,-207.34 163.34,-206.66 160.47,-205.96"/>
</g>
<!-- outer2 -->
<g id="node6" class="node">
<title>outer2</title>
<path fill="none" stroke="black" d="M326,-208C326,-208 190,-208 190,-208 184,-208 178,-202 178,-196 178,-196 178,-170 178,-170 178,-164 184,-158 190,-158 190,-158 326,-158 326,-158 332,-158 338,-164 338,-170 338,-170 338,-196 338,-196 338,-202 332,-208 326,-208"/>
<text text-anchor="start" x="186" y="-191.7" font-family="Helvetica,sans-Serif" font-size="14.00"> 192.168.100.102 (eth0)</text>
<text text-anchor="start" x="237.38" y="-177.7" font-family="Helvetica,sans-Serif" font-weight="bold" font-size="14.00">outer2</text>
<text text-anchor="start" x="256.12" y="-163.7" font-family="Helvetica,sans-Serif" font-size="14.00"> </text>
</g>
<!-- outer_network&#45;&#45;outer2 -->
<g id="edge4" class="edge">
<title>outer_network&#45;&#45;outer2</title>
<path fill="none" stroke="black" d="M397.38,-244.29C373.14,-233.81 341.48,-220.11 314.46,-208.42"/>
</g>
<!-- outer3 -->
<g id="node7" class="node">
<title>outer3</title>
<path fill="none" stroke="black" d="M504,-208C504,-208 368,-208 368,-208 362,-208 356,-202 356,-196 356,-196 356,-170 356,-170 356,-164 362,-158 368,-158 368,-158 504,-158 504,-158 510,-158 516,-164 516,-170 516,-170 516,-196 516,-196 516,-202 510,-208 504,-208"/>
<text text-anchor="start" x="364" y="-191.7" font-family="Helvetica,sans-Serif" font-size="14.00"> 192.168.100.103 (eth1)</text>
<text text-anchor="start" x="415.38" y="-177.7" font-family="Helvetica,sans-Serif" font-weight="bold" font-size="14.00">outer3</text>
<text text-anchor="start" x="371.5" y="-163.7" font-family="Helvetica,sans-Serif" font-size="14.00">192.168.200.4 (eth0) </text>
</g>
<!-- outer_network&#45;&#45;outer3 -->
<g id="edge5" class="edge">
<title>outer_network&#45;&#45;outer3</title>
<path fill="none" stroke="black" d="M436,-243.53C436,-233.14 436,-219.82 436,-208.41"/>
</g>
<!-- gateway -->
<g id="node8" class="node">
<title>gateway</title>
<path fill="none" stroke="black" d="M667.5,-208C667.5,-208 546.5,-208 546.5,-208 540.5,-208 534.5,-202 534.5,-196 534.5,-196 534.5,-170 534.5,-170 534.5,-164 540.5,-158 546.5,-158 546.5,-158 667.5,-158 667.5,-158 673.5,-158 679.5,-164 679.5,-170 679.5,-170 679.5,-196 679.5,-196 679.5,-202 673.5,-208 667.5,-208"/>
<text text-anchor="start" x="542.5" y="-191.7" font-family="Helvetica,sans-Serif" font-size="14.00"> 192.168.100.2 (eth1)</text>
<text text-anchor="start" x="580" y="-177.7" font-family="Helvetica,sans-Serif" font-weight="bold" font-size="14.00">gateway</text>
<text text-anchor="start" x="542.5" y="-163.7" font-family="Helvetica,sans-Serif" font-size="14.00">192.168.200.1 (eth0) </text>
</g>
<!-- outer_network&#45;&#45;gateway -->
<g id="edge8" class="edge">
<title>outer_network&#45;&#45;gateway</title>
<path fill="none" stroke="black" d="M473.1,-244.29C496.38,-233.81 526.8,-220.11 552.76,-208.42"/>
</g>
<!-- metasploit -->
<g id="node9" class="node">
<title>metasploit</title>
<path fill="none" stroke="black" d="M830.5,-208C830.5,-208 709.5,-208 709.5,-208 703.5,-208 697.5,-202 697.5,-196 697.5,-196 697.5,-170 697.5,-170 697.5,-164 703.5,-158 709.5,-158 709.5,-158 830.5,-158 830.5,-158 836.5,-158 842.5,-164 842.5,-170 842.5,-170 842.5,-196 842.5,-196 842.5,-202 836.5,-208 830.5,-208"/>
<text text-anchor="start" x="705.5" y="-191.7" font-family="Helvetica,sans-Serif" font-size="14.00"> 192.168.100.3 (eth1)</text>
<text text-anchor="start" x="735.88" y="-177.7" font-family="Helvetica,sans-Serif" font-weight="bold" font-size="14.00">metasploit</text>
<text text-anchor="start" x="705.5" y="-163.7" font-family="Helvetica,sans-Serif" font-size="14.00">192.168.200.2 (eth0) </text>
</g>
<!-- outer_network&#45;&#45;metasploit -->
<g id="edge6" class="edge">
<title>outer_network&#45;&#45;metasploit</title>
<path fill="none" stroke="black" d="M512.21,-246.72C562.62,-236.86 630.04,-222.88 689,-208 691.7,-207.32 694.45,-206.6 697.22,-205.87"/>
</g>
<!-- inner_network -->
<g id="node2" class="node">
<title>inner_network</title>
<ellipse fill="none" stroke="black" cx="607" cy="-104" rx="135.68" ry="18"/>
<text text-anchor="middle" x="607" y="-98.2" font-family="Helvetica,sans-Serif" font-size="14.00">innernet network: 192.168.200.x</text>
</g>
<!-- inner -->
<g id="node10" class="node">
<title>inner</title>
<path fill="none" stroke="black" d="M667.5,-50C667.5,-50 546.5,-50 546.5,-50 540.5,-50 534.5,-44 534.5,-38 534.5,-38 534.5,-12 534.5,-12 534.5,-6 540.5,0 546.5,0 546.5,0 667.5,0 667.5,0 673.5,0 679.5,-6 679.5,-12 679.5,-12 679.5,-38 679.5,-38 679.5,-44 673.5,-50 667.5,-50"/>
<text text-anchor="start" x="542.5" y="-33.7" font-family="Helvetica,sans-Serif" font-size="14.00"> 192.168.200.3 (eth0)</text>
<text text-anchor="start" x="590.5" y="-19.7" font-family="Helvetica,sans-Serif" font-weight="bold" font-size="14.00">inner</text>
<text text-anchor="start" x="605.12" y="-5.7" font-family="Helvetica,sans-Serif" font-size="14.00"> </text>
</g>
<!-- inner_network&#45;&#45;inner -->
<g id="edge10" class="edge">
<title>inner_network&#45;&#45;inner</title>
<path fill="none" stroke="black" d="M607,-85.53C607,-75.14 607,-61.82 607,-50.41"/>
</g>
<!-- internet -->
<g id="node3" class="node">
<title>internet</title>
<text text-anchor="start" x="394.38" y="-412.5" font-family="Helvetica,sans-Serif" font-size="20.00"> </text>
<text text-anchor="start" x="399.62" y="-412.5" font-family="Helvetica,sans-Serif" font-weight="bold" font-size="20.00">Internet</text>
<text text-anchor="start" x="472.38" y="-412.5" font-family="Helvetica,sans-Serif" font-size="20.00"> </text>
</g>
<!-- firewall -->
<g id="node4" class="node">
<title>firewall</title>
<path fill="none" stroke="black" d="M496.5,-366C496.5,-366 375.5,-366 375.5,-366 369.5,-366 363.5,-360 363.5,-354 363.5,-354 363.5,-328 363.5,-328 363.5,-322 369.5,-316 375.5,-316 375.5,-316 496.5,-316 496.5,-316 502.5,-316 508.5,-322 508.5,-328 508.5,-328 508.5,-354 508.5,-354 508.5,-360 502.5,-366 496.5,-366"/>
<text text-anchor="start" x="379.38" y="-349.7" font-family="Helvetica,sans-Serif" font-size="14.00"> &lt;bridge IP&gt; (eth0)</text>
<text text-anchor="start" x="412.38" y="-335.7" font-family="Helvetica,sans-Serif" font-weight="bold" font-size="14.00">firewall</text>
<text text-anchor="start" x="371.5" y="-321.7" font-family="Helvetica,sans-Serif" font-size="14.00">192.168.100.1 (eth1) </text>
</g>
<!-- internet&#45;&#45;firewall -->
<g id="edge1" class="edge">
<title>internet&#45;&#45;firewall</title>
<path fill="none" stroke="black" d="M436,-402.29C436,-391.77 436,-378 436,-366.28"/>
</g>
<!-- firewall&#45;&#45;outer_network -->
<g id="edge2" class="edge">
<title>firewall&#45;&#45;outer_network</title>
<path fill="none" stroke="black" d="M436,-315.64C436,-304.18 436,-290.79 436,-280.38"/>
</g>
<!-- outer3&#45;&#45;inner_network -->
<g id="edge11" class="edge">
<title>outer3&#45;&#45;inner_network</title>
<path fill="none" stroke="black" d="M490.11,-157.64C516.03,-145.96 546.44,-132.27 569.74,-121.78"/>
</g>
<!-- gateway&#45;&#45;inner_network -->
<g id="edge9" class="edge">
<title>gateway&#45;&#45;inner_network</title>
<path fill="none" stroke="black" d="M607,-157.64C607,-146.18 607,-132.79 607,-122.38"/>
</g>
<!-- metasploit&#45;&#45;inner_network -->
<g id="edge7" class="edge">
<title>metasploit&#45;&#45;inner_network</title>
<path fill="none" stroke="black" d="M718.43,-157.64C693.71,-145.96 664.73,-132.27 642.52,-121.78"/>
</g>
</g>
</svg>
