<?xml version="1.0" encoding="UTF-8" standalone="no"?>
<!DOCTYPE svg PUBLIC "-//W3C//DTD SVG 1.1//EN"
 "http://www.w3.org/Graphics/SVG/1.1/DTD/svg11.dtd">
<!-- Generated by graphviz version 9.0.0 (20230911.1827)
 -->
<!-- Title: network Pages: 1 -->
<svg width="851pt" height="460pt"
 viewBox="0.00 0.00 850.50 460.00" xmlns="http://www.w3.org/2000/svg" xmlns:xlink="http://www.w3.org/1999/xlink">
<g id="graph0" class="graph" transform="scale(1 1) rotate(0) translate(4 456)">
<title>network</title>
<polygon fill="white" stroke="none" points="-4,4 -4,-456 846.5,-456 846.5,4 -4,4"/>
<!-- outer_network -->
<g id="node1" class="node">
<title>outer_network</title>
<ellipse fill="none" stroke="black" cx="436" cy="-276" rx="136.16" ry="18"/>
<text text-anchor="middle" x="436" y="-270.2" font-family="Helvetica,sans-Serif" font-size="14.00">outernet network: 192.168.100.x</text>
</g>
<!-- outer1 -->
<g id="node6" class="node">
<title>outer1</title>
<polygon fill="none" stroke="black" points="160,-215 0,-215 0,-165 160,-165 160,-215"/>
<text text-anchor="start" x="8" y="-198.7" font-family="Helvetica,sans-Serif" font-size="14.00"> 192.168.100.101 (eth1)</text>
<text text-anchor="start" x="59.38" y="-184.7" font-family="Helvetica,sans-Serif" font-weight="bold" font-size="14.00">outer1</text>
<text text-anchor="start" x="15.5" y="-170.7" font-family="Helvetica,sans-Serif" font-size="14.00">192.168.150.3 (eth0) </text>
</g>
<!-- outer_network&#45;&#45;outer1 -->
<g id="edge3" class="edge">
<title>outer_network&#45;&#45;outer1</title>
<path fill="none" stroke="black" d="M352.02,-261.42C299.09,-252.11 229.54,-238.47 169,-222 161.74,-220.02 154.21,-217.76 146.75,-215.37"/>
</g>
<!-- outer2 -->
<g id="node7" class="node">
<title>outer2</title>
<polygon fill="none" stroke="black" points="338,-215 178,-215 178,-165 338,-165 338,-215"/>
<text text-anchor="start" x="186" y="-198.7" font-family="Helvetica,sans-Serif" font-size="14.00"> 192.168.100.102 (eth0)</text>
<text text-anchor="start" x="237.38" y="-184.7" font-family="Helvetica,sans-Serif" font-weight="bold" font-size="14.00">outer2</text>
<text text-anchor="start" x="256.12" y="-170.7" font-family="Helvetica,sans-Serif" font-size="14.00"> </text>
</g>
<!-- outer_network&#45;&#45;outer2 -->
<g id="edge4" class="edge">
<title>outer_network&#45;&#45;outer2</title>
<path fill="none" stroke="black" d="M400.41,-258.2C374.43,-245.95 338.83,-229.15 309.72,-215.41"/>
</g>
<!-- outer3 -->
<g id="node8" class="node">
<title>outer3</title>
<polygon fill="none" stroke="black" points="516,-215 356,-215 356,-165 516,-165 516,-215"/>
<text text-anchor="start" x="364" y="-198.7" font-family="Helvetica,sans-Serif" font-size="14.00"> 192.168.100.103 (eth0)</text>
<text text-anchor="start" x="415.38" y="-184.7" font-family="Helvetica,sans-Serif" font-weight="bold" font-size="14.00">outer3</text>
<text text-anchor="start" x="434.12" y="-170.7" font-family="Helvetica,sans-Serif" font-size="14.00"> </text>
</g>
<!-- outer_network&#45;&#45;outer3 -->
<g id="edge5" class="edge">
<title>outer_network&#45;&#45;outer3</title>
<path fill="none" stroke="black" d="M436,-257.6C436,-245.39 436,-228.9 436,-215.39"/>
</g>
<!-- gateway -->
<g id="node9" class="node">
<title>gateway</title>
<polygon fill="none" stroke="black" points="679.5,-222 534.5,-222 534.5,-158 679.5,-158 679.5,-222"/>
<text text-anchor="start" x="542.5" y="-205.7" font-family="Helvetica,sans-Serif" font-size="14.00"> 192.168.100.2 (eth2)</text>
<text text-anchor="start" x="580" y="-191.7" font-family="Helvetica,sans-Serif" font-weight="bold" font-size="14.00">gateway</text>
<text text-anchor="start" x="544.38" y="-177.7" font-family="Helvetica,sans-Serif" font-size="14.00">192.168.200.1 (eth0)</text>
<text text-anchor="start" x="542.5" y="-163.7" font-family="Helvetica,sans-Serif" font-size="14.00">192.168.150.1 (eth1) </text>
</g>
<!-- outer_network&#45;&#45;gateway -->
<g id="edge8" class="edge">
<title>outer_network&#45;&#45;gateway</title>
<path fill="none" stroke="black" d="M470.19,-258.2C491.05,-247.96 518.37,-234.54 543.11,-222.38"/>
</g>
<!-- metasploit -->
<g id="node10" class="node">
<title>metasploit</title>
<polygon fill="none" stroke="black" points="842.5,-215 697.5,-215 697.5,-165 842.5,-165 842.5,-215"/>
<text text-anchor="start" x="705.5" y="-198.7" font-family="Helvetica,sans-Serif" font-size="14.00"> 192.168.100.3 (eth1)</text>
<text text-anchor="start" x="735.88" y="-184.7" font-family="Helvetica,sans-Serif" font-weight="bold" font-size="14.00">metasploit</text>
<text text-anchor="start" x="705.5" y="-170.7" font-family="Helvetica,sans-Serif" font-size="14.00">192.168.200.2 (eth0) </text>
</g>
<!-- outer_network&#45;&#45;metasploit -->
<g id="edge6" class="edge">
<title>outer_network&#45;&#45;metasploit</title>
<path fill="none" stroke="black" d="M517.36,-261.18C567.12,-251.92 631.79,-238.43 688,-222 694.72,-220.04 701.67,-217.78 708.56,-215.39"/>
</g>
<!-- inner_network -->
<g id="node2" class="node">
<title>inner_network</title>
<ellipse fill="none" stroke="black" cx="688" cy="-104" rx="135.68" ry="18"/>
<text text-anchor="middle" x="688" y="-98.2" font-family="Helvetica,sans-Serif" font-size="14.00">innernet network: 192.168.200.x</text>
</g>
<!-- inner -->
<g id="node11" class="node">
<title>inner</title>
<polygon fill="none" stroke="black" points="760.5,-50 615.5,-50 615.5,0 760.5,0 760.5,-50"/>
<text text-anchor="start" x="623.5" y="-33.7" font-family="Helvetica,sans-Serif" font-size="14.00"> 192.168.200.3 (eth0)</text>
<text text-anchor="start" x="671.5" y="-19.7" font-family="Helvetica,sans-Serif" font-weight="bold" font-size="14.00">inner</text>
<text text-anchor="start" x="686.12" y="-5.7" font-family="Helvetica,sans-Serif" font-size="14.00"> </text>
</g>
<!-- inner_network&#45;&#45;inner -->
<g id="edge10" class="edge">
<title>inner_network&#45;&#45;inner</title>
<path fill="none" stroke="black" d="M688,-85.53C688,-75.14 688,-61.82 688,-50.41"/>
</g>
<!-- other_network -->
<g id="node3" class="node">
<title>other_network</title>
<ellipse fill="none" stroke="black" cx="280" cy="-104" rx="136.16" ry="18"/>
<text text-anchor="middle" x="280" y="-98.2" font-family="Helvetica,sans-Serif" font-size="14.00">othernet network: 192.168.150.x</text>
</g>
<!-- other_network&#45;&#45;gateway -->
<g id="edge11" class="edge">
<title>other_network&#45;&#45;gateway</title>
<path fill="none" stroke="black" d="M359.09,-119.02C407.45,-128.35 470.33,-141.85 525,-158 528.07,-158.91 531.18,-159.87 534.31,-160.88"/>
</g>
<!-- other -->
<g id="node12" class="node">
<title>other</title>
<polygon fill="none" stroke="black" points="352.5,-50 207.5,-50 207.5,0 352.5,0 352.5,-50"/>
<text text-anchor="start" x="215.5" y="-33.7" font-family="Helvetica,sans-Serif" font-size="14.00"> 192.168.150.2 (eth0)</text>
<text text-anchor="start" x="263.12" y="-19.7" font-family="Helvetica,sans-Serif" font-weight="bold" font-size="14.00">other</text>
<text text-anchor="start" x="278.12" y="-5.7" font-family="Helvetica,sans-Serif" font-size="14.00"> </text>
</g>
<!-- other_network&#45;&#45;other -->
<g id="edge12" class="edge">
<title>other_network&#45;&#45;other</title>
<path fill="none" stroke="black" d="M280,-85.53C280,-75.14 280,-61.82 280,-50.41"/>
</g>
<!-- internet -->
<g id="node4" class="node">
<title>internet</title>
<text text-anchor="start" x="394.38" y="-426.5" font-family="Helvetica,sans-Serif" font-size="20.00"> </text>
<text text-anchor="start" x="399.62" y="-426.5" font-family="Helvetica,sans-Serif" font-weight="bold" font-size="20.00">Internet</text>
<text text-anchor="start" x="472.38" y="-426.5" font-family="Helvetica,sans-Serif" font-size="20.00"> </text>
</g>
<!-- firewall -->
<g id="node5" class="node">
<title>firewall</title>
<polygon fill="none" stroke="black" points="508.5,-380 363.5,-380 363.5,-330 508.5,-330 508.5,-380"/>
<text text-anchor="start" x="379.38" y="-363.7" font-family="Helvetica,sans-Serif" font-size="14.00"> &lt;bridge IP&gt; (eth0)</text>
<text text-anchor="start" x="412.38" y="-349.7" font-family="Helvetica,sans-Serif" font-weight="bold" font-size="14.00">firewall</text>
<text text-anchor="start" x="371.5" y="-335.7" font-family="Helvetica,sans-Serif" font-size="14.00">192.168.100.1 (eth1) </text>
</g>
<!-- internet&#45;&#45;firewall -->
<g id="edge1" class="edge">
<title>internet&#45;&#45;firewall</title>
<path fill="none" stroke="black" d="M436,-416.29C436,-405.77 436,-392 436,-380.28"/>
</g>
<!-- firewall&#45;&#45;outer_network -->
<g id="edge2" class="edge">
<title>firewall&#45;&#45;outer_network</title>
<path fill="none" stroke="black" d="M436,-329.64C436,-318.18 436,-304.79 436,-294.38"/>
</g>
<!-- outer1&#45;&#45;other_network -->
<g id="edge13" class="edge">
<title>outer1&#45;&#45;other_network</title>
<path fill="none" stroke="black" d="M138.12,-164.59C170.99,-150.79 211.23,-133.89 240.44,-121.61"/>
</g>
<!-- gateway&#45;&#45;inner_network -->
<g id="edge9" class="edge">
<title>gateway&#45;&#45;inner_network</title>
<path fill="none" stroke="black" d="M637.16,-157.72C648.86,-145.59 661.78,-132.19 671.68,-121.93"/>
</g>
<!-- metasploit&#45;&#45;inner_network -->
<g id="edge7" class="edge">
<title>metasploit&#45;&#45;inner_network</title>
<path fill="none" stroke="black" d="M746.28,-164.7C733.04,-151.14 716.85,-134.55 704.9,-122.31"/>
</g>
</g>
</svg>
